<svg xmlns="http://www.w3.org/2000/svg" width="48" height="48" viewBox="0 0 48 48"><title>codepen</title><g class="nc-icon-wrapper"><circle fill="#030502" cx="24" cy="24" r="24"></circle><path fill="#FFF" d="M39.388 17.981l-14.625-9.75a1.375 1.375 0 0 0-1.526 0l-14.625 9.75A1.393 1.393 0 0 0 8 19.125v9.75c0 .472.253.907.612 1.144l14.625 9.75a1.375 1.375 0 0 0 1.526 0l14.625-9.75c.353-.23.612-.667.612-1.144v-9.75c0-.443-.227-.89-.612-1.144zm-14.013-6.036l10.774 7.182-4.812 3.219-5.962-3.988v-6.413zm-2.75 0v6.413l-5.961 3.988-4.813-3.22 10.774-7.181zM10.75 21.699l3.44 2.3-3.44 2.302v-4.602zm11.875 14.356L11.85 28.873l4.813-3.218 5.96 3.987v6.413zM24 27.253L19.137 24 24 20.747 28.863 24 24 27.253zm1.375 8.802v-6.413l5.962-3.987 4.812 3.218-10.774 7.182zm11.875-9.754L33.81 24l3.44-2.301V26.3z"></path></g></svg>