<svg width="20" height="20" xmlns="http://www.w3.org/2000/svg" viewBox="0 0 24 24"><title>Github</title><g fill="none" class="nc-icon-wrapper"><path d="M11.744 14C5.14 13 5.648 8.5 7.68 7c-.401-.608-1.016-3-.508-4 1.016.5 2.38 1.24 3.048 2 2.032-1 5.08-1 6.605 0 .401-.811 1.872-1.577 2.54-2 .602.608.167 2.986 0 4 1.003 2.197 1.524 5.5-4.064 7 .826.669 2.156 2.265 3.08 4.09.656 1.292-.597 2.48-2.024 2.228-.996-.177-2.102-.318-3.088-.318-1.194 0-2.775.207-4.143.433-1.414.233-2.559-.986-1.833-2.222.527-.898 1.19-1.738 1.911-2.211-.25-.338-1.244-1.311-3.048-.5-2.256 1.014-3.55-1.232-3.049-2.5" stroke="#212121" stroke-linecap="round" stroke-linejoin="round"></path></g></svg>