<svg xmlns="http://www.w3.org/2000/svg" width="16" height="16" viewBox="0 0 16 16"><title>shopping</title><g fill="#ffffff" class="nc-icon-wrapper"><path fill="#ffffff" d="M13.3 3.1c0-.1-.1-.1-.2-.1s-1.3-.1-1.3-.1-.8-.9-.9-1c-.1-.1-.3-.1-.3 0 0 0-.2.1-.5.1C9.8 1.2 9.5.5 8.3.5 8.1.1 7.8 0 7.5 0c-2.1 0-3 2.6-3.4 3.9-.8.2-1.3.4-1.4.4-.4.2-.5.2-.5.6 0 .3-1.2 9.4-1.2 9.4l9.1 1.7 4.9-1.1S13.3 3.2 13.3 3.1zm-5-.5c-.5.2-1 .3-1.6.5.3-1.2.9-1.8 1.4-2 .2.9.2 1.5.2 1.5zm-.9-2c.1 0 .2 0 .3.1-.6.3-1.4 1-1.7 2.6-.4.1-.8.3-1.2.4C5.1 2.5 6 .6 7.4.6zm.4 6.9s-.5-.3-1.2-.3c-1 0-1 .6-1 .8 0 .8 2.2 1.1 2.2 3.1 0 1.5-1 2.5-2.3 2.5-1.6 0-2.4-1-2.4-1l.4-1.4s.8.7 1.5.7c.5 0 .6-.4.6-.6 0-1.1-1.8-1.1-1.8-2.9 0-1.5 1.1-2.9 3.2-2.9.8 0 1.2.2 1.2.2l-.4 1.8zm1-5.1v-.2c0-.5-.1-.9-.2-1.2.5.1.8.6 1 1.2-.2.1-.5.2-.8.2z"></path></g></svg>