<svg xmlns="http://www.w3.org/2000/svg" width="48" height="48" viewBox="0 0 48 48"><title>slack_dark</title><g fill="#000000" class="nc-icon-wrapper"><path fill="#000000" d="M21.824 28.209l-2.064-6.163 6.448-2.16 2.064 6.163z"></path><path fill="#000000" d="M21.824 28.209l-2.064-6.163 6.448-2.16 2.064 6.163z"></path><path fill="#000000" d="M46 17.4C41 .9 33.9-2.9 17.4 2 .9 7-2.9 14.1 2 30.6 7 47.1 14.1 50.9 30.6 46 47.1 41 50.9 33.9 46 17.4zm-8.4 10.7l-3.1 1 1.1 3.2c.4 1.3-.3 2.7-1.6 3.1-.3.1-.6.1-.9.1-1 0-2-.7-2.3-1.7l-1.1-3.2-6.4 2.1 1.1 3.2c.4 1.3-.3 2.7-1.6 3.1-.3.1-.6.1-.9.1-1 0-2-.7-2.3-1.7l-1.1-3.2-3.1 1c-.3.1-.6.1-.9.1-1 0-2-.7-2.3-1.7-.4-1.3.3-2.7 1.6-3.1l3.1-1-1.9-5.9-3.1 1c-.3.1-.6.1-.9.1-1 0-2-.7-2.3-1.7-.4-1.3.3-2.7 1.6-3.1l3.1-1-1.1-3.2c-.4-1.3.3-2.7 1.6-3.1 1.3-.4 2.7.3 3.1 1.6l1.1 3.2 6.4-2.1-1.1-3.2c-.4-1.3.3-2.7 1.6-3.1 1.3-.4 2.7.3 3.1 1.6l1.1 3.2 3.1-1c1.3-.4 2.7.3 3.1 1.6.4 1.3-.3 2.7-1.6 3.1l-3.1 1 2.1 6.2 3.1-1c1.3-.4 2.7.3 3.1 1.6.7 1 0 2.4-1.4 2.8z"></path></g></svg>