<svg xmlns="http://www.w3.org/2000/svg" height="20" width="20" viewBox="0 0 64 64"><title>thumb up 2</title><g stroke-width="2" fill="#212121" stroke="#212121" class="nc-icon-wrapper"><path data-cap="butt" d="M13,33,24,2s7-.182,7,8V25H55a5.618,5.618,0,0,1,5.727,5.364,5.4,5.4,0,0,1-1.312,3.511,5.418,5.418,0,0,1-.986,9.8,5.432,5.432,0,0,1-3.06,8.285A4.084,4.084,0,0,1,52.545,59H31a39.551,39.551,0,0,1-18-4" fill="none" stroke="#212121" stroke-miterlimit="10"></path> <rect data-color="color-2" x="2" y="28" width="11" height="30" rx="3" ry="3" fill="none" stroke-linecap="square" stroke-miterlimit="10"></rect></g></svg>