<svg xmlns="http://www.w3.org/2000/svg" viewBox="0 0 500 500"><g id="freepik--background-simple--inject-216"><path d="M332.06,46.83S253.3,16.15,177.81,59.9,65.88,193.37,34.46,265.19,24,411.4,83.28,446.58s97.87-13.48,179.86-13.82,104.35,12.35,171.26-33.85,76.44-159.09,20.68-244.21S332.06,46.83,332.06,46.83Z" style="fill:#BA68C8"></path><path d="M332.06,46.83S253.3,16.15,177.81,59.9,65.88,193.37,34.46,265.19,24,411.4,83.28,446.58s97.87-13.48,179.86-13.82,104.35,12.35,171.26-33.85,76.44-159.09,20.68-244.21S332.06,46.83,332.06,46.83Z" style="fill:#fff;opacity:0.7000000000000001"></path></g><g id="freepik--Shadow--inject-216"><ellipse cx="256.88" cy="475.15" rx="99.57" ry="12.57" style="fill:#263238"></ellipse></g><g id="freepik--Sparkles--inject-216"><path d="M145.37,69.25c-11.8-1.54-12.88-2.61-14.41-14.42a.5.5,0,0,0-1,0c-1.53,11.81-2.61,12.88-14.41,14.42a.5.5,0,0,0-.44.49.51.51,0,0,0,.44.5c11.8,1.53,12.88,2.61,14.41,14.41a.5.5,0,0,0,1,0c1.53-11.8,2.61-12.88,14.41-14.41a.51.51,0,0,0,.44-.5A.5.5,0,0,0,145.37,69.25ZM130.46,81.09c-1.33-8.08-3.27-10-11.34-11.35,8.07-1.33,10-3.27,11.34-11.34,1.34,8.07,3.27,10,11.35,11.34C133.73,71.07,131.8,73,130.46,81.09Z" style="fill:#263238"></path><path d="M345.47,440.79c-11.8-1.53-12.88-2.61-14.41-14.41a.5.5,0,0,0-1,0c-1.53,11.8-2.61,12.88-14.41,14.41a.51.51,0,0,0-.44.5.5.5,0,0,0,.44.49c11.8,1.54,12.88,2.61,14.41,14.41a.5.5,0,0,0,1,0c1.53-11.8,2.61-12.87,14.41-14.41a.5.5,0,0,0,.44-.49A.51.51,0,0,0,345.47,440.79Zm-14.91,11.84c-1.33-8.07-3.27-10-11.34-11.34,8.07-1.33,10-3.27,11.34-11.35,1.34,8.08,3.27,10,11.35,11.35C333.83,442.62,331.9,444.56,330.56,452.63Z" style="fill:#263238"></path><path d="M157.71,237.06c-9.06-1.17-9.89-2-11.06-11.07a.51.51,0,0,0-1,0c-1.17,9.07-2,9.9-11.06,11.07a.51.51,0,0,0-.44.5.5.5,0,0,0,.44.49c9.06,1.18,9.89,2,11.06,11.07a.5.5,0,0,0,1,0c1.17-9.06,2-9.89,11.06-11.07a.5.5,0,0,0,.44-.49A.51.51,0,0,0,157.71,237.06Zm-11.56,8.62c-1-5.58-2.55-7.12-8.12-8.12,5.57-1,7.12-2.55,8.12-8.12,1,5.57,2.55,7.12,8.12,8.12C148.7,238.56,147.15,240.1,146.15,245.68Z" style="fill:#263238"></path><path d="M409.81,112.74c-9.07-1.17-9.89-2-11.07-11.06a.51.51,0,0,0-.5-.44.5.5,0,0,0-.49.44c-1.18,9.06-2,9.89-11.07,11.06a.51.51,0,0,0-.44.5.5.5,0,0,0,.44.49c9.06,1.18,9.89,2,11.07,11.07a.5.5,0,0,0,.49.44.51.51,0,0,0,.5-.44c1.18-9.06,2-9.89,11.07-11.07a.5.5,0,0,0,.43-.49A.51.51,0,0,0,409.81,112.74Zm-11.57,8.62c-1-5.57-2.54-7.12-8.12-8.12,5.58-1,7.12-2.55,8.12-8.12,1,5.57,2.55,7.12,8.12,8.12C400.79,114.24,399.25,115.79,398.24,121.36Z" style="fill:#263238"></path><path d="M466.27,357.78c-6.65-.86-7.17-1.39-8-8a.49.49,0,0,0-.49-.43.5.5,0,0,0-.5.43c-.86,6.65-1.39,7.18-8,8a.51.51,0,0,0-.44.5.5.5,0,0,0,.44.49c6.64.87,7.17,1.39,8,8a.5.5,0,0,0,.5.43.49.49,0,0,0,.49-.43c.87-6.65,1.39-7.17,8-8a.5.5,0,0,0,.44-.49A.51.51,0,0,0,466.27,357.78Zm-8.53,5.81c-.73-3.41-1.9-4.59-5.32-5.31,3.42-.73,4.59-1.9,5.32-5.32.72,3.42,1.9,4.59,5.31,5.32C459.64,359,458.46,360.18,457.74,363.59Z" style="fill:#263238"></path><path d="M384.35,426.74c-6.65-.87-7.18-1.39-8-8a.5.5,0,0,0-1,0c-.87,6.65-1.39,7.17-8,8a.49.49,0,0,0-.43.49.5.5,0,0,0,.43.5c6.65.86,7.17,1.39,8,8a.5.5,0,0,0,1,0c.86-6.64,1.39-7.17,8-8a.5.5,0,0,0,.43-.5A.49.49,0,0,0,384.35,426.74Zm-8.54,5.81c-.72-3.42-1.9-4.59-5.31-5.32,3.41-.72,4.59-1.9,5.31-5.31.73,3.41,1.9,4.59,5.32,5.31C377.71,428,376.54,429.13,375.81,432.55Z" style="fill:#263238"></path><path d="M64.24,388.68c-6.65-.87-7.18-1.39-8-8a.5.5,0,0,0-1,0c-.87,6.65-1.39,7.17-8,8a.49.49,0,0,0-.43.49.5.5,0,0,0,.43.5c6.65.86,7.17,1.39,8,8a.5.5,0,0,0,1,0c.86-6.65,1.39-7.18,8-8a.5.5,0,0,0,.43-.5A.49.49,0,0,0,64.24,388.68Zm-8.54,5.81c-.72-3.42-1.9-4.59-5.31-5.32,3.41-.72,4.59-1.9,5.31-5.31.73,3.41,1.9,4.59,5.32,5.31C57.61,389.9,56.43,391.07,55.7,394.49Z" style="fill:#263238"></path><path d="M190.65,445.77c-6.65-.87-7.17-1.39-8-8a.5.5,0,0,0-.49-.44.51.51,0,0,0-.5.44c-.86,6.65-1.39,7.17-8,8a.5.5,0,0,0-.43.49.51.51,0,0,0,.43.5c6.65.86,7.18,1.39,8,8a.51.51,0,0,0,.5.44.5.5,0,0,0,.49-.44c.87-6.64,1.39-7.17,8-8a.51.51,0,0,0,.44-.5A.5.5,0,0,0,190.65,445.77Zm-8.53,5.81c-.73-3.42-1.9-4.59-5.32-5.32,3.42-.72,4.59-1.9,5.32-5.31.72,3.41,1.9,4.59,5.31,5.31C184,447,182.84,448.16,182.12,451.58Z" style="fill:#263238"></path><path d="M371.43,127c-6.64-.87-7.17-1.39-8-8a.51.51,0,0,0-.5-.44.5.5,0,0,0-.49.44c-.87,6.65-1.39,7.17-8,8a.5.5,0,0,0-.44.49.51.51,0,0,0,.44.5c6.65.86,7.17,1.39,8,8a.5.5,0,0,0,.49.44.51.51,0,0,0,.5-.44c.86-6.64,1.39-7.17,8-8a.51.51,0,0,0,.44-.5A.5.5,0,0,0,371.43,127Zm-8.53,5.81c-.72-3.42-1.9-4.6-5.31-5.32,3.41-.72,4.59-1.9,5.31-5.31.72,3.41,1.9,4.59,5.31,5.31C364.8,128.23,363.62,129.41,362.9,132.83Z" style="fill:#263238"></path><path d="M156.67,84.88c-6.65-.87-7.18-1.39-8-8a.5.5,0,0,0-1,0c-.86,6.65-1.39,7.17-8,8a.49.49,0,0,0-.43.49.5.5,0,0,0,.43.5c6.65.86,7.18,1.39,8,8a.5.5,0,0,0,1,0c.86-6.65,1.39-7.18,8-8a.5.5,0,0,0,.43-.5A.49.49,0,0,0,156.67,84.88Zm-8.53,5.81c-.73-3.41-1.91-4.59-5.32-5.32,3.41-.72,4.59-1.9,5.32-5.31.72,3.41,1.9,4.59,5.31,5.31C150,86.1,148.86,87.28,148.14,90.69Z" style="fill:#263238"></path><path d="M113.48,395.47c-9.06-1.18-9.89-2-11.06-11.06a.5.5,0,0,0-1,0c-1.17,9.06-2,9.88-11.06,11.06a.51.51,0,0,0-.44.5.5.5,0,0,0,.44.49c9.06,1.18,9.89,2,11.06,11.07a.5.5,0,0,0,1,0c1.17-9.06,2-9.89,11.06-11.07a.5.5,0,0,0,.44-.49A.51.51,0,0,0,113.48,395.47Zm-11.56,8.62c-1-5.57-2.55-7.12-8.12-8.12,5.57-1,7.12-2.55,8.12-8.12,1,5.57,2.55,7.11,8.12,8.12C104.47,397,102.92,398.52,101.92,404.09Z" style="fill:#263238"></path></g><g id="freepik--Plants--inject-216"><g style="opacity:0.2"><path d="M153.52,374.85c.7.9,1.37,1.82,2,2.74.32.48.64.94,1,1.4l.95,1.35c1.27,1.78,2.43,3.64,3.54,5.39s2.18,3.43,3.15,5.09l.71,1.23.7,1.16c.45.77.88,1.52,1.3,2.22.82,1.45,1.56,2.79,2.19,4s1.21,2.2,1.66,3.07c.9,1.72,1.36,2.74,1.36,2.74l-1.16-.71c-.73-.47-1.81-1.08-3.06-2s-2.72-1.93-4.3-3.07l-1.2-.89-1.2-1-2.48-2.05c-1.68-1.35-3.29-2.95-4.85-4.47-.78-.77-1.55-1.5-2.26-2.29s-1.39-1.58-2-2.34a30,30,0,0,1-5.17-7.86,70.16,70.16,0,0,1-2.07-6.72c-.31-1.2-.62-2.37-.89-3.55s-.48-2.37-.69-3.46c-.4-2.2-.74-4.06-.91-5.47s-.26-2.23-.26-2.23l2,1.2c1.26.69,3,1.72,5,2.93,1,.56,2.09,1.17,3.18,1.83l1.67,1,1.73,1c1.15.66,2.28,1.41,3.42,2.1s2.25,1.37,3.29,2.11a15.61,15.61,0,0,1,2.82,2.57,19,19,0,0,1,2.22,3.32A37.75,37.75,0,0,1,168,382.7c.82,2.46,1.43,4.75,1.82,6.46s.57,2.81.57,2.81c.18,2,.4,4,.66,6-4.48-6.05-9-11.65-12.18-16-.8-1.08-1.54-2.05-2.2-2.89L155,376.79C154.06,375.54,153.52,374.85,153.52,374.85Z"></path><path d="M134.84,411.72c1.34.32,2.65.6,3.94.84l1.92.33c.64.08,1.27.14,1.9.2a60.28,60.28,0,0,0,7.12.25c2.26-.12,4.37-.34,6.31-.62l1.42-.22,1.37-.3c.9-.21,1.75-.42,2.55-.64,1.61-.44,3-.9,4.27-1.34s2.31-.94,3.16-1.33c1.7-.81,2.61-1.35,2.61-1.35l-1.34-.17c-.85-.12-2.1-.23-3.6-.46l-5.23-.85c-.49-.08-1-.15-1.5-.24l-1.54-.31-3.21-.64c-2.22-.38-4.43-1-6.65-1.45-1.11-.25-2.23-.46-3.29-.73l-3.14-.77c-4.1-.88-7.57-1.78-9.75-1.74s-4.65,0-7.26,0c-1.29,0-2.62,0-3.9,0l-3.72-.16c-2.38-.13-4.56-.2-6.07-.35l-2.46-.22s.79.95,2.18,2.51,3.46,3.61,5.91,6c5,4.56,11.71,9.95,18.22,13.25a17.69,17.69,0,0,0,4.95,1.76,24,24,0,0,0,4.93.5,29.71,29.71,0,0,0,8.86-1.76,35.15,35.15,0,0,0,6.21-3.12,24.89,24.89,0,0,0,2.31-1.61c1.42-1.35,2.82-2.72,4.2-4.15l-1.4.3-1.4.21q-1.41.21-2.82.36a51.72,51.72,0,0,1-5.62.39c-1.83,0-3.63,0-5.36-.05s-3.34-.26-4.87-.41-2.92-.35-4.17-.53-2.32-.45-3.21-.64C135.87,412,134.84,411.72,134.84,411.72Z"></path><path d="M125.51,352.85c1.65,4.11,3.09,8.11,4.25,11.95s2.16,7.4,3,10.41,1.36,5.7,1.78,7.47.57,2.86.57,2.86l-.87-1c-.55-.64-1.37-1.49-2.28-2.65l-3.13-4c-.58-.73-1.14-1.54-1.72-2.38L125.37,373c-4.67-7-8.67-15.32-9-19.33-.1-1-.21-2.05-.27-3.17s-.08-2.3-.1-3.47c0-2.35,0-4.64.11-6.77s.27-3.93.38-5.22.23-2.08.23-2.08l.4.43,1.15,1.17,1.72,1.79c.64.69,1.34,1.47,2.15,2.26s1.62,1.66,2.46,2.57l.64.7.67.67,1.34,1.39c1.74,1.93,3.59,3.8,5.14,5.73.2.25.38.5.55.75s.36.5.53.76a15.08,15.08,0,0,1,.9,1.63,20.27,20.27,0,0,1,1.25,3.64,36.47,36.47,0,0,1,1.14,7.64c.16,2.46.18,4.69.13,6.34s-.15,2.69-.15,2.69c-.3,1.85-.6,3.75-.84,5.6Z"></path><path d="M104.05,321.25a189,189,0,0,1,1.26,23.7c0,3.17-.11,5.87-.19,7.73s-.17,2.9-.17,2.9l-.6-1.2c-.39-.75-.9-1.88-1.49-3.26s-1.3-3-2-4.79-1.38-3.78-2.07-5.8-1.25-4.17-1.82-6.22c-.29-1-.52-2.06-.73-3.08s-.4-2-.57-3-.34-1.86-.44-2.74-.17-1.73-.22-2.5a19.45,19.45,0,0,1,.07-3.84c.29-2,.82-4.25,1.36-6.48s1.22-4.49,1.86-6.46,1.19-3.64,1.69-4.86l.78-1.93,1,2c.69,1.25,1.64,3,2.67,5.07,2.22,4.05,4.87,9.19,7,13.76s1.46,10.32.53,15.18c-.51,2.44-1.06,4.58-1.52,6.14s-.81,2.52-.81,2.52q-1.14,2.52-2.24,5.12c-.34-3.66-.89-7.13-1.24-10.48-.21-1.63-.42-3.22-.62-4.73s-.33-2.93-.49-4.22c-.37-2.57-.54-4.77-.74-6.26S104.05,321.25,104.05,321.25Z"></path><path d="M100.88,381.63c1.13.66,2.24,1.27,3.33,1.84s2.24,1,3.32,1.49a45.7,45.7,0,0,0,6.33,2.17c2,.53,4,.93,5.78,1.22s3.53.37,5.07.44,2.92.06,4.14,0,2.29-.2,3.15-.31c1.71-.23,2.65-.46,2.65-.46l-4.29-2c-2.55-1.33-6.15-3-9.83-5.08l-2.85-1.51-2.8-1.62c-1.87-1.07-3.75-2.08-5.44-3.11s-3.33-1.88-4.77-2.59a20.2,20.2,0,0,0-3.59-1.61c-1.94-.58-4.25-1.2-6.54-1.94s-4.71-1.44-6.83-2.17c-4.2-1.48-7.55-2.72-7.55-2.72s.54,1,1.46,2.78,2.24,4.21,4,6.89c.86,1.35,1.8,2.79,2.79,4.26s2.13,2.9,3.26,4.37l1.72,2.18c.6.71,1.22,1.39,1.84,2.07,1.23,1.36,2.47,2.67,3.71,3.88a20.76,20.76,0,0,0,4,2.9,18.29,18.29,0,0,0,4.3,1.78,26.32,26.32,0,0,0,8.33.87,30,30,0,0,0,8.72-1.86c1.58-.8,3.18-1.68,4.74-2.55a44,44,0,0,1-5.25-.8c-1.73-.36-3.48-.72-5.13-1.21s-3.25-1-4.78-1.55c-.76-.27-1.52-.53-2.23-.81l-2-.88c-2.61-1.16-4.88-2.18-6.36-3S100.88,381.63,100.88,381.63Z"></path><path d="M72.37,339.79c1.83,2,3.68,3.74,5.49,5.33a68.38,68.38,0,0,0,5.51,4.09l1.33.86,1.33.77c.89.49,1.75,1,2.58,1.36a41.77,41.77,0,0,0,4.7,2.08,51.25,51.25,0,0,0,7,2.05c1.72.31,2.68.39,2.68.39l-1-.87c-.65-.54-1.5-1.4-2.58-2.41s-2.39-2.2-3.75-3.56l-4.39-4.4-4.57-4.82c-1.53-1.61-3-3.25-4.38-4.73s-2.68-2.88-3.85-4a21.91,21.91,0,0,0-3.08-2.66c-3.34-2.38-8-5.48-11.65-8.28-1.85-1.38-3.52-2.62-4.65-3.56l-1.85-1.5s.22,1.18.61,3.17,1.14,4.71,2,7.89c.43,1.58,1,3.23,1.59,5s1.18,3.52,1.93,5.26,1.5,3.51,2.29,5.23,1.71,3.32,2.58,4.87a21.32,21.32,0,0,0,6.74,7.18c.64.44,1.28.83,1.93,1.2s1.33.66,2,1A31.21,31.21,0,0,0,82.82,358a31.6,31.6,0,0,0,3.44.74c1.07.15,2,.22,2.82.26a23.36,23.36,0,0,0,2.57,0c1.75-.28,3.47-.58,5.19-.91-1.62-.75-3.24-1.57-4.83-2.44s-3.08-1.86-4.56-2.82-2.92-2-4.2-3-2.52-2-3.65-3L78,345.4l-1.4-1.33c-.88-.85-1.64-1.61-2.26-2.25C73.07,340.55,72.37,339.79,72.37,339.79Z"></path><path d="M91.87,285.53a188.23,188.23,0,0,1-4.72,23.12c-.78,3.05-1.55,5.59-2.12,7.37s-.87,2.73-.87,2.73l-.28-1.32c-.2-.84-.37-2.1-.61-3.6s-.53-3.27-.75-5.21-.38-4.06-.56-6.2-.15-4.39-.18-6.53.14-4.27.26-6.2a39.56,39.56,0,0,1,.7-5.23,19.55,19.55,0,0,1,1-3.66,85.42,85.42,0,0,1,6.38-11.4c1.13-1.68,2.07-3.11,2.87-4.12l1.24-1.61s.19.84.46,2.26.82,3.39,1.28,5.67c1.1,4.55,2.35,10.28,3.26,15.3a18.6,18.6,0,0,1-.57,7.59c-.17.63-.37,1.25-.58,1.87s-.41,1.21-.64,1.81c-.46,1.19-1,2.34-1.51,3.43s-1.1,2.11-1.61,3-1,1.73-1.39,2.41c-.82,1.35-1.4,2.17-1.4,2.17q-1.72,2.09-3.42,4.24c.56-3.61.92-7.13,1.41-10.45.23-1.65.36-3.21.59-4.72s.41-2.91.58-4.2c.08-.64.15-1.25.22-1.84s.18-1.15.26-1.68c.15-1,.28-1.94.38-2.7C91.78,286.37,91.87,285.53,91.87,285.53Z"></path><path d="M56.78,293.6c1.26,2.46,2.61,4.73,3.95,6.82A67.76,67.76,0,0,0,65,306.05,57.8,57.8,0,0,0,73.29,314a55.5,55.5,0,0,0,6.27,4.11c.76.42,1.41.71,1.83.9l.65.29-.73-1.13c-.47-.73-1.09-1.81-1.88-3.11-.39-.65-.83-1.37-1.28-2.13s-1-1.56-1.43-2.43l-3.13-5.57c-1-2-2.11-4-3.2-6s-2-4-3-5.89-1.83-3.61-2.68-5.07a25.42,25.42,0,0,0-2.29-3.52c-1.3-1.67-2.87-3.6-4.48-5.6l-1.22-1.5-1.16-1.52-2.23-3c-1.43-1.9-2.72-3.62-3.56-4.87l-1.39-2-.23,3.23c-.09,2-.09,4.89-.07,8.22,0,1.67.16,3.43.27,5.28.08.92.15,1.86.22,2.81s.17,1.9.31,2.86c.26,1.91.56,3.84.89,5.74.09.47.17.94.26,1.41s.21.93.32,1.39c.21.92.44,1.82.67,2.7a22.51,22.51,0,0,0,1.92,4.9,26.44,26.44,0,0,0,2.78,4.09,27.25,27.25,0,0,0,6.58,5.74,33.75,33.75,0,0,0,3.13,1.77,26.73,26.73,0,0,0,2.64,1.12,22.9,22.9,0,0,0,2.47.78c1.75.26,3.49.5,5.22.71-1.37-1.21-2.73-2.49-4-3.81s-2.49-2.73-3.68-4.12a84,84,0,0,1-6-8.16c-.86-1.27-1.57-2.48-2.2-3.56s-1.18-2-1.62-2.86l-1-1.88C56.89,293.84,56.78,293.6,56.78,293.6Z"></path><path d="M89.28,247.57a180.67,180.67,0,0,1-10.44,20.68c-1.51,2.68-2.9,4.88-3.9,6.41S73.41,277,73.41,277s0-.49.06-1.36.19-2.13.33-3.65.32-3.29.62-5.22.66-4,1-6.12,1-4.26,1.49-6.32c.25-1,.57-2,.89-3s.63-1.93,1-2.83.62-1.77,1-2.57.7-1.55,1-2.23a18.29,18.29,0,0,1,1.92-3.18c.59-.74,1.29-1.51,2-2.29s1.51-1.57,2.29-2.35,1.57-1.54,2.34-2.27,1.62-1.41,2.37-2c1.51-1.27,2.84-2.34,3.8-3.08.47-.38.89-.66,1.16-.86l.43-.31s0,.22,0,.62,0,1-.06,1.72c0,1.46-.13,3.5-.24,5.85,0,1.18-.06,2.44-.12,3.73,0,.65-.07,1.3-.11,2s0,1.34,0,2c0,1.35-.13,2.71-.24,4s-.14,2.66-.28,3.93a18,18,0,0,1-2.48,7.09c-.32.54-.68,1.08-1,1.6s-.7,1-1.07,1.53c-.75,1-1.54,1.94-2.33,2.82s-1.58,1.68-2.32,2.4-1.37,1.35-1.94,1.88c-1.13,1-1.89,1.64-1.89,1.64q-2.19,1.47-4.36,3c.72-1.65,1.41-3.28,2.05-4.89l.47-1.19.51-1.18,1-2.32c.64-1.51,1.16-3,1.77-4.33s1.14-2.66,1.63-3.85c.92-2.37,1.87-4.32,2.42-5.68S89.28,247.57,89.28,247.57Z"></path><path d="M53.56,244.33c.59,2.76,1.28,5.36,2,7.78s1.75,4.68,2.67,6.75a50.39,50.39,0,0,0,3,5.65c1,1.69,2,3.21,3,4.54a59.72,59.72,0,0,0,5,5.9c.62.64,1.16,1.11,1.52,1.43l.55.48-.42-1.32-1-3.56c-.22-.75-.45-1.57-.7-2.44q-.2-.66-.39-1.35t-.36-1.44c-.49-2-1-4.11-1.59-6.31s-1-4.52-1.51-6.79-.91-4.5-1.39-6.6-.85-4-1.27-5.7a25.16,25.16,0,0,0-1.29-4.08c-.86-2.05-1.86-4.39-2.86-6.77-.51-1.21-1.06-2.44-1.54-3.65l-1.36-3.52c-.88-2.3-1.65-4.33-2.2-5.78l-.82-2.36-.28.79c-.18.52-.46,1.27-.73,2.23-.57,1.93-1.36,4.65-2.19,7.84-1.46,6.42-2.94,14.83-2.84,22.2a26.86,26.86,0,0,0,.14,2.71,17.43,17.43,0,0,0,.44,2.6,28.9,28.9,0,0,0,6.48,12.37,30.53,30.53,0,0,0,4.8,4.58A24.17,24.17,0,0,0,60.53,272c1.61.8,3.23,1.56,4.83,2.3-1-1.59-2-3.24-2.92-4.92s-1.69-3.4-2.48-5.1a89.58,89.58,0,0,1-3.72-9.73c-.24-.75-.48-1.46-.68-2.15s-.36-1.34-.53-2c-.32-1.24-.6-2.34-.81-3.25C53.78,245.4,53.56,244.33,53.56,244.33Z"></path><path d="M96.48,210.28a174.51,174.51,0,0,1-15.26,16.64c-2.14,2.1-4.1,3.77-5.38,4.93s-2.08,1.78-2.08,1.78l.42-1.28.49-1.48c.2-.57.46-1.21.73-1.92.56-1.39,1.21-3,1.92-4.82s1.67-3.64,2.57-5.55,2-3.79,3-5.61,2.19-3.51,3.24-5.06a41,41,0,0,1,3.15-4c.49-.55,1-1,1.39-1.46a11.67,11.67,0,0,1,1.28-1c1.58-1,3.36-2.13,5.29-3.12s3.85-1.92,5.61-2.68,3.34-1.33,4.46-1.74,1.8-.63,1.8-.63l-.19.58c-.11.38-.27.93-.48,1.63-.41,1.38-1.06,3.28-1.7,5.53-.33,1.12-.75,2.27-1.09,3.52s-.75,2.5-1.17,3.76-.78,2.58-1.21,3.83-.85,2.5-1.29,3.69c-1.81,4.69-6,8-10,10.39-1,.6-1.94,1.14-2.8,1.61s-1.67.86-2.35,1.19c-1.37.65-2.25,1-2.25,1-1.65.48-3.31,1-5,1.52,4.45-5.43,8.45-10.85,11.64-14.76l1.1-1.41,1-1.26,1.63-2.05C96,210.92,96.48,210.28,96.48,210.28Z"></path><path d="M63,196.12c-.12,1.39-.13,2.78-.12,4.14s0,2.67.1,4a70.73,70.73,0,0,0,.83,7.29c.17,1.13.4,2.23.65,3.29s.5,2.08.76,3.05.54,1.89.81,2.77.61,1.72.91,2.51a61.23,61.23,0,0,0,3.25,7.2c.93,1.63,1.52,2.48,1.52,2.48l-.06-1.39c-.07-.89-.07-2.17-.08-3.73s0-3.44-.07-5.47.07-4.27.11-6.55l.25-7c.13-2.32.26-4.61.33-6.77a66.4,66.4,0,0,0,.06-10.17c-.66-4.39-1.5-10.28-2-15.2l-.6-6.22c-.08-.8-.12-1.43-.15-1.86l0-.68s-.69.93-1.73,2.6-2.58,4-4.08,6.88a92.75,92.75,0,0,0-8.4,20.42,24.25,24.25,0,0,0-.78,5.28,29.29,29.29,0,0,0,.34,5.09q.18,1.23.45,2.4t.66,2.28a39.17,39.17,0,0,0,1.62,4.09A34.41,34.41,0,0,0,61,222.7c1,1.37,1.69,2.13,1.69,2.13,1.33,1.26,2.68,2.5,4,3.71A89.56,89.56,0,0,1,63,206.77c-.11-1.58-.1-3-.11-4.31s0-2.43,0-3.38,0-1.69.08-2.19S63,196.12,63,196.12Z"></path><path d="M112.86,176.8A161,161,0,0,1,94,188c-1.3.67-2.55,1.24-3.61,1.76s-2,1-2.79,1.31c-1.56.7-2.48,1.05-2.48,1.05l2.76-4c.88-1.18,2-2.54,3.11-4,.57-.74,1.2-1.49,1.86-2.23l2-2.29c.68-.78,1.41-1.52,2.14-2.26l2.2-2.17c1.46-1.42,3-2.69,4.4-3.85a42.36,42.36,0,0,1,4-2.83,19.62,19.62,0,0,1,1.72-1,9.66,9.66,0,0,1,1.48-.56,67,67,0,0,1,12-2.16c1.9-.17,3.55-.26,4.72-.31.58,0,1.06,0,1.39,0h.51s-.47.68-1.21,1.9-1.87,2.83-3.06,4.79c-.6,1-1.29,2-1.95,3s-1.36,2.18-2.09,3.26-1.4,2.23-2.14,3.3-1.46,2.13-2.19,3.13a15.25,15.25,0,0,1-5.55,4.48,30.4,30.4,0,0,1-6.66,2.34,46.47,46.47,0,0,1-5.65,1.07c-1.49.19-2.43.24-2.43.24-1.72-.06-3.39-.06-5.11-.06,5.6-3.85,10.85-7.77,14.91-10.52l1.41-1,1.31-.88,2.09-1.45,1.33-.94Z"></path><path d="M84.4,152.74c-.47,1.31-.84,2.64-1.19,3.94s-.64,2.57-.91,3.82c-.52,2.52-.83,5-1.08,7.26a65.78,65.78,0,0,0,0,12.13c.17,1.7.38,3.22.59,4.54s.51,2.48.73,3.4c.45,1.84.79,2.83.79,2.83l1.15-5c.4-1.51.86-3.3,1.37-5.25s1.16-4,1.77-6.25,1.37-4.39,2-6.62,1.43-4.34,2-6.39a64.12,64.12,0,0,0,2.66-9.74c.5-4.41,1.19-10.33,1.94-15.2.39-2.45.74-4.61,1-6.15s.46-2.48.46-2.48l-.63.5c-.4.32-1,.8-1.7,1.44s-1.57,1.41-2.53,2.29l-1.52,1.4c-.52.51-1,1.06-1.61,1.62a86.81,86.81,0,0,0-13.26,16.95,22.8,22.8,0,0,0-2.1,4.82,30.59,30.59,0,0,0-1,5,28.28,28.28,0,0,0-.12,4.85,36.86,36.86,0,0,0,2.32,11.15c.6,1.63,1.06,2.57,1.06,2.57.94,1.62,1.94,3.24,3,4.83a88,88,0,0,1,2-22.07c.3-1.55.66-2.93,1-4.17s.63-2.33.89-3.23.47-1.61.64-2.08Z"></path><path d="M137.17,149.71a147.55,147.55,0,0,1-21,4.89c-1.43.23-2.75.42-3.93.56s-2.16.3-3,.39c-1.68.19-2.65.24-2.65.24s1.43-1.2,3.67-3l4-2.89c1.49-1,3.18-2.07,4.87-3.13s3.54-2,5.28-2.93,3.57-1.65,5.21-2.33a46,46,0,0,1,4.6-1.48,12.39,12.39,0,0,1,3.46-.47,51.4,51.4,0,0,1,6,.5c2.11.29,4.18.62,6.06,1.06s3.46.8,4.62,1.13l1.84.55-1.66,1.45-1.83,1.64c-.7.62-1.5,1.28-2.32,2.05-3.37,2.92-7.46,6.78-11.29,9.71a11.82,11.82,0,0,1-3.09,1.7,15,15,0,0,1-3.39.91,30.93,30.93,0,0,1-7,.2,55.62,55.62,0,0,1-5.71-.73c-1.47-.28-2.38-.52-2.38-.52-1.64-.6-3.26-1.14-4.9-1.66,6.35-2,12.43-4.06,17-5.49Z"></path><path d="M115.89,117.84a63.53,63.53,0,0,0-9.87,25c-.27,1.69-.45,3.21-.58,4.54s-.16,2.53-.18,3.48c0,1.91,0,3,0,3l2.39-4.41,2.63-4.62,3.29-5.45,3.62-5.72c1.25-1.86,2.46-3.74,3.58-5.49s2.19-3.35,3-4.82a26.84,26.84,0,0,0,2-3.71l1.27-3.3c.47-1.16.95-2.36,1.43-3.56s1-2.46,1.47-3.67,1-2.35,1.48-3.47c1-2.2,1.81-4.23,2.48-5.6L135,97.81s-1,.4-2.72,1.14-4.06,1.9-6.74,3.37a82.06,82.06,0,0,0-16.94,12.17,24.13,24.13,0,0,0-3.23,4,28.28,28.28,0,0,0-2.19,4.5c-.3.76-.56,1.52-.79,2.28s-.4,1.55-.56,2.32a41,41,0,0,0-.64,4.4,38.09,38.09,0,0,0,0,7c.16,1.75.37,2.8.37,2.8.5,1.86,1,3.69,1.6,5.54a86.92,86.92,0,0,1,7.49-20.54c1.41-2.73,2.73-4.94,3.67-6.52S115.89,117.84,115.89,117.84Z"></path><path d="M136.48,124.51c-23.17,15.83-42.22,39.56-53.64,66.82a171.45,171.45,0,0,0-11.42,88.42A161.52,161.52,0,0,0,76,301.82c.08.3.16.62.24.93.16.6.32,1.2.51,1.79l.83,2.65c.18.55.35,1.1.52,1.64.38,1.22.77,2.49,1.24,3.72l1.89,5.19,2.12,5.16a168,168,0,0,0,10,19.75,155.62,155.62,0,0,0,27,33.82,160.09,160.09,0,0,0,16.48,13.42,150.06,150.06,0,0,0,18,10.74,152.8,152.8,0,0,0,19.19,7.87l.64-2.34A138.83,138.83,0,0,1,138,387.84a159,159,0,0,1-16.23-13.22A168,168,0,0,1,107.41,359a170.27,170.27,0,0,1-12.24-17.7,164.94,164.94,0,0,1-9.86-19.43l-2.1-5.09-1.87-5.16c-.45-1.18-.83-2.4-1.2-3.58-.17-.55-.34-1.11-.52-1.66l-.83-2.64c-.17-.55-.32-1.11-.47-1.67-.08-.33-.17-.65-.26-1a159.29,159.29,0,0,1-4.46-21.71,168.72,168.72,0,0,1,11.24-87c11.24-26.83,30-50.19,52.8-65.77Z"></path><path d="M168.69,108.11a140.06,140.06,0,0,0-33.06,17.5,49.53,49.53,0,0,1,2.41-5.88,50.08,50.08,0,0,1,4.2-7.27c3.33-4.92,7.9-9.23,12.45-10.51,1.61-.4,3.57-.84,5.77-1.28l3.49-.53c1.21-.18,2.45-.38,3.75-.48l3.94-.35c1.32-.13,2.69-.14,4-.2,2.69-.14,5.4-.06,8,0,1.28,0,2.55.13,3.77.2s2.39.14,3.51.25c2.25.26,4.26.47,5.95.71l5.47.92s-2.06,1-5.31,2.45l-5.61,2.77-3.23,1.71-1.7.88-1.72,1-3.52,2L177.71,114c-1.19.65-2.35,1.39-3.52,2.08s-2.32,1.33-3.44,2-2.23,1.34-3.31,2-2.11,1.26-3.13,1.8a58.83,58.83,0,0,1-5.62,2.77c-1,.38-2.09.75-3.14,1.07a29.18,29.18,0,0,1-3.2.76,43.73,43.73,0,0,1-6.25.85,42.67,42.67,0,0,1-5.54.17,26.43,26.43,0,0,1-4-.3A140.85,140.85,0,0,1,168.69,108.11Z"></path></g><g style="opacity:0.2"><path d="M348,375.34c-1.61,1.51-3.1,3.17-4.56,4.74s-2.85,3.13-4.15,4.71c-2.65,3-5,6-7,8.54q-1.49,1.92-2.66,3.56c-.78,1.07-1.46,2-2,2.74-1.1,1.54-1.68,2.47-1.68,2.47l1.22-.51c.78-.35,1.9-.77,3.24-1.44l4.58-2.32c1.69-.87,3.46-2,5.26-3.07l1.36-.83L343,393l2.63-1.86a58.26,58.26,0,0,0,4.79-3.84c.72-.64,1.41-1.26,2.05-1.87s1.19-1.26,1.71-1.84a19.06,19.06,0,0,0,2.31-3.13,91.23,91.23,0,0,0,5.35-12.83c.34-1,.66-2,.94-2.86s.48-1.69.66-2.35c.35-1.32.57-2.12.57-2.12s-.79.3-2.08.84-3.17,1.19-5.25,2.08c-4.25,1.59-9.52,3.71-14,5.73a12.32,12.32,0,0,0-1.6,1,13.28,13.28,0,0,0-1.49,1.13,18,18,0,0,0-2.6,2.88,37.16,37.16,0,0,0-4.07,6.78c-1.11,2.3-2,4.42-2.61,6s-.91,2.64-.91,2.64c-.44,1.94-.91,3.89-1.41,5.78,5.14-5.21,10.26-9.95,13.94-13.73.92-.93,1.79-1.72,2.52-2.49l1.92-2C347.38,375.92,348,375.34,348,375.34Z"></path><path d="M361.46,414.25a59.4,59.4,0,0,1-7.74.11,69.7,69.7,0,0,1-7-.88,53,53,0,0,1-11.14-3.56c-1.51-.69-2.85-1.36-4-2s-2.12-1.28-2.9-1.79c-1.56-1-2.38-1.72-2.38-1.72l1.33.05c.85,0,2.08.11,3.57.1h5.22c1.95,0,4.05-.14,6.24-.19l1.66,0,1.67-.12,3.34-.21c2.25-.08,4.4-.33,6.46-.45l3-.16c.93-.08,1.82-.13,2.65-.16a21.12,21.12,0,0,1,4.12.18c4.18.64,9.85,1.64,14.53,2.14l3.3.39,2.65.23,2.42.19s-.9.79-2.45,2.08-3.85,2.94-6.52,4.86c-5.42,3.65-12.67,7.87-19.45,10a19.48,19.48,0,0,1-2.51.68,22.19,22.19,0,0,1-2.53.27,23.71,23.71,0,0,1-4.87-.3,28.85,28.85,0,0,1-8.41-3.11,34.35,34.35,0,0,1-5.65-4c-1.32-1.15-2.05-1.94-2.05-1.94-1.22-1.54-2.4-3.08-3.57-4.69a69.13,69.13,0,0,0,20.83,4.13c1.5.07,2.9.16,4.13.13s2.32-.06,3.22-.1C360.41,414.33,361.46,414.25,361.46,414.25Z"></path><path d="M378.25,358.33c-1.11,1.82-2.11,3.7-3.06,5.56s-1.87,3.61-2.68,5.4-1.64,3.42-2.34,5.07l-2,4.62c-1.19,2.82-2.08,5.32-2.7,7s-.94,2.68-.94,2.68.36-.28,1-.8l1.13-.93,1.43-1.31c1.05-1,2.28-2.1,3.59-3.36s2.64-2.77,4-4.26,2.68-3.16,4-4.74l.93-1.19.88-1.23c.57-.81,1.11-1.61,1.63-2.38s1-1.51,1.42-2.26.8-1.46,1.14-2.13a19.14,19.14,0,0,0,1.39-3.47,91.46,91.46,0,0,0,2-13.06c.17-2.06.31-3.82.33-5.15s.05-2.08.05-2.08-.64.49-1.69,1.34-2.63,2-4.33,3.32c-3.53,2.61-7.86,6-11.52,9.12a16.77,16.77,0,0,0-4.05,6.1c-.47,1.21-.9,2.39-1.25,3.62s-.64,2.45-.88,3.65c-.46,2.43-.78,4.58-.95,6.19s-.21,2.63-.21,2.63q.07,2.79.09,5.61c1.67-3.13,3.46-6,5-8.83.8-1.36,1.58-2.68,2.32-3.95s1.4-2.47,2-3.56c1.29-2.13,2.28-4,3-5.26S378.25,358.33,378.25,358.33Z"></path><path d="M403.44,331A175.36,175.36,0,0,0,399,353.9c-.43,3.1-.72,5.69-.86,7.54-.07.93-.12,1.65-.15,2.14s-.05.74-.05.74.28-.36.73-1.07l1.88-3,1.26-2c.44-.72.87-1.53,1.33-2.34s.92-1.68,1.41-2.56c.23-.44.47-.89.72-1.34l.68-1.41c.89-1.9,1.84-3.8,2.62-5.75s1.5-3.87,2.12-5.66c1.09-3.68,1.87-6.76,1.77-8.78s-.17-4.24-.41-6.52-.6-4.6-.92-6.61-.75-3.81-1-5.05-.46-2-.46-2-.51.66-1.32,1.79c-.41.56-.89,1.24-1.44,2s-1.2,1.59-1.86,2.49c-1.28,1.85-2.88,3.83-4.34,6-.74,1.06-1.54,2.08-2.26,3.16l-2.11,3.16a13.08,13.08,0,0,0-1.53,3.38,22.36,22.36,0,0,0-.84,3.7,31.24,31.24,0,0,0-.26,3.89c0,1.27,0,2.53.05,3.75.13,2.42.43,4.66.67,6.26s.43,2.57.43,2.57c.51,1.77,1,3.55,1.48,5.34,1.82-6.85,3.58-13.62,5-18.52.62-2.52,1.16-4.57,1.56-6,.21-.7.33-1.29.43-1.67S403.44,331,403.44,331Z"></path><path d="M398.45,390.36q-1.79.67-3.51,1.23a30.92,30.92,0,0,1-3.41.94,59.24,59.24,0,0,1-6.44,1.11,48.79,48.79,0,0,1-10.8-.15,40.15,40.15,0,0,1-7.06-1.46,26.31,26.31,0,0,1-2.53-.88l1.2-.33c.76-.22,1.9-.47,3.23-.92l4.69-1.44c1.75-.55,3.61-1.25,5.57-1.9s3.93-1.45,5.91-2.15,3.9-1.48,5.71-2.16c3.65-1.3,6.72-2.52,8.71-2.73s4.25-.54,6.62-.83l3.55-.46,3.38-.55c2.16-.36,4.1-.69,5.5-.94l2.21-.46-.46.67c-.3.43-.72,1.08-1.3,1.83-1.16,1.51-2.79,3.67-4.8,6.05-1,1.16-2.14,2.39-3.31,3.65-.59.63-1.18,1.29-1.81,1.9l-1.93,1.85c-1.31,1.21-2.63,2.46-4,3.58s-2.78,2.16-4.15,3.13a16,16,0,0,1-4.3,2.19,21.7,21.7,0,0,1-4.41,1.05,26.19,26.19,0,0,1-8.24-.51,30.1,30.1,0,0,1-6-2,22.45,22.45,0,0,1-2.29-1.18c-1.44-1.06-2.85-2.09-4.27-3.21a66.27,66.27,0,0,0,19.62-2c1.36-.34,2.62-.66,3.74-1s2.06-.68,2.85-1C397.53,390.72,398.45,390.36,398.45,390.36Z"></path><path d="M431.78,354.28a50.25,50.25,0,0,1-6.07,4.27c-1,.61-2,1.2-3,1.7s-2,1-2.94,1.38A48.87,48.87,0,0,1,409.45,365a44.78,44.78,0,0,1-7.16.81c-.85,0-1.5,0-2,0l-.68,0,1-.71,2.85-1.92c.6-.41,1.25-.85,1.95-1.31l2.16-1.57c1.51-1.1,3.22-2.25,4.86-3.56l2.56-1.95c.87-.64,1.73-1.3,2.56-2,1.66-1.35,3.36-2.64,4.92-3.86a51.74,51.74,0,0,1,7.62-5.41c1.79-.88,4-1.83,6.14-2.89l6.39-3.18c2-1,3.7-2,5-2.71l2-1.13-1.07,2.95c-.35.92-.77,2-1.24,3.29s-1.12,2.59-1.78,4.05l-1,2.26c-.35.77-.73,1.55-1.15,2.33-.83,1.56-1.7,3.17-2.62,4.78-.44.82-.92,1.61-1.43,2.38s-1,1.55-1.51,2.31a52.63,52.63,0,0,1-3.15,4.34,20.33,20.33,0,0,1-7.54,5.86,26.81,26.81,0,0,1-4.09,1.46,26.22,26.22,0,0,1-3.93.66,30.78,30.78,0,0,1-6.22,0,21.79,21.79,0,0,1-2.51-.43c-1.67-.56-3.32-1.15-4.95-1.75a69.34,69.34,0,0,0,18.32-8.1c2.4-1.54,4.41-2.94,5.82-4S431.78,354.28,431.78,354.28Z"></path><path d="M420.21,298.16c0,1.1,0,2.21,0,3.28s0,2.14.06,3.19.09,2.11.16,3.14.09,2,.16,3c.11,2,.35,3.91.48,5.68s.34,3.48.54,5.05l.54,4.25c.17,1.26.33,2.36.48,3.27.3,1.81.53,2.84.53,2.84l1.53-4.66c.48-1.4.92-3.12,1.41-5,.24-.92.49-1.88.74-2.87s.44-2,.65-3.07a88.81,88.81,0,0,0,1.72-12.4c.09-1.93.11-3.69.06-5.21a16.43,16.43,0,0,0-.54-3.76c-.27-.94-.57-1.94-.91-3l-.52-1.56c-.19-.53-.4-1.06-.6-1.59-.83-2.13-1.71-4.22-2.52-6.05-1.77-3.69-3.21-6.3-3.21-6.3s-.32.78-.83,2.11l-.86,2.37c-.34.9-.76,1.88-1.17,2.95-1.56,4.31-3.81,9.6-5.26,14.4a13.49,13.49,0,0,0-.66,3.69c0,.63,0,1.27,0,1.9s.06,1.27.13,1.9a43.69,43.69,0,0,0,1.69,7.4,59.7,59.7,0,0,0,2.18,5.81l.78,1.73.29.63q1.38,2.3,2.72,4.68c.07-6.81.13-13.9.18-19.3,0-2.6,0-4.71,0-6.2S420.21,298.16,420.21,298.16Z"></path><path d="M453.26,312c-.77,1.1-1.54,2.15-2.32,3.15s-1.64,1.93-2.46,2.82-1.63,1.74-2.44,2.54-1.66,1.53-2.48,2.23a57.58,57.58,0,0,1-4.76,3.66c-1.56,1-3,1.91-4.4,2.65a34.15,34.15,0,0,1-3.75,1.82c-1.14.48-2.13.84-2.94,1.12-1.62.56-2.54.77-2.54.77L428.3,329l.75-.88.78-1,1.71-2.15,1.89-2.35,1.91-2.55c5.26-6.88,10.74-15.22,13.71-18.07s7.16-6.48,10.52-9.69,5.79-5.85,5.79-5.85-.11,1.18-.29,3.16-.48,4.8-1.07,8a96.56,96.56,0,0,1-5.89,21.08,24.26,24.26,0,0,1-2.58,4.43,23.72,23.72,0,0,1-1.54,1.88,21.86,21.86,0,0,1-1.71,1.63,27.47,27.47,0,0,1-3.59,2.64q-.9.56-1.8,1c-.61.31-1.21.58-1.8.82a32,32,0,0,1-6,1.84c-.77.15-1.39.24-1.82.3s-.67.06-.67.06c-1.76,0-3.49-.11-5.22-.21a66.44,66.44,0,0,0,8.65-6.4c1.31-1.16,2.55-2.36,3.73-3.52s2.3-2.3,3.25-3.42c1.93-2.22,3.58-4.15,4.63-5.58S453.26,312,453.26,312Z"></path><path d="M428.07,261.58c.26,1.06.58,2.11.86,3.14s.55,2,.85,3,.62,2,1,3,.62,1.92.92,2.84c.61,1.85,1.28,3.63,1.9,5.3s1.19,3.23,1.77,4.68c1.2,2.89,2.13,5.25,2.88,6.9s1.21,2.57,1.21,2.57l.32-4.94c.1-1.49.07-3.29.1-5.21,0-1,0-1.95,0-3s-.1-2.08-.16-3.15c-.11-2.13-.24-4.29-.54-6.41-.14-1.06-.28-2.09-.42-3.1-.08-.5-.15-1-.23-1.49s-.19-1-.29-1.43c-.4-1.88-.82-3.59-1.26-5a15.73,15.73,0,0,0-1.46-3.44c-.49-.82-1-1.69-1.63-2.58s-1.18-1.8-1.86-2.69c-1.34-1.8-2.72-3.54-4-5s-2.47-2.78-3.3-3.68l-1.35-1.42s-.11.86-.26,2.29c-.07.72-.15,1.58-.24,2.55s-.26,2.06-.38,3.21c-.42,4.65-1.25,10.42-1.42,15.48a13.81,13.81,0,0,0,.29,3.74,16.94,16.94,0,0,0,.5,1.82c.18.6.37,1.2.6,1.78a27.44,27.44,0,0,0,1.61,3.43c.62,1.11,1.27,2.17,1.88,3.15a54.3,54.3,0,0,0,5.19,6.83q1.89,1.8,3.77,3.66c-.21-.85-.42-1.7-.64-2.56s-.45-1.7-.67-2.54c-.44-1.69-.84-3.33-1.2-4.9s-.82-3.11-1.17-4.54-.65-2.78-1-4c-.69-2.49-1.15-4.53-1.54-6S428.07,261.58,428.07,261.58Z"></path><path d="M463.29,264.62c-.46,1.29-.94,2.54-1.43,3.75s-1.09,2.35-1.65,3.46a53.78,53.78,0,0,1-3.52,6.1c-1.23,1.84-2.46,3.51-3.65,5s-2.45,2.77-3.57,3.9-2.15,2.11-3.14,2.91-1.83,1.46-2.54,2c-1.43,1-2.26,1.52-2.26,1.52l2.1-4.5c.62-1.38,1.3-3,2.09-4.85.39-.91.83-1.85,1.22-2.84l1.19-3c3.32-8.24,6.49-17.93,8.61-21.58l1.83-2.9c.32-.51.66-1,1-1.56s.65-1.07,1-1.61l3.88-6.46c2.31-4.08,4.09-7.37,4.09-7.37s.19,1.16.52,3.12c.14,1,.32,2.17.52,3.51s.3,2.85.45,4.48a99,99,0,0,1-.32,22,26,26,0,0,1-1.37,5,22.5,22.5,0,0,1-2.22,4.38,30.17,30.17,0,0,1-5.78,6.53,31.51,31.51,0,0,1-7.64,4.74c-1.66.5-3.38,1-5.06,1.4.62-.68,1.24-1.38,1.83-2.1s1.13-1.45,1.69-2.19c1.1-1.49,2.19-3,3.18-4.53s1.85-3.05,2.7-4.54l1.21-2.18c.37-.72.71-1.42,1-2.1.66-1.37,1.25-2.64,1.77-3.79s1-2.16,1.27-3C462.94,265.63,463.29,264.62,463.29,264.62Z"></path><path d="M426.44,224c1,1.89,2.17,3.68,3.2,5.43s2.22,3.41,3.24,5,2.13,3.11,3.15,4.52,2,2.75,2.87,4l2.51,3.27c.75,1,1.42,1.8,2,2.48,1.13,1.36,1.82,2.1,1.82,2.1s-.37-1.9-.95-4.85c-.26-1.46-.73-3.18-1.2-5l-.75-2.87c-.31-1-.62-2-.94-3l-1-3c-.37-1-.76-2-1.14-3s-.77-1.93-1.16-2.86-.84-1.8-1.26-2.65a27.71,27.71,0,0,0-4.7-7.3,72.38,72.38,0,0,0-9.78-7.6c-.79-.53-1.54-1-2.22-1.44l-1.85-1.07-1.66-.94s.5,3.35,1.2,8,1.47,10.35,2.48,15.29a15.41,15.41,0,0,0,1.21,3.5,23.65,23.65,0,0,0,2,3.14,26.76,26.76,0,0,0,2.4,2.81c.87.87,1.76,1.69,2.6,2.45a48.92,48.92,0,0,0,4.63,3.63c1.26.88,2,1.36,2,1.36,1.52.76,3,1.55,4.55,2.36l-9.16-16.43-1.67-3c-.47-.89-1-1.65-1.31-2.28C426.83,224.68,426.44,224,426.44,224Z"></path><path d="M461.06,216.13a66.1,66.1,0,0,1-3,14.8c-.73,2.15-1.5,4.12-2.27,5.91s-1.66,3.41-2.45,4.84a49.16,49.16,0,0,1-4.24,6.43c-1.11,1.42-1.79,2.15-1.79,2.15s.35-1.94.88-5c.3-1.52.5-3.32.81-5.3.14-1,.32-2,.45-3.1s.26-2.17.4-3.28.29-2.27.42-3.41.23-2.3.34-3.43.25-2.28.37-3.39.2-2.2.3-3.24.22-2.07.34-3,.19-1.87.31-2.71a26.64,26.64,0,0,1,.81-4.16c.64-2.11,1.37-4.54,2.11-7,.39-1.26.75-2.52,1.08-3.76s.68-2.48,1-3.64c.66-2.34,1.14-4.42,1.5-5.92s.57-2.43.57-2.43l1.31,2.83c.85,1.78,1.82,4.37,3,7.4A96.69,96.69,0,0,1,468.41,219a21.5,21.5,0,0,1,0,5.26,25.55,25.55,0,0,1-1,4.89,32.65,32.65,0,0,1-3.93,8,36.93,36.93,0,0,1-4.22,5.1,22.34,22.34,0,0,1-1.93,1.78q-2.25,1.49-4.52,2.9c.43-.85.84-1.71,1.23-2.57s.74-1.75,1.09-2.63c.68-1.76,1.34-3.55,1.91-5.31a96.36,96.36,0,0,0,2.56-10c.29-1.51.55-2.92.77-4.18s.32-2.36.43-3.27C461,217.2,461.06,216.13,461.06,216.13Z"></path><path d="M415.42,188.38a153.21,153.21,0,0,0,16.76,14.29c2.31,1.78,4.33,3.19,5.77,4.14s2.23,1.47,2.23,1.47l-.54-1.2c-.34-.77-.92-1.85-1.58-3.16s-1.44-2.85-2.41-4.47-1.92-3.38-3.1-5.09-2.28-3.49-3.56-5.1-2.44-3.2-3.71-4.54a41.37,41.37,0,0,0-3.48-3.51,16.16,16.16,0,0,0-2.89-2.05,53.42,53.42,0,0,0-5.52-2.39c-1.94-.77-4-1.4-5.79-1.92l-2.5-.7c-.77-.2-1.47-.35-2-.48l-1.84-.39s1.33,3.07,3.18,7.3,4,9.54,6.25,13.94a15.35,15.35,0,0,0,4.71,5.4,23.39,23.39,0,0,0,3,1.94c1,.58,2.06,1.11,3.08,1.56a52.63,52.63,0,0,0,5.37,2.05c1.4.47,2.29.68,2.29.68,1.66.26,3.33.55,5,.86L421.2,194.07Z"></path><path d="M446.69,170.19c.22,1.36.42,2.71.57,4s.23,2.63.3,3.89.09,2.51.09,3.71-.07,2.39-.13,3.53a65.29,65.29,0,0,1-1.79,11.77,63.69,63.69,0,0,1-2.45,7.48c-.34.85-.65,1.5-.86,1.95l-.34.67s0-.5-.08-1.37-.2-2.14-.34-3.67c-.07-.77-.14-1.61-.22-2.51s-.21-1.84-.32-2.84c-.24-2-.45-4.17-.8-6.39s-.6-4.55-1-6.8c-.17-1.14-.34-2.27-.51-3.36s-.37-2.17-.53-3.22c-.62-4.18-1.2-7.75-1.1-10,.16-4.36.41-10.25.41-15.1,0-1.21,0-2.38,0-3.41s0-2-.05-2.74c0-1.56-.06-2.5-.06-2.5l2,2.31,1,1.22c.35.45.72.94,1.11,1.46.79,1,1.66,2.22,2.58,3.5a94.07,94.07,0,0,1,10.34,18.85c2.53,6.7,1.58,13.85-.23,19a38.46,38.46,0,0,1-2.73,6.19c-.85,1.49-1.45,2.32-1.45,2.32q-1.77,2.11-3.57,4.16a86.71,86.71,0,0,0,1.33-21.79c-.21-3.08-.43-5.72-.72-7.53S446.69,170.19,446.69,170.19Z"></path><path d="M395.87,157.49a138.76,138.76,0,0,0,19.69,8.66c2.67,1,5,1.73,6.59,2.21s2.51.73,2.51.73l-.82-1c-.52-.64-1.34-1.5-2.31-2.55a96.57,96.57,0,0,0-7.69-7.51,74.16,74.16,0,0,0-9.4-7.06,38.58,38.58,0,0,0-4.22-2.32,15.27,15.27,0,0,0-3.29-1.11,52.71,52.71,0,0,0-5.91-.64c-2.06-.16-4.19-.15-6-.12l-2.59.07c-.79,0-1.5.11-2.09.16l-1.87.17,4.88,6.09c2.78,3.54,6.22,8,9.51,11.58a14.39,14.39,0,0,0,5.89,3.78,23.22,23.22,0,0,0,3.41.94q1.71.38,3.36.57c2.18.26,4.24.3,5.68.33s2.38,0,2.38,0c1.66-.26,3.33-.5,5-.71-5.83-3.12-11.52-6.21-15.7-8.5Z"></path><path d="M421.42,130.52a65.45,65.45,0,0,1,5.77,26.13,66.21,66.21,0,0,1-.47,7.93c-.26,1.86-.5,2.89-.5,2.89s-.16-.46-.43-1.29-.72-2-1.24-3.42-1.12-3.15-1.86-5-1.48-3.87-2.36-5.9-1.72-4.19-2.65-6.23-1.77-4.12-2.63-6a62,62,0,0,1-3.52-9.23c-.92-4.24-2.12-10-3.31-14.64-.29-1.16-.56-2.29-.82-3.28s-.52-1.87-.72-2.61l-.67-2.39,2.46,1.63,1.26.87,1.43,1.07c1,.77,2.13,1.63,3.33,2.58a87.86,87.86,0,0,1,14.56,15,22.88,22.88,0,0,1,2.49,4.47c.33.77.61,1.56.86,2.34s.43,1.61.6,2.41a34.21,34.21,0,0,1,.61,4.7,35.47,35.47,0,0,1-.06,4.4,40.15,40.15,0,0,1-1.09,6.79c-.43,1.68-.8,2.66-.8,2.66-.78,1.72-1.58,3.41-2.39,5.09a87,87,0,0,0-4.16-21.33c-1-2.88-1.83-5.36-2.56-7S421.42,130.52,421.42,130.52Z"></path><path d="M323.63,405l-.33-2.37a133.22,133.22,0,0,0,38.13-12.14A147.39,147.39,0,0,0,379,380.12l4.19-3c.87-.65,1.75-1.34,2.62-2l1.44-1.13c1.09-.82,2.14-1.72,3.16-2.6l1.48-1.28c1.06-.91,2.16-1.85,3.17-2.84A144.1,144.1,0,0,0,409.36,352c1.88-2.23,3.66-4.64,5.37-7l1.07-1.45,3.73-5.5,2.08-3.39a160.17,160.17,0,0,0,17.29-39.42,169.09,169.09,0,0,0,1.48-86.68,159.37,159.37,0,0,0-15.92-40.11A153.39,153.39,0,0,0,399,134.92l1.45-1.79A156.08,156.08,0,0,1,426.3,167.2,162,162,0,0,1,442.47,208,171.68,171.68,0,0,1,441,296a162.74,162.74,0,0,1-17.56,40l-2.12,3.44-3.78,5.58-1.09,1.49c-1.74,2.35-3.54,4.79-5.46,7.06a145.12,145.12,0,0,1-14.52,15.47c-1,1-2.16,2-3.25,2.91l-1.47,1.27c-1.05.9-2.13,1.84-3.26,2.69L387,377.06c-.88.7-1.77,1.4-2.68,2.08l-4.23,3a138.63,138.63,0,0,1-36.77,18.12A152.19,152.19,0,0,1,323.63,405Z"></path><path d="M371.69,111.09a145.09,145.09,0,0,1,29.37,23.27c-.13-.77-.29-1.72-.53-2.75s-.55-2.18-.9-3.4-.76-2.54-1.26-3.86-1.06-2.66-1.68-4c-.32-.68-.64-1.35-1-2s-.73-1.28-1.11-1.91a39.25,39.25,0,0,0-2.46-3.6,25.59,25.59,0,0,0-2.83-2.94,12.9,12.9,0,0,0-3.07-2.08c-1.5-.69-3.3-1.55-5.39-2.34l-3.29-1.21-1.75-.61-1.82-.56L370.24,102c-1.29-.34-2.59-.65-3.89-1-2.57-.68-5.23-1.09-7.72-1.58s-4.94-.72-7.15-1-4.2-.39-5.88-.48l-5.45-.18s1.85,1.36,4.76,3.42l5,3.78,2.86,2.29c1,.79,2,1.57,3,2.45,4.11,3.34,8.36,7.19,12.33,10.61,1.95,1.8,3.9,3.36,5.67,4.89.89.74,1.76,1.43,2.61,2s1.64,1.23,2.41,1.73a44.27,44.27,0,0,0,11.81,5c1.94.51,3.73,1,5.34,1.22a35.3,35.3,0,0,0,4,.45,145.91,145.91,0,0,0-28.27-24.61Z"></path></g></g><g id="freepik--Character--inject-216"><path d="M226.79,441.64s7.62.72,11.61-1.54,13.24-5.05,13.24-5.05,27.67,7.22,31.52,6.49V394.63h-52Z" style="fill:#263238"></path><path d="M229.64,442.25c-1.62,0-2.78-.11-2.9-.12a.5.5,0,0,1-.45-.54l4.4-47a.49.49,0,0,1,.5-.45h52a.5.5,0,0,1,.5.5v46.91a.5.5,0,0,1-.41.49c-3.81.73-29.25-5.85-31.6-6.46-1.15.35-9.36,2.9-13,5C236.12,442,232.27,442.25,229.64,442.25Zm-2.3-1.08c1.73.11,7.58.33,10.82-1.5,4-2.27,13-5,13.33-5.1a.5.5,0,0,1,.27,0c9,2.35,26.25,6.54,30.65,6.54h.25v-46h-51Z" style="fill:#263238"></path><path d="M239.61,409.54s2.88,24.06,2.88,31.28-.72,8.9-2.88,14.2-6.5,9.62-7.7,15.88,1.92,8.66,5.53,8.66,9.87,1.2,14-7.22,5-12.51,6.25-15.16a24.63,24.63,0,0,0,1.69-12.27c-.73-4.09-2.17-9.38-2.17-9.38l3.61-34.17-21.9,4.57Z" style="fill:#fff"></path><path d="M240.2,480.12c-.55,0-1.07,0-1.56,0l-1.2,0a6.17,6.17,0,0,1-4.88-2.07c-1.36-1.65-1.74-4.07-1.14-7.19.75-3.9,2.68-7.06,4.55-10.12a40.22,40.22,0,0,0,3.17-5.85l.07-.18c2.08-5.08,2.78-6.79,2.78-13.83s-2.78-30.4-2.88-31.2l-.72-3.59a.49.49,0,0,1,.39-.58l21.9-4.58a.48.48,0,0,1,.43.12.54.54,0,0,1,.17.43l-3.6,34.07c.19.72,1.48,5.56,2.15,9.34a24.89,24.89,0,0,1-1.72,12.56c-.39.85-.75,1.85-1.21,3.12a112.2,112.2,0,0,1-5,12.05C248.54,479.37,243.83,480.12,240.2,480.12Zm-.73-73.8.63,3.13v0c0,.24,2.89,24.18,2.89,31.34s-.72,9-2.85,14.21l-.07.18a42.35,42.35,0,0,1-3.25,6c-1.82,3-3.71,6.06-4.42,9.78-.54,2.78-.21,5,.93,6.36a5.2,5.2,0,0,0,4.11,1.71l1.23,0c3.69.11,8.76.28,12.28-7a109.94,109.94,0,0,0,5-11.95c.47-1.29.83-2.31,1.24-3.19,1.09-2.41,2.37-7.88,1.64-12s-2.14-9.29-2.15-9.34a.55.55,0,0,1,0-.18L260.21,402Z" style="fill:#263238"></path><path d="M251.64,441.3a13.54,13.54,0,0,0,6.38-2.45c-.47-1.92-.85-3.32-.85-3.32l3.61-34.17-21.9,4.57.73,3.61s2.28,19,2.78,28.3A12.05,12.05,0,0,0,251.64,441.3Z" style="fill:#263238"></path><path d="M250.59,441.86a12.92,12.92,0,0,1-8.53-3.65.51.51,0,0,1-.17-.34c-.5-9.18-2.76-28.08-2.78-28.27l-.72-3.57a.49.49,0,0,1,.39-.58l21.9-4.58a.48.48,0,0,1,.43.12.54.54,0,0,1,.17.43l-3.6,34.07c.09.34.43,1.6.83,3.24a.5.5,0,0,1-.2.53,14,14,0,0,1-6.62,2.54h0A10.42,10.42,0,0,1,250.59,441.86Zm1-.56h0Zm-8.76-3.7a11.55,11.55,0,0,0,8.7,3.21,13,13,0,0,0,5.87-2.18c-.42-1.73-.76-3-.76-3a.55.55,0,0,1,0-.18L260.21,402l-20.74,4.33.63,3.13C240.12,409.67,242.36,428.33,242.88,437.6Z" style="fill:#263238"></path><path d="M255.49,457.18c-3.13,7-6,9.39-11.79,9.15a9.16,9.16,0,0,1-7.55-5c-1.78,2.91-3.54,5.9-4.24,9.55-1.21,6.25,1.92,8.66,5.53,8.66s9.87,1.2,14-7.22,5-12.51,6.25-15.16a25.53,25.53,0,0,0,1.84-8C258.4,451.16,257,453.87,255.49,457.18Z" style="fill:#BA68C8"></path><path d="M240.19,480.12c-.54,0-1.06,0-1.55,0l-1.2,0a6.17,6.17,0,0,1-4.88-2.07c-1.36-1.65-1.74-4.07-1.14-7.19.69-3.59,2.35-6.52,4.3-9.71a.54.54,0,0,1,.44-.24.51.51,0,0,1,.43.26,8.71,8.71,0,0,0,7.13,4.72c5.45.22,8.2-1.93,11.31-8.85l.46.2L255,457c1.25-2.79,2.6-5.48,4-8a.49.49,0,0,1,.58-.24.5.5,0,0,1,.35.52,26.34,26.34,0,0,1-1.88,8.13c-.39.85-.75,1.85-1.21,3.12a112.2,112.2,0,0,1-5,12.05C248.54,479.37,243.83,480.12,240.19,480.12Zm-4-17.8A26.2,26.2,0,0,0,232.4,471c-.54,2.78-.21,5,.93,6.36a5.2,5.2,0,0,0,4.11,1.71l1.23,0c3.69.11,8.76.28,12.28-7a109.94,109.94,0,0,0,5-11.95c.47-1.29.83-2.31,1.24-3.19a23.55,23.55,0,0,0,1.48-5.22c-1,1.81-1.87,3.7-2.74,5.63h0c-3.27,7.3-6.38,9.67-12.26,9.44A9.47,9.47,0,0,1,236.15,462.32Z" style="fill:#263238"></path><path d="M256.93,402.33s1.44,40.42,0,47.63-8.42,24.31-8.9,29.84,12,5.77,18.52-1.93,7-23.09,6.74-27.66-.48-13.24-.48-14,4.09-31.76,4.09-31.76Z" style="fill:#fff"></path><path d="M253.91,484.32a9.78,9.78,0,0,1-3.7-.65c-1.88-.79-2.83-2.17-2.68-3.91.26-3.06,2.37-9.27,4.6-15.85a142,142,0,0,0,4.31-14c1.41-7.08,0-47.12,0-47.53a.5.5,0,0,1,.55-.51L277,404a.53.53,0,0,1,.34.19.52.52,0,0,1,.11.38c-1.13,8.55-4.06,30.91-4.09,31.7s.24,9.29.48,13.92c.27,5.21-.42,20.39-6.85,28A17.87,17.87,0,0,1,253.91,484.32Zm3.54-81.44c.18,5.16,1.33,40.37,0,47.18a141,141,0,0,1-4.34,14.17c-2.11,6.23-4.3,12.68-4.55,15.61a2.85,2.85,0,0,0,2.06,2.9c3.39,1.41,10.89.37,15.58-5.19,6.22-7.37,6.89-22.22,6.62-27.32-.24-4.64-.48-13.31-.48-14s3.38-26.42,4-31.32Z" style="fill:#263238"></path><path d="M276.9,404.49l-20-2.16s.83,23.29.6,37.67c4.12,1.13,10.48,2.33,15.4.9-.07-2.42-.12-4.33-.12-4.65C272.81,435.53,276.9,404.49,276.9,404.49Z" style="fill:#263238"></path><path d="M267.76,442.06a40.36,40.36,0,0,1-10.36-1.58A.5.5,0,0,1,257,440c.23-14.2-.59-37.41-.6-37.65a.5.5,0,0,1,.55-.51L277,404a.53.53,0,0,1,.34.19.52.52,0,0,1,.11.38c-1.13,8.55-4.06,30.91-4.09,31.7,0,.31.05,2.25.12,4.62a.5.5,0,0,1-.36.5A19.23,19.23,0,0,1,267.76,442.06ZM258,439.62c4.15,1.1,9.84,2.09,14.38.9-.07-2.26-.11-4-.11-4.27,0-.7,3.38-26.42,4-31.32l-18.89-2.05C257.57,406.54,258.23,426.63,258,439.62Z" style="fill:#263238"></path><path d="M266.55,477.87c4.24-5,5.92-13.31,6.51-19.74-.81,2.41-2.43,7.27-3.14,9.4-1,2.89-4.33,4.09-9.86,4.57-4.68.41-8-2.79-8.88-3.79-1.6,4.81-3,9.17-3.15,11.49C247.55,485.33,260.06,485.57,266.55,477.87Z" style="fill:#BA68C8"></path><path d="M253.91,484.32a9.78,9.78,0,0,1-3.7-.65c-1.88-.79-2.83-2.17-2.68-3.91.21-2.47,1.65-7,3.17-11.61a.53.53,0,0,1,.37-.33.51.51,0,0,1,.48.16c.86.94,4,4,8.46,3.62,5.8-.5,8.62-1.77,9.44-4.23l3.13-9.4a.5.5,0,0,1,.58-.33.48.48,0,0,1,.39.53c-.57,6.23-2.18,14.77-6.61,20h0A17.87,17.87,0,0,1,253.91,484.32Zm-2.52-15.07c-1.34,4.07-2.67,8.37-2.86,10.59a2.85,2.85,0,0,0,2.06,2.9c3.39,1.41,10.89.37,15.58-5.19h0c3.15-3.73,4.83-9.25,5.71-14.33l-1.48,4.47c-1,2.9-4,4.36-10.3,4.91A11.49,11.49,0,0,1,251.39,469.25Z" style="fill:#263238"></path><path d="M334.34,341s.41,3-5.88,6.7-4.47,4.26-4.47,4.26v13.39s-3.24,2-9.74-2.84-6.08-9.94-7.1-12.38-3.45-5.48-3.85-6.49-.61-6.09-.61-6.09V318.46s5.88-17.66,7.91-24.36,6.29-29.83,6.29-29.83l5.68,1.83,2.24,54s4.66,8.32,6.49,11.36S334.34,341,334.34,341Z" style="fill:#263238"></path><path d="M322,366.25c-1.72,0-4.4-.64-8-3.36a16.39,16.39,0,0,1-6.72-10.65,13.82,13.82,0,0,0-.54-1.93,28.73,28.73,0,0,0-2.57-4.39,15.72,15.72,0,0,1-1.29-2.11c-.42-1.07-.62-5.73-.64-6.26V318.46a.78.78,0,0,1,0-.16c.06-.18,5.91-17.73,7.91-24.34s6.24-29.55,6.28-29.78a.54.54,0,0,1,.23-.34.5.5,0,0,1,.41,0l5.69,1.82a.49.49,0,0,1,.34.46l2.23,53.86c.55,1,4.74,8.43,6.43,11.25,1.85,3.08,3.06,9.43,3.1,9.7v0c0,.13.37,3.41-6.13,7.19-3.85,2.24-4.38,3.18-4.45,3.41a.5.5,0,0,1,.23.42v13.39a.49.49,0,0,1-.23.43A4.57,4.57,0,0,1,322,366.25Zm-18.79-47.71v19a36.11,36.11,0,0,0,.57,5.9,16.23,16.23,0,0,0,1.19,1.94,28.46,28.46,0,0,1,2.66,4.55,12.47,12.47,0,0,1,.59,2.1,15.31,15.31,0,0,0,6.35,10.07c5.13,3.85,8.11,3.22,8.94,2.92V352.19a.87.87,0,0,1-.24-.52c-.06-.63.38-1.77,5-4.42,5.66-3.29,5.65-6,5.64-6.2-.09-.43-1.27-6.51-3-9.35-1.81-3-6.45-11.29-6.5-11.37a.46.46,0,0,1-.06-.23l-2.22-53.63-4.81-1.55c-.67,3.58-4.36,23.27-6.2,29.33C309.14,300.65,303.61,317.26,303.19,318.54Z" style="fill:#263238"></path><path d="M323.18,323.94A4.06,4.06,0,0,0,325,328.6c2.84,2,9.33,12.38,9.33,12.38V303.44S323.79,318.46,323.18,323.94Z" style="fill:#BA68C8"></path><path d="M334.34,341.48a.48.48,0,0,1-.42-.23c-.06-.11-6.47-10.29-9.2-12.24a4.61,4.61,0,0,1-2-5.18c.67-5.58,10.81-20.06,11.24-20.68a.51.51,0,0,1,.56-.19.5.5,0,0,1,.35.48V341a.49.49,0,0,1-.36.48A.32.32,0,0,1,334.34,341.48Zm-10.69-17.37h0a3.59,3.59,0,0,0,1.65,4.09c2.26,1.61,6.63,8.13,8.54,11.07V305.05c-2.56,3.77-9.68,14.59-10.16,18.94A.53.53,0,0,1,323.65,324.11Zm-.47-.17h0Z" style="fill:#263238"></path><path d="M338.81,298a15,15,0,0,1-2.64,7.91c-2.64,3.66-13,18.07-13,18.07l-2.64-55.2S337,283.35,338.81,298Z" style="fill:#263238"></path><path d="M323.18,324.44l-.14,0a.53.53,0,0,1-.36-.46l-2.63-55.2a.49.49,0,0,1,.28-.47.5.5,0,0,1,.55.07c.67.61,16.6,14.91,18.42,29.54a.13.13,0,0,1,0,.06,15.36,15.36,0,0,1-2.73,8.21c-2.64,3.65-13,18.06-13,18.06A.52.52,0,0,1,323.18,324.44Zm-2.08-54.5,2.51,52.54c2.52-3.5,10-13.88,12.15-16.9a14.64,14.64,0,0,0,2.55-7.59C336.75,285.7,324.53,273.23,321.1,269.94Z" style="fill:#263238"></path><path d="M324,352.44a.5.5,0,0,1-.5-.5V332.46a.5.5,0,0,1,.5-.5.5.5,0,0,1,.5.5v19.48A.5.5,0,0,1,324,352.44Z" style="fill:#878787"></path><path d="M323.23,322.58a.5.5,0,0,1-.5-.5V277.52a.5.5,0,0,1,.5-.5.51.51,0,0,1,.5.5v44.56A.51.51,0,0,1,323.23,322.58Z" style="fill:#878787"></path><path d="M233.49,133s-21.72,7.3-32.67,22.32a50.61,50.61,0,0,0-9.75,30.85s-7.71,10.34-6.29,22.32,6.7,47.48,10.35,56.41,5.69,20.9,5.69,20.9-1.43,12,1.21,21.31a166.22,166.22,0,0,1,4.06,20.09s-2.23,16.44,1,21.11,2.23,7.51,3.85,9.74a31.26,31.26,0,0,0,4.26,4.46s5.69,41.2,7.51,52.36,4.06,26.79,4.06,26.79,7.71.81,9.94-6.7,1.83-20.9,1.83-20.9,9.34-2.44,13-3.45a19.41,19.41,0,0,0,4.87-1.83s-2,4.87-.2,7.91S258,425,269,432.71s23.13,17,25.16,15.42,5.48-6.49,7.71-18.06,3.66-46.68,3.66-57-1.22-26.38-1.22-26.38l.81-25.57s13.19-24.14,13.19-31.25-.81-20.49-.81-20.49,9.74,8.32,13.8,14.2A89.66,89.66,0,0,1,338.81,298s-3.25-34.9-3.45-44-5.68-79.95-9.54-87-9.54-16.44-9.74-17.05a9.86,9.86,0,0,0-6.29-8.32c-5.89-2.23-9.34-2.23-20.7,1.42s-30.64,13.39-30.64,13.39Z" style="fill:#BA68C8"></path><path d="M293.53,448.8c-2.71,0-9.07-4.44-19.21-11.7-1.87-1.33-3.76-2.68-5.61-4-8.72-6.14-10.63-10.86-11.9-14a17.2,17.2,0,0,0-1-2.21c-1.38-2.3-.75-5.47-.24-7.18a30.18,30.18,0,0,1-3.87,1.32c-3.19.89-10.81,2.88-12.61,3.35.05,2.32.18,13.8-1.86,20.66-2.32,7.82-10.39,7.06-10.47,7.05a.49.49,0,0,1-.44-.42c0-.16-2.26-15.75-4.06-26.78-1.75-10.66-7.07-49.14-7.49-52.18a30.9,30.9,0,0,1-4.19-4.43,8.24,8.24,0,0,1-1.24-3.38,15.67,15.67,0,0,0-2.62-6.37c-3.25-4.66-1.29-20.07-1.11-21.39a168.56,168.56,0,0,0-4-19.95c-2.53-8.94-1.35-20.4-1.24-21.43-.17-1-2.19-12.3-5.64-20.73-3.64-8.89-8.9-44-10.38-56.54-1.34-11.25,5.34-21.2,6.27-22.53a51.89,51.89,0,0,1,9.85-31c10.93-15,32.7-22.42,32.92-22.5a.54.54,0,0,1,.5.11l24.7,23.1c2.55-1.27,19.93-9.9,30.41-13.27,11.64-3.74,15.11-3.65,21-1.41a10,10,0,0,1,6.52,8.3l.06.33c.11.26,1.23,2.18,2.53,4.4,2.08,3.55,4.92,8.41,7.18,12.57,3.94,7.25,9.38,77.51,9.6,87.28.2,9,3.41,43.65,3.45,44a.51.51,0,0,1-.38.54.53.53,0,0,1-.59-.3,88.69,88.69,0,0,0-7.45-14.31c-3.26-4.73-10.33-11.13-12.82-13.33.2,3.44.74,13.53.74,19.33,0,7-12.12,29.43-13.19,31.39l-.81,25.45c0,.11,1.22,16.11,1.22,26.36,0,11-1.46,45.71-3.66,57.12-2.49,12.86-6.35,17.12-7.89,18.36A1.49,1.49,0,0,1,293.53,448.8Zm-37.11-40.54a.51.51,0,0,1,.32.12.49.49,0,0,1,.14.57c0,.05-1.91,4.68-.24,7.47a16.13,16.13,0,0,1,1.09,2.35c1.3,3.19,3.08,7.56,11.56,13.53,1.85,1.3,3.74,2.65,5.61,4,7.41,5.3,17.56,12.55,19,11.45,1.14-.91,5-4.89,7.53-17.77,2.2-11.35,3.65-46,3.65-56.93,0-10.21-1.21-26.18-1.22-26.34l.81-25.62a.51.51,0,0,1,.06-.22c.13-.25,13.13-24.12,13.13-31s-.8-20.33-.81-20.46a.5.5,0,0,1,.83-.41c.4.34,9.83,8.43,13.88,14.3A80.94,80.94,0,0,1,338,294.9c-.8-8.76-3-33.53-3.17-41-.23-10.4-5.77-80-9.48-86.82-2.25-4.15-5.09-9-7.16-12.54-1.9-3.24-2.52-4.31-2.61-4.59a2.69,2.69,0,0,1-.1-.48,9.11,9.11,0,0,0-5.9-7.53c-5.66-2.15-9-2.22-20.37,1.43-11.19,3.6-30.37,13.26-30.57,13.36a.49.49,0,0,1-.56-.08l-24.74-23.13c-2.57.92-22.08,8.25-32.15,22a50.52,50.52,0,0,0-9.65,30.52.47.47,0,0,1-.09.33c-.08.11-7.58,10.34-6.2,22,1.48,12.45,6.72,47.48,10.32,56.28s5.69,20.89,5.71,21a.33.33,0,0,1,0,.14c0,.12-1.38,12,1.2,21.12a169.48,169.48,0,0,1,4.08,20.16v.13c0,.16-2.17,16.3.93,20.75a16.51,16.51,0,0,1,2.78,6.73,7.22,7.22,0,0,0,1.07,3,29.62,29.62,0,0,0,4.18,4.38.53.53,0,0,1,.17.31c.06.42,5.7,41.32,7.51,52.35,1.64,10,3.63,23.87,4,26.39a8.74,8.74,0,0,0,9-6.36c2.19-7.35,1.81-20.61,1.81-20.75a.5.5,0,0,1,.37-.5c.1,0,9.38-2.44,13-3.44a19.37,19.37,0,0,0,4.73-1.77A.57.57,0,0,1,256.42,408.26Z" style="fill:#263238"></path><path d="M275.7,412.19s-13.48,6.5-16.36,6l-2,1.25s-1.53-1.28-1.53-4.86a25.67,25.67,0,0,1,.58-5.83l4.79-3.37S271.61,413.15,275.7,412.19Z" style="fill:#263238"></path><path d="M257.37,420a.49.49,0,0,1-.32-.12c-.07-.06-1.71-1.47-1.71-5.24a26.4,26.4,0,0,1,.59-5.95.5.5,0,0,1,.2-.29l4.79-3.37a.5.5,0,0,1,.58,0c2.85,2.12,10.91,7.45,14.08,6.71a.51.51,0,0,1,.59.32.51.51,0,0,1-.26.62c-1.36.66-13.14,6.29-16.45,6.08l-1.82,1.15A.53.53,0,0,1,257.37,420Zm-.51-10.89a26.89,26.89,0,0,0-.52,5.53,6.85,6.85,0,0,0,1.12,4.21l1.61-1a.53.53,0,0,1,.35-.07c1.95.33,9.71-3,14.19-5.09-4.37-.9-10.93-5.53-12.41-6.61Z" style="fill:#263238"></path><path d="M255.63,295.79a.5.5,0,0,1-.5-.46l-1.35-20a.5.5,0,0,1,1-.07l1.35,20a.5.5,0,0,1-.47.53Z" style="fill:#263238"></path><path d="M257.89,408.12a.54.54,0,0,1-.41-.21.51.51,0,0,1,.12-.7l4.83-3.45-7-103.84a.5.5,0,0,1,.47-.53.52.52,0,0,1,.53.47l7,104.12a.48.48,0,0,1-.2.44L258.18,408A.52.52,0,0,1,257.89,408.12Z" style="fill:#263238"></path><path d="M235.62,414.9a3.18,3.18,0,0,1-1.88-.43,1,1,0,0,1-.41-.84c0-1.44,8.31-141.09,8.66-147a.49.49,0,0,1,.53-.47.49.49,0,0,1,.47.52c-.08,1.46-8.65,145.41-8.66,147,.49.42,2.51.27,4.12-.08a.5.5,0,1,1,.22,1A16.5,16.5,0,0,1,235.62,414.9Z" style="fill:#263238"></path><path d="M272,297.53a.5.5,0,0,1-.5-.47l-.91-13.56a.5.5,0,0,1,.46-.53.49.49,0,0,1,.53.46l.92,13.56a.5.5,0,0,1-.46.54Z" style="fill:#263238"></path><path d="M276.88,412.4a17.22,17.22,0,0,1-5.19-.94,36.37,36.37,0,0,1-9.76-4.64.5.5,0,0,1-.11-.7.51.51,0,0,1,.7-.11,35.83,35.83,0,0,0,9.48,4.5c4.58,1.47,6.66.76,7.27.45l-7.46-110a.5.5,0,0,1,.46-.54.51.51,0,0,1,.54.47l7.48,110.31a.52.52,0,0,1-.17.41A5.08,5.08,0,0,1,276.88,412.4Z" style="fill:#263238"></path><path d="M273.05,260.39a.5.5,0,0,1-.5-.46c-.14-1.76-.32-3.79-.57-6.22a.5.5,0,0,1,.45-.55.49.49,0,0,1,.54.45c.25,2.44.44,4.48.58,6.24a.51.51,0,0,1-.46.54Z" style="fill:#263238"></path><path d="M272,249.79a.5.5,0,0,1-.49-.45c-1.76-16.1-4.71-37.53-4.74-37.74a.5.5,0,1,1,1-.14c0,.21,3,21.66,4.74,37.77a.51.51,0,0,1-.44.56Z" style="fill:#263238"></path><path d="M252.6,387a.51.51,0,0,1-.5-.46l-.94-9.71a.49.49,0,0,1,.45-.54.52.52,0,0,1,.55.45l.94,9.71a.5.5,0,0,1-.45.54Z" style="fill:#263238"></path><path d="M250.77,368.07a.51.51,0,0,1-.5-.45l-4.18-43.2-5.3-116.24a.5.5,0,0,1,.48-.52.49.49,0,0,1,.52.48l5.29,116.21,4.19,43.17a.51.51,0,0,1-.45.55Z" style="fill:#263238"></path><path d="M230,294.07h0a.5.5,0,0,1-.49-.51c.06-2.63.19-6.36.39-11.08a.51.51,0,0,1,.52-.48.5.5,0,0,1,.48.52c-.2,4.72-.33,8.44-.39,11.06A.49.49,0,0,1,230,294.07Z" style="fill:#263238"></path><path d="M230.67,276.09h0a.5.5,0,0,1-.48-.52c1.45-31.38,4.57-84.47,4.61-85a.5.5,0,0,1,1,.05c0,.54-3.15,53.62-4.6,85A.5.5,0,0,1,230.67,276.09Z" style="fill:#263238"></path><path d="M232.15,372a.5.5,0,0,1-.5-.46c-1.19-13.81-1.44-71.64-1.45-72.22a.5.5,0,0,1,.5-.5h0a.5.5,0,0,1,.5.5c0,.58.26,58.36,1.45,72.14a.51.51,0,0,1-.46.54Z" style="fill:#263238"></path><path d="M215.06,360.24a.5.5,0,0,1-.49-.46A697.36,697.36,0,0,1,213.12,288c1.19-40.47,11-89.1,11.08-89.58a.5.5,0,1,1,1,.19c-.1.49-9.87,49-11.06,89.42a700.57,700.57,0,0,0,1.44,71.65.5.5,0,0,1-.45.54Z" style="fill:#263238"></path><path d="M213.86,334.25a.5.5,0,0,1-.45-.28c0-.08-4.14-8.54-8.19-17.82s-1.56-41.07-1.45-42.42a.5.5,0,0,1,.54-.45.49.49,0,0,1,.46.53c0,.33-2.62,32.78,1.37,41.94s8.13,17.7,8.17,17.78a.5.5,0,0,1-.23.67A.42.42,0,0,1,213.86,334.25Z" style="fill:#263238"></path><path d="M271.72,33.11S256,42.27,242.45,48.27s-22.21,9.91-22.21,9.91l23.11,23,35.12,4.35,28.21-13.66S279.67,43.77,271.72,33.11Z" style="fill:#BA68C8"></path><path d="M278.47,86h-.06l-35.12-4.36a.47.47,0,0,1-.29-.14l-23.11-23a.49.49,0,0,1-.14-.44.5.5,0,0,1,.29-.37s8.7-3.9,22.21-9.91c13.33-5.92,29.06-15,29.21-15.13a.51.51,0,0,1,.66.13C280,43.32,306.77,71.21,307,71.49a.5.5,0,0,1-.14.79L278.69,85.94A.59.59,0,0,1,278.47,86Zm-34.89-5.33L278.38,85l27.47-13.3c-3.62-3.77-26.68-27.91-34.27-37.91-2.5,1.44-16.71,9.53-28.93,15-11.32,5-19.27,8.59-21.54,9.6Z" style="fill:#263238"></path><path d="M290.78,54.57l.15,11.11s-1.81,1-1.66,2.4l.15,1.35s-2.25,3.6-1.8,6.75S287,98.1,286.87,102s-.9,5.25.15,5.1,1.65-1.95,1.65-1.95-.45,3.75.75,3.45,2-2.55,2-2.55,1.2,2.85,1.5,1.65a14.77,14.77,0,0,0-.3-4.2s1.5,2.55,1.5,1-.3-6-.75-14.71.3-15.91-.6-18.31l-.9-2.4a3.35,3.35,0,0,0,.3-2.55c-.3-1.8-.45-11-.45-11S291.53,53.52,290.78,54.57Z" style="fill:#263238"></path><path d="M289.29,109.12a.89.89,0,0,1-.61-.24,2.71,2.71,0,0,1-.58-1.82,1.85,1.85,0,0,1-1,.54,1,1,0,0,1-.83-.22c-.39-.38-.31-1-.17-2.16.1-.78.23-1.85.28-3.24,0-.78.1-2.14.18-3.85.33-6.78.93-19.4.58-21.87-.42-3,1.34-6.2,1.78-6.94l-.13-1.18c-.15-1.32,1.09-2.35,1.64-2.73l-.14-10.83a.46.46,0,0,1,.09-.3c.37-.51.74-.54,1-.47.59.16.77,1.06.82,1.78,0,.12.16,9.16.45,10.91a4.34,4.34,0,0,1-.24,2.68l.81,2.18c.55,1.45.53,4.35.49,8.37,0,3-.05,6.36.15,10.09.17,3.32.32,6,.44,8.2.19,3.49.31,5.59.31,6.53,0,.53-.18.85-.53,1a.71.71,0,0,1-.68-.17,7.92,7.92,0,0,1,0,2.49c-.14.55-.47.66-.66.67s-.62.05-1.31-1.23a3.34,3.34,0,0,1-1.84,1.83A1.15,1.15,0,0,1,289.29,109.12Zm-.62-4.47h.11a.5.5,0,0,1,.39.55,5.64,5.64,0,0,0,.17,2.92c.64-.18,1.3-1.47,1.56-2.24a.51.51,0,0,1,.94,0,8.81,8.81,0,0,0,.61,1.23,18.17,18.17,0,0,0-.36-3.48.5.5,0,0,1,.92-.36,7.37,7.37,0,0,0,.56.85c0-1.07-.14-3-.3-6-.12-2.17-.27-4.88-.44-8.21-.2-3.75-.17-7.15-.15-10.15,0-3.76.06-6.73-.42-8l-.9-2.4a.48.48,0,0,1,.07-.49h0a3.1,3.1,0,0,0,.2-2.16c-.09-.56-.17-1.81-.24-3.28l0,2.29a.49.49,0,0,1-.24.44c-.43.25-1.5,1.08-1.41,1.92l.15,1.35a.52.52,0,0,1-.07.32s-2.15,3.48-1.73,6.41c.37,2.58-.22,14.78-.57,22.07-.08,1.7-.15,3.06-.18,3.84-.05,1.43-.19,2.52-.29,3.32a10.56,10.56,0,0,0-.11,1.25c.6-.18,1.07-1.13,1.23-1.6A.49.49,0,0,1,288.67,104.65Zm2.61-49.9Z" style="fill:#263238"></path><polygon points="241.89 107.13 241.89 129.28 278.34 129.28 278.34 95.75 240.79 95.75 241.89 107.13" style="fill:#263238"></polygon><path d="M278.34,129.78H241.89a.51.51,0,0,1-.5-.5V107.15l-1.1-11.36a.49.49,0,0,1,.13-.38.51.51,0,0,1,.37-.16h37.55a.5.5,0,0,1,.5.5v33.53A.5.5,0,0,1,278.34,129.78Zm-35.95-1h35.45V96.25h-36.5l1,10.83v21.7Z" style="fill:#263238"></path><path d="M288.25,131.51s15.05,4.71,18.9,6.13a9.71,9.71,0,0,1,5.28,5.28s-6.29-4.26-17.66,2-34.09,16.44-35.92,16.84-14.2-6.69-14.2-6.69" style="fill:#BA68C8"></path><path d="M258.73,162.3c-2.4,0-12.31-5.61-14.33-6.77a.51.51,0,0,1-.19-.68.52.52,0,0,1,.69-.19c6,3.45,12.82,6.88,13.85,6.65,1.57-.35,24.13-10.35,35.78-16.8,8.55-4.73,14.28-3.64,16.77-2.69a8.76,8.76,0,0,0-4.32-3.71c-3.8-1.4-18.73-6.07-18.88-6.12a.5.5,0,0,1-.33-.63.51.51,0,0,1,.63-.33c.15.05,15.1,4.74,18.92,6.15a10.13,10.13,0,0,1,5.58,5.57.5.5,0,0,1-.75.59c-.06,0-6.21-4-17.14,2-11.47,6.35-34.12,16.46-36.05,16.89A.79.79,0,0,1,258.73,162.3Z" style="fill:#263238"></path><path d="M231.13,135.78s-4.64,108.87-5.41,125.47-1.16,35.91-1.16,35.91l9.27,11.58,8.11-11.58,4.24-166Z" style="fill:#fff"></path><path d="M233.83,309.24a.49.49,0,0,1-.39-.19l-9.27-11.58a.54.54,0,0,1-.11-.32c0-.2.4-19.5,1.16-35.92s5.36-124.38,5.41-125.47a.5.5,0,0,1,.35-.46L246,130.67a.51.51,0,0,1,.45.08.48.48,0,0,1,.2.41l-4.24,166a.52.52,0,0,1-.1.27L234.24,309a.53.53,0,0,1-.4.22ZM225.07,297l8.73,10.91L241.44,297l4.22-165.16-14,4.33c-.29,6.85-4.65,109.17-5.39,125.12C225.5,276.83,225.11,295,225.07,297Z" style="fill:#263238"></path><path d="M269.73,136.94s-4.63,108.87-5.4,125.47-1.16,35.9-1.16,35.9l9.26,11.59,8.11-11.59,4.25-166Z" style="fill:#fff"></path><path d="M272.43,310.4a.51.51,0,0,1-.39-.19l-9.26-11.58a.49.49,0,0,1-.11-.33c0-.19.39-19.5,1.16-35.91s5.36-124.38,5.4-125.47a.52.52,0,0,1,.35-.46l15.06-4.63a.48.48,0,0,1,.45.08.51.51,0,0,1,.2.41l-4.25,166a.44.44,0,0,1-.09.27l-8.11,11.58a.51.51,0,0,1-.39.22Zm-8.76-12.26,8.74,10.92L280,298.15,284.27,133l-14,4.32c-.3,6.86-4.65,109.18-5.39,125.12C264.1,278,263.71,296.14,263.67,298.14Z" style="fill:#263238"></path><path d="M240.1,139.94l17.54,19.26s1.72-2.58,10.83-10.49,19.78-17.2,19.78-17.2L270,127.39l-21-.52-8.94,2.41-4.64,1.89Z" style="fill:#b8b8b8"></path><path d="M257.64,159.7a.5.5,0,0,1-.37-.17l-17.54-19.26a.36.36,0,0,1-.07-.1L235,131.4a.47.47,0,0,1,0-.4.47.47,0,0,1,.28-.29l4.64-1.9,9-2.42a.36.36,0,0,1,.14,0l21,.52L288.36,131a.53.53,0,0,1,.37.37.48.48,0,0,1-.16.5s-10.66,9.28-19.77,17.19c-8.9,7.73-10.73,10.37-10.75,10.39a.47.47,0,0,1-.37.22Zm-17.13-20,17.1,18.77c.88-1.08,3.55-4,10.53-10.09l19-16.55-17.26-3.91-20.81-.5-8.87,2.39-4.07,1.66Z" style="fill:#263238"></path><path d="M248.53,118.44A29.55,29.55,0,0,1,249,124v4.64s-.69.34,2.24,2.58,7.22,7.74,7.22,7.74,2.75-3.62,4.3-5.68,7.39-4.47,7.39-4.47.86-7.91,1.21-11.86l.34-4a25.22,25.22,0,0,1-14.62,5.33c-8.59.17-9.63-2.06-9.63-2.06Z" style="fill:#fff"></path><path d="M258.5,139.41a.49.49,0,0,1-.39-.2c-.05-.05-4.3-5.47-7.14-7.65-2.29-1.75-2.54-2.46-2.49-2.89a.61.61,0,0,1,.06-.24V124a29.84,29.84,0,0,0-.49-5.35l-1-2.18a.54.54,0,0,1,0-.21.5.5,0,0,1,1-.21h0s1.21,1.93,9.16,1.77a24.84,24.84,0,0,0,14.3-5.21.51.51,0,0,1,.83.42l-.35,4c-.34,3.91-1.19,11.8-1.2,11.87a.49.49,0,0,1-.31.41c-.06,0-5.74,2.38-7.18,4.31s-4.3,5.68-4.3,5.68a.56.56,0,0,1-.4.2Zm-9-10.62a7.33,7.33,0,0,0,2.08,2,52.16,52.16,0,0,1,6.91,7.32c.81-1.07,2.72-3.57,3.91-5.16,1.43-1.91,6.12-4,7.33-4.52.15-1.46.86-8.08,1.17-11.56l.24-2.82a25.57,25.57,0,0,1-14,4.74c-4.47.1-7-.47-8.4-1.07l.25.53a.23.23,0,0,1,0,.11,28.41,28.41,0,0,1,.53,5.61v4.64A.45.45,0,0,1,249.5,128.79Zm-.23.25Zm0,0h0Z" style="fill:#263238"></path><path d="M235.29,108.64s1.2,4.47-1.55,11.7-5.16,16.16-1.38,20.8,5,9.46,2.41,11.52-2.92,4.82-.69,7.4a12.78,12.78,0,0,0,6,3.43s-4.3-2.92-.86-6.19,9.29-5.67,10.66-10.83-2.41-10.66-2.41-10.66,3.62,2.75,3.62,3.78.68-3.44-.86-6.36-5.51-6.53-4.82-9.63a23.39,23.39,0,0,0-.34-11.86c-1.38-4.13-3.44-14.45-3.44-14.45S235.63,103.66,235.29,108.64Z" style="fill:#263238"></path><path d="M240.1,164H240a13.09,13.09,0,0,1-6.29-3.6,5.2,5.2,0,0,1,.76-8.11,3.19,3.19,0,0,0,1.15-2.25c.24-2.27-1.12-5.47-3.63-8.56-3.13-3.84-2.71-10.81,1.29-21.3,2.65-7,1.54-11.35,1.53-11.39a.43.43,0,0,1,0-.16c.35-5.11,6.24-11.39,6.49-11.66a.53.53,0,0,1,.51-.14.51.51,0,0,1,.35.39c0,.1,2.07,10.33,3.42,14.38a24.07,24.07,0,0,1,.36,12.13c-.43,1.92,1.22,4.18,2.82,6.36a26.54,26.54,0,0,1,1.95,2.93c1.39,2.63,1.15,6.69.81,7.07a.48.48,0,0,1-.55.14.6.6,0,0,1-.34-.62,5,5,0,0,0-1.38-1.66c1,2.15,2,5.45,1.15,8.67-1,3.77-4.18,6.06-7.25,8.28a33.24,33.24,0,0,0-3.55,2.79,3.09,3.09,0,0,0-1.16,2.48,4.73,4.73,0,0,0,2,2.93.5.5,0,0,1,.18.61A.49.49,0,0,1,240.1,164Zm-4.31-55.39c.16.69,1,5.09-1.58,11.91-3.86,10.14-4.34,16.78-1.46,20.32,2.73,3.34,4.13,6.73,3.86,9.29a4.15,4.15,0,0,1-1.53,2.93,4.21,4.21,0,0,0-.62,6.68,10.67,10.67,0,0,0,3.78,2.6,4.21,4.21,0,0,1-.82-2.1,4,4,0,0,1,1.48-3.29,34.43,34.43,0,0,1,3.64-2.87c2.93-2.12,6-4.3,6.88-7.73,1.3-4.88-2.3-10.19-2.34-10.25a.49.49,0,0,1,.07-.64.5.5,0,0,1,.65,0,22.28,22.28,0,0,1,3,2.65,10.44,10.44,0,0,0-1-4.59,23.14,23.14,0,0,0-1.87-2.81c-1.73-2.36-3.51-4.81-3-7.17a23.38,23.38,0,0,0-.33-11.59c-1.13-3.41-2.7-10.84-3.25-13.53C239.82,100.15,236.1,104.83,235.79,108.6Z" style="fill:#263238"></path><path d="M240.79,95.57s.65,12.28,1.37,15c1.9,7,9.8,13.93,11.87,15.31s5.25,1.3,7,.86c3.59-.88,12.84-7.43,13.75-15.82s1-15.13,1-15.13-7.4-17.2-9.63-19.43-5.85-3.27-10.49-1.55S241.3,87.49,240.79,95.57Z" style="fill:#fff"></path><path d="M258.56,127.48a8.87,8.87,0,0,1-4.81-1.23c-1.58-1-10-8-12.07-15.59-.72-2.7-1.36-14.56-1.39-15.06v-.06C240.83,87.13,251,76,255.57,74.3c4.34-1.61,8.36-1,11,1.66,2.28,2.28,9.43,18.88,9.73,19.59a.46.46,0,0,1,.05.2c0,.07-.12,6.8-1,15.18-.95,8.69-10.34,15.33-14.13,16.25A11.33,11.33,0,0,1,258.56,127.48Zm-17.27-31.9c0,.67.68,12.29,1.36,14.82,1.78,6.66,9.27,13.43,11.66,15,1.94,1.3,5,1.18,6.65.79,3.49-.85,12.49-7.29,13.38-15.39.84-7.76,1-14.09,1-15-2.56-5.94-7.77-17.46-9.48-19.17-1.39-1.4-4.54-3.44-10-1.43C251.55,76.86,241.83,87.51,241.29,95.58Z" style="fill:#263238"></path><path d="M266.24,97.81c0,1.09-.54,2-1.21,2s-1.2-.89-1.2-2,.54-2,1.2-2S266.24,96.72,266.24,97.81Z" style="fill:#263238"></path><ellipse cx="250.42" cy="97.81" rx="1.2" ry="1.98" style="fill:#263238"></ellipse><path d="M256.6,109.78c-2,0-4.2-2.06-4.29-2.15a.5.5,0,1,1,.69-.72c.58.56,2.38,2,3.77,1.87a7.88,7.88,0,0,0,3.48-1.56.5.5,0,0,1,.7.08.5.5,0,0,1-.07.7,8.74,8.74,0,0,1-4,1.77Z" style="fill:#263238"></path><path d="M250.25,112.08s5,1.72,8.25,1.21,5.85-1.21,5.85-1.21-5.16,4.47-7.4,4.82S250.25,112.08,250.25,112.08Z" style="fill:#fff"></path><path d="M256.75,117.41c-2.47,0-6.42-4.47-6.88-5a.5.5,0,0,1,0-.61.5.5,0,0,1,.58-.19c.05,0,4.91,1.67,8,1.18s5.77-1.18,5.8-1.19a.5.5,0,0,1,.45.86c-.54.47-5.33,4.57-7.64,4.93Zm-4.89-4.33c1.7,1.71,3.89,3.5,5,3.32s3.69-1.93,5.48-3.33c-1,.22-2.34.48-3.78.71A18.22,18.22,0,0,1,251.86,113.08Z" style="fill:#263238"></path><path d="M270.66,94.47a1,1,0,0,1-.63-.22,9.24,9.24,0,0,0-7.59-1.58,1,1,0,0,1-1.23-.7,1,1,0,0,1,.7-1.23,11.25,11.25,0,0,1,9.38,2,1,1,0,0,1,.14,1.41A1,1,0,0,1,270.66,94.47Z" style="fill:#263238"></path><path d="M245.44,94.22a1,1,0,0,1-.64-1.77,9.51,9.51,0,0,1,7.13-2c1.57.21,1.91.68,2,.84a1,1,0,0,1-.24,1.39,1,1,0,0,1-1.24-.07A7.48,7.48,0,0,0,246.09,94,1,1,0,0,1,245.44,94.22Z" style="fill:#263238"></path><path d="M260.73,77.69a76.26,76.26,0,0,1-9.11,10.83c-7.33,7.36-10.84,10.76-12.9,13.59a19.91,19.91,0,0,0-3.26,7.91s-2.24-7.74.17-19.6,5.16-14.28,8.25-16.51,11.35-3.44,13.93-3.1S263.31,70.3,260.73,77.69Z" style="fill:#263238"></path><path d="M235.46,110.52a.5.5,0,0,1-.48-.36c-.1-.32-2.24-8,.16-19.84,2.36-11.65,5-14.32,8.45-16.82,3.2-2.3,11.54-3.55,14.29-3.18.31,0,.62.06.94.09,1.15.08,2.34.17,3,1.16s.53,3-.6,6.29l-.06.11A78.61,78.61,0,0,1,252,88.88l-2.6,2.6c-5.64,5.65-8.47,8.49-10.25,10.92a19.84,19.84,0,0,0-3.18,7.69.5.5,0,0,1-.46.43Zm21.23-39.27c-3.24,0-9.88,1.16-12.51,3.06s-5.59,4-8.06,16.21a49.13,49.13,0,0,0-.62,17.16,19.24,19.24,0,0,1,2.82-5.87c1.82-2.5,4.67-5.35,10.35-11l2.6-2.61a77.86,77.86,0,0,0,9-10.7c1-2.78,1.2-4.58.69-5.36-.37-.57-1.23-.63-2.23-.71l-1-.09A8,8,0,0,0,256.69,71.25Zm4,6.44h0Z" style="fill:#263238"></path><path d="M264,74.08s1.72,8.77,5.33,14.27S276,98.5,276,102.45s1.2,9.8-1.55,16.51-6.71,8.25-3.78,15.65,4.64,5.5,1.89,10.31.17,15.65,5.33,17.2,8.94,2.41,7.74,4.81-2.75,3.27-1.72,4.65,3.78.17,3.78.17a3.12,3.12,0,0,1,.86-4.64c2.92-1.9,5.67-6.37,5-10.32s-6.37-6.88-6.19-9.46,4.64-4,5-8.08-2.92-4.3-2.92-7.74,2.75-.34,2.41-7.56-5.68-12.21-7.05-20.29S284,88.18,279,81.82,268,71.5,264,74.08Z" style="fill:#263238"></path><path d="M285.54,172.73a2.36,2.36,0,0,1-2-.85c-.92-1.22-.25-2.19.52-3.3a15,15,0,0,0,1.15-1.87,1,1,0,0,0,.1-1c-.46-1.07-3.14-1.86-6.25-2.78l-1.28-.38c-2.15-.65-4.12-2.86-5.4-6.06-1.7-4.25-1.79-9.13-.23-11.86,1.69-3,1.64-3,.53-4.9a33.67,33.67,0,0,1-2.45-5c-2.16-5.46-.71-7.89,1.3-11.25a33.56,33.56,0,0,0,2.49-4.77c2.12-5.16,1.84-9.78,1.62-13.5-.06-1-.11-2-.11-2.82,0-3.73-3-8.27-6.43-13.52l-.2-.3c-3.62-5.52-5.33-14.09-5.4-14.45a.51.51,0,0,1,.22-.52c3.87-2.52,9.85.49,15.62,7.85,3.86,4.92,4.5,10.45,5.18,16.31.21,1.87.44,3.8.77,5.75a35.36,35.36,0,0,0,3.62,9.83c1.67,3.4,3.25,6.62,3.44,10.52.2,4.23-.63,5.18-1.66,5.92-.47.33-.75.54-.75,1.67a4.5,4.5,0,0,0,1.32,3.09,6,6,0,0,1,1.6,4.69c-.21,2.48-1.81,4.06-3.1,5.33-1,1-1.82,1.79-1.89,2.74s1.16,2.3,2.46,3.65c1.57,1.64,3.35,3.49,3.73,5.69.72,4.14-2.14,8.84-5.21,10.82a2.71,2.71,0,0,0-1.3,1.73,3.2,3.2,0,0,0,.57,2.2.5.5,0,0,1,.08.43.54.54,0,0,1-.28.33A6.89,6.89,0,0,1,285.54,172.73Zm-21-98.4c.36,1.66,2.07,9,5.19,13.75l.2.3c3.53,5.39,6.59,10,6.59,14.07,0,.83,0,1.77.11,2.76.23,3.82.51,8.56-1.7,13.94a35.91,35.91,0,0,1-2.55,4.9c-1.93,3.23-3.21,5.37-1.23,10.37a30.75,30.75,0,0,0,2.39,4.85c1.28,2.18,1.33,2.65-.53,5.9-1.42,2.49-1.3,7,.29,11,1.16,2.92,2.9,4.91,4.75,5.47l1.29.38c3.61,1.07,6.23,1.84,6.88,3.34a2,2,0,0,1-.13,1.8,15.24,15.24,0,0,1-1.21,2c-.79,1.14-1,1.52-.55,2.14s1.8.47,2.64.21a4,4,0,0,1-.42-2.41,3.61,3.61,0,0,1,1.75-2.39c2.8-1.81,5.41-6.08,4.76-9.82-.33-1.9-2-3.64-3.46-5.17s-2.83-2.94-2.73-4.4,1.1-2.34,2.18-3.39c1.29-1.28,2.63-2.59,2.81-4.7a5,5,0,0,0-1.4-4,5.49,5.49,0,0,1-1.53-3.71,2.5,2.5,0,0,1,1.17-2.48c.67-.49,1.43-1,1.24-5.06-.18-3.7-1.71-6.82-3.34-10.13a36.46,36.46,0,0,1-3.71-10.1c-.33-2-.56-3.93-.78-5.81-.65-5.71-1.28-11.1-5-15.8C273.38,75.51,267.93,72.49,264.56,74.33Z" style="fill:#263238"></path><path d="M258.85,154h-.1a.51.51,0,0,1-.39-.59,46.28,46.28,0,0,0,.6-12,.5.5,0,0,1,1-.09,47,47,0,0,1-.62,12.33A.5.5,0,0,1,258.85,154Z" style="fill:#263238"></path><path d="M239.45,78.44s3.45-1.66,9.75-1.66a25.16,25.16,0,0,1,11.71,3.31,15.3,15.3,0,0,1,9-.9c5,1,11.86,7.5,11.86,7.5l-.3-16.21s-.6-9.9-10.2-13.65S247.85,57,245.9,60,239.45,78.44,239.45,78.44Z" style="fill:#BA68C8"></path><path d="M281.77,87.19a.53.53,0,0,1-.34-.13c-.07-.07-6.86-6.38-11.62-7.38a14.8,14.8,0,0,0-8.68.86.51.51,0,0,1-.48,0,25,25,0,0,0-11.45-3.22c-6.09,0-9.5,1.58-9.53,1.6a.53.53,0,0,1-.54-.07.49.49,0,0,1-.16-.52c.18-.64,4.55-15.57,6.51-18.6,2.2-3.38,16.52-7,26-3.34,9.79,3.82,10.51,14,10.52,14.09l.3,16.23a.51.51,0,0,1-.3.47A.45.45,0,0,1,281.77,87.19ZM266.9,78.37a14.61,14.61,0,0,1,3.12.33c4,.85,9.2,5.08,11.23,6.85L281,70.49c0-.07-.7-9.61-9.89-13.2-9.35-3.66-23,.22-24.76,3-1.61,2.47-5.08,13.91-6.1,17.35a28,28,0,0,1,9-1.31,25.36,25.36,0,0,1,11.74,3.24A15.67,15.67,0,0,1,266.9,78.37Z" style="fill:#263238"></path><path d="M216.66,130.49s-.12,4.72.37,5.21a30.07,30.07,0,0,0,4.23,1.93,28.36,28.36,0,0,1,.49-6.89c.72-3.51,1.08-6.66,2.42-5s1.33,6,1,9.68-.48,8-.6,10.29-2.3,5.69-2.54,6.29a16.42,16.42,0,0,0-.49,2.3,44.25,44.25,0,0,1-6.65.85c-3.27.12-6.42-2.18-6.42-2.18s.61-6.17.49-6.9-2.79-6.53-2.66-8.1,3.14-7,3.14-7,4.72-3,5.69-3.39S216.66,130.49,216.66,130.49Z" style="fill:#fff"></path><path d="M214.6,155.69a12.55,12.55,0,0,1-6.46-2.28.51.51,0,0,1-.2-.46c.29-3,.55-6.35.48-6.76,0-.19-.38-1.08-.69-1.87-1.13-2.83-2.06-5.27-2-6.36.12-1.64,2.89-6.66,3.2-7.23a.46.46,0,0,1,.17-.17c.49-.32,4.79-3.07,5.78-3.44a.94.94,0,0,1,.8.07c.88.5,1.33,2.58,1.44,3.21a.41.41,0,0,1,0,.11,21,21,0,0,0,.25,4.87,24.94,24.94,0,0,0,3.32,1.51,28.89,28.89,0,0,1,.53-6.26c.09-.46.18-.92.27-1.35.56-2.86.86-4.24,1.76-4.45.43-.1.85.11,1.27.63,1.6,2,1.36,7.17,1.07,10s-.41,5.92-.51,8.24c0,.77-.06,1.46-.09,2-.1,1.91-1.47,4.4-2.21,5.74-.18.34-.32.59-.37.71a14.07,14.07,0,0,0-.45,2.18.5.5,0,0,1-.39.42,44.29,44.29,0,0,1-6.74.86ZM209,152.76a11.18,11.18,0,0,0,5.87,1.92,44.69,44.69,0,0,0,6.23-.77,13.18,13.18,0,0,1,.46-2.06c.06-.14.21-.43.43-.82.64-1.18,2-3.63,2.08-5.32,0-.56.06-1.24.09-2,.1-2.34.24-5.54.52-8.3.45-4.56.13-8.05-.87-9.32-.19-.25-.29-.28-.3-.28-.29.21-.68,2.21-1,3.67-.09.44-.18.9-.28,1.37a28.34,28.34,0,0,0-.47,6.76.5.5,0,0,1-.68.5,25.09,25.09,0,0,1-4.41-2c-.42-.42-.59-2.28-.51-5.52a5.19,5.19,0,0,0-.95-2.47c-.68.27-4.06,2.39-5.43,3.27-.87,1.57-2.94,5.53-3,6.7-.07,1,1.17,4.07,1.9,5.92a17.86,17.86,0,0,1,.76,2.07C209.53,146.72,209.1,151.26,209,152.76Z" style="fill:#263238"></path><path d="M218.06,148.88a.39.39,0,0,1-.15,0,.5.5,0,0,1-.33-.63,6,6,0,0,0-2.25-7.11.5.5,0,1,1,.51-.85,7,7,0,0,1,2.69,8.26A.48.48,0,0,1,218.06,148.88Z" style="fill:#263238"></path><polygon points="214.36 129.89 240.99 194.15 250.67 188.58 224.16 125.77 214.36 129.89" style="fill:#fff"></polygon><path d="M241,194.65a.41.41,0,0,1-.16,0,.54.54,0,0,1-.31-.28L213.9,130.08a.51.51,0,0,1,.27-.65l9.8-4.12a.51.51,0,0,1,.66.27l26.5,62.81a.49.49,0,0,1-.21.62l-9.68,5.57A.47.47,0,0,1,241,194.65Zm-26-64.49,26.21,63.27,8.81-5.06L223.9,126.43Z" style="fill:#263238"></path><path d="M236.37,166.45a9.88,9.88,0,0,0,.32-3.35,2.67,2.67,0,0,0-1.08-1.44l-.21-.12a31.51,31.51,0,0,1,3.65-1.16l-.85-2a14.82,14.82,0,0,0-4.11.83c.59-1.15,1.22-2.68.74-3.21s-1.1,1.88-1.37,3.46a5.49,5.49,0,0,0-.51.21l-.49-1.49s-2.1-6.46-2.46-3.46c-.25,2.08,1.42,4.12,2.47,5.17a15.12,15.12,0,0,0-4.31,3.09l1.09,2.54a10.73,10.73,0,0,1,3.63-2.8,8.76,8.76,0,0,0-.24,1.24,7.6,7.6,0,0,0,0,2A3.52,3.52,0,0,0,233,167l.46.84a4.85,4.85,0,0,1,.56,1.77,2.74,2.74,0,0,0,.16-2,9,9,0,0,0-.32-1,3.44,3.44,0,0,1-.21-.81c-.1-.6-.14-1.23-.22-1.87-.06-.46-.13-.93-.22-1.41.6-.29,1.2-.56,1.78-.8a2.89,2.89,0,0,1,1,1.55,4.49,4.49,0,0,1-.2,1.44c-.11.51-.25,1.05-.34,1.6a5.45,5.45,0,0,0,0,1.76,3.26,3.26,0,0,0,.81,1.64c.39.43.82.72,1,1.13a2.73,2.73,0,0,1,0,1.52,2.44,2.44,0,0,0,.52-1.63,3.77,3.77,0,0,0-.84-1.51A3.42,3.42,0,0,1,236.37,166.45Z" style="fill:#263238"></path><path d="M203.2,203.79s.54,72.93,1.07,70,12.85-66,12.85-66Z" style="fill:#263238"></path><path d="M204.23,274.36h0c-.17,0-.3,0-.42-.66h0c-.32-1.83-.47-8.7-.76-34.87-.19-17.51-.32-35-.32-35a.51.51,0,0,1,.2-.4.53.53,0,0,1,.44-.08l13.92,4a.51.51,0,0,1,.35.58c-.12.63-12.32,63.06-12.85,66A.6.6,0,0,1,204.23,274.36Zm-.52-69.9c.12,16.34.46,53.36.8,65.41,2.6-13.41,11.07-56.8,12-61.71Z" style="fill:#263238"></path><path d="M207.47,151.19s5.92,2.54,8.95,2.42a47.16,47.16,0,0,0,6.54-.85,181.63,181.63,0,0,0-1.09,23c.36,10.41-.25,20.94-1.94,27.11s-6.17,9.56-10.29,9.08-6.29-5.21-7.86-15.13S207.47,151.19,207.47,151.19Z" style="fill:#b8b8b8"></path><path d="M210.43,212.48a6.15,6.15,0,0,1-.85,0c-4.22-.49-6.62-5-8.3-15.54-1.57-9.9,5.4-44.34,5.7-45.8a.51.51,0,0,1,.25-.35.5.5,0,0,1,.43,0c.06,0,5.88,2.49,8.74,2.38a46.76,46.76,0,0,0,6.45-.84.5.5,0,0,1,.6.55,184.94,184.94,0,0,0-1.08,22.92c.39,11.19-.34,21.38-2,27.25C218.86,208.64,214.75,212.48,210.43,212.48Zm-2.59-60.6c-.94,4.7-7,35.83-5.57,44.85,1.59,10,3.74,14.28,7.43,14.71,4.13.49,8.23-3.18,9.75-8.71,1.59-5.79,2.3-15.86,1.92-27a180.68,180.68,0,0,1,1-22.39,44.59,44.59,0,0,1-5.94.73C213.85,154.21,209.41,152.52,207.84,151.88Z" style="fill:#263238"></path><path d="M262.46,185.56a.5.5,0,0,1-.49-.4l-3.85-19.25a.5.5,0,0,1,1-.2L263,185a.49.49,0,0,1-.39.59Z" style="fill:#263238"></path><path d="M252.6,185.08h-.09a.5.5,0,0,1-.4-.58l2.4-13.23a.5.5,0,1,1,1,.18l-2.41,13.23A.49.49,0,0,1,252.6,185.08Z" style="fill:#263238"></path><path d="M192.69,186.52a.48.48,0,0,1-.42-.23.5.5,0,0,1,.15-.69l8.18-5.29a.5.5,0,0,1,.54.84L193,186.44A.45.45,0,0,1,192.69,186.52Z" style="fill:#263238"></path><path d="M213.27,125.41s2.3-2.54,3.88-2.66,5.32.12,5.44,1.21a1.62,1.62,0,0,1-.72,1.57Z" style="fill:#fff"></path><path d="M221.87,126h0l-8.59-.12a.48.48,0,0,1-.45-.3.51.51,0,0,1,.08-.54c.25-.27,2.49-2.69,4.21-2.82.06,0,5.76-.29,6,1.65a2.14,2.14,0,0,1-1,2.07A.5.5,0,0,1,221.87,126Zm-7.41-1.1,7.25.1a1.13,1.13,0,0,0,.39-1c-.14-.44-2.8-.93-4.91-.76A6,6,0,0,0,214.46,124.93Z" style="fill:#263238"></path><path d="M212.18,139.45l-.48-3.39,2.91-3.63S218,132,219,131.1s-.12-2.3-.12-2.3-7.26.6-8.59,1.21-4,8-4,8,1,3.47,1.25,4.2" style="fill:#fff"></path><path d="M207.51,142.7a.5.5,0,0,1-.47-.35c-.25-.72-1.22-4.07-1.27-4.21a.65.65,0,0,1,0-.31c.65-1.78,2.85-7.63,4.26-8.28s8-1.19,8.76-1.25a.48.48,0,0,1,.44.2c.47.63,1.09,2.06,0,3s-3.61,1.3-4.42,1.42l-2.64,3.31.45,3.18a.5.5,0,0,1-1,.14l-.48-3.39a.46.46,0,0,1,.1-.38l2.9-3.63a.53.53,0,0,1,.32-.19c1.26-.18,3.48-.66,4.1-1.21.44-.38.15-1.05,0-1.4-2.89.25-7.24.74-8.12,1.14-.7.32-2.44,4.14-3.68,7.55.2.69,1,3.41,1.2,4a.5.5,0,0,1-.31.63A.45.45,0,0,1,207.51,142.7Z" style="fill:#263238"></path><path d="M210.25,130s1.09-3.87,1.81-4.24,5.45-.48,6.9-.72,4.12.36,3,1.81a6.23,6.23,0,0,1-3.15,1.94Z" style="fill:#fff"></path><path d="M210.25,130.51a.52.52,0,0,1-.38-.17.5.5,0,0,1-.1-.47c.43-1.52,1.27-4.14,2.07-4.54a17.57,17.57,0,0,1,4.23-.52c1.16-.09,2.25-.16,2.81-.26,1.13-.19,3.1.08,3.68,1a1.31,1.31,0,0,1-.17,1.56,6.77,6.77,0,0,1-3.43,2.13l-8.64,1.21Zm9.4-5a4.07,4.07,0,0,0-.61.05c-.6.1-1.72.18-2.9.26a26.19,26.19,0,0,0-3.85.42,11,11,0,0,0-1.34,3.19l7.82-1.11h0a5.72,5.72,0,0,0,2.82-1.74c.22-.29.15-.4.12-.44A2.87,2.87,0,0,0,219.65,125.49Z" style="fill:#263238"></path><path d="M265.81,192l-5.83-2.1L254,186s-10.61,0-11.95.9-4.63,3.58-4.63,5.08a3.72,3.72,0,0,0,1.19,2.53,3.38,3.38,0,0,0,.75,2.69l1,1.2a12.59,12.59,0,0,0,.89,3,3,3,0,0,0,1.35,1.49s.74,3.14,1.64,3.58,6.42-1.19,6.87-1.19,3,1.79,5.53,2.24,5.52-1.2,5.52-1.2l2.84.15s.75-4.93,1.05-7.91A30,30,0,0,0,265.81,192Z" style="fill:#fff"></path><path d="M257.62,208.13a5.75,5.75,0,0,1-1-.09,16.37,16.37,0,0,1-4.57-1.79,8.63,8.63,0,0,0-.92-.45l-1.26.32c-3.3.82-5.11,1.17-5.78.83-1-.47-1.61-2.73-1.86-3.7a4,4,0,0,1-1.36-1.6,12.42,12.42,0,0,1-.91-3l-1-1.09a3.81,3.81,0,0,1-.89-2.83,4.14,4.14,0,0,1-1.17-2.72c0-2.17,4.8-5.47,4.85-5.5,1.4-.93,10.43-1,12.23-1a.53.53,0,0,1,.27.08l5.93,3.85,5.77,2.07a.51.51,0,0,1,.32.39,29.62,29.62,0,0,1,.3,6.71c-.29,3-1,7.89-1.05,7.94a.49.49,0,0,1-.52.42l-2.7-.14A11.25,11.25,0,0,1,257.62,208.13Zm-6.45-3.32a3.45,3.45,0,0,1,1.33.55,15.53,15.53,0,0,0,4.28,1.7c2.33.41,5.17-1.13,5.2-1.14a.5.5,0,0,1,.27-.07l2.38.13c.19-1.28.74-5,1-7.44a28.41,28.41,0,0,0-.25-6.15l-5.55-2a.53.53,0,0,1-.1-.06l-5.85-3.8c-4.34,0-10.69.26-11.52.81-1.8,1.2-4.41,3.61-4.41,4.67a3.26,3.26,0,0,0,1,2.16.48.48,0,0,1,.16.47,2.9,2.9,0,0,0,.64,2.26l1,1.2a.53.53,0,0,1,.12.25,12,12,0,0,0,.85,2.84,2.6,2.6,0,0,0,1.09,1.26.5.5,0,0,1,.29.34c.34,1.41,1,3,1.38,3.26s3.86-.61,5.1-.91A9.78,9.78,0,0,1,251.17,204.81Z" style="fill:#263238"></path><path d="M238.62,195.05a.49.49,0,0,1-.36-.84,20.2,20.2,0,0,1,3.28-2.94,53.51,53.51,0,0,1,6.86-1.39.5.5,0,1,1,.16,1,52.92,52.92,0,0,0-6.58,1.29,19.86,19.86,0,0,0-3,2.74A.51.51,0,0,1,238.62,195.05Z" style="fill:#263238"></path><path d="M240.42,198.94a.5.5,0,0,1-.28-.92,19.22,19.22,0,0,1,3.61-2c.75-.15,5.21-.87,5.4-.9a.5.5,0,1,1,.16,1c-.05,0-4.63.75-5.36.9a19.44,19.44,0,0,0-3.26,1.86A.46.46,0,0,1,240.42,198.94Z" style="fill:#263238"></path><path d="M242.66,203.42a.51.51,0,0,1-.43-.24.5.5,0,0,1,.17-.69,10.63,10.63,0,0,1,2.94-1.42c.29,0,2.71-.38,4.85-.74a.51.51,0,0,1,.58.42.5.5,0,0,1-.41.57c-.76.13-4.55.75-5,.75a18.4,18.4,0,0,0-2.43,1.28A.47.47,0,0,1,242.66,203.42Z" style="fill:#263238"></path><path d="M289.5,194.67,264.33,191a21.06,21.06,0,0,1,.81,8.72c-.6,4.67-1.21,8.93-1.21,8.93S286.25,215,298.42,217c0,0,1.43-7.71-.81-13.19S289.5,194.67,289.5,194.67Z" style="fill:#b8b8b8"></path><path d="M298.43,217.49h-.09c-12.06-2-34.33-8.27-34.55-8.33a.5.5,0,0,1-.36-.55s.61-4.26,1.22-8.92a21,21,0,0,0-.79-8.5.47.47,0,0,1,.09-.48.46.46,0,0,1,.45-.18l25.17,3.65a.62.62,0,0,1,.19.07c.25.16,6.05,3.81,8.32,9.37s.9,13.15.84,13.47A.51.51,0,0,1,298.43,217.49Zm-33.95-9.18c3.09.86,22.35,6.18,33.53,8.1.26-1.76,1-7.92-.86-12.42-2-4.91-7.11-8.37-7.83-8.84L265,191.62a21.74,21.74,0,0,1,.6,8.19C265.15,203.59,264.65,207.11,264.48,208.31Z" style="fill:#263238"></path><path d="M309.79,153.88a40.83,40.83,0,0,1-3.86,14.2c-3.45,6.9-9.33,17.66-9.33,18.88s1.82,3.65,1.82,3.65A8.78,8.78,0,0,0,295,192a37.6,37.6,0,0,1-5.48,2.64s3.65,5.68,6.9,20.49,2,26.59,11.56,40.39a159,159,0,0,0,22.53,26.58c5.88,5.68,8.32,15.83,8.32,15.83l-5.28-65.14" style="fill:#BA68C8"></path><path d="M338.81,298.46a.51.51,0,0,1-.49-.38c0-.1-2.47-10.08-8.18-15.59a160.39,160.39,0,0,1-22.59-26.66c-6.95-10.06-8.26-19.18-9.65-28.84-.54-3.75-1.09-7.62-2-11.72-3.19-14.52-6.8-20.28-6.83-20.33a.47.47,0,0,1-.06-.43.52.52,0,0,1,.29-.31,36,36,0,0,0,5.39-2.59,10.31,10.31,0,0,1,2.88-1.33A7.84,7.84,0,0,1,296.1,187c0-.86,1.81-4.43,5.64-11.81,1.32-2.53,2.65-5.1,3.75-7.29a40.54,40.54,0,0,0,3.8-14,.52.52,0,0,1,.53-.47.51.51,0,0,1,.47.53,40.87,40.87,0,0,1-3.91,14.4c-1.09,2.19-2.43,4.76-3.75,7.3-2.45,4.7-5.49,10.56-5.53,11.35s1.06,2.46,1.73,3.35a.5.5,0,0,1,.05.49.5.5,0,0,1-.39.31,8.46,8.46,0,0,0-3.24,1.34,33.88,33.88,0,0,1-5,2.47c.95,1.7,3.94,7.69,6.66,20.14.91,4.13,1.47,8,2,11.79,1.37,9.54,2.66,18.55,9.48,28.41a159.24,159.24,0,0,0,22.47,26.51c3.52,3.41,5.82,8.31,7.11,11.81L333,232.86a.5.5,0,0,1,.46-.54.5.5,0,0,1,.54.46l5.28,65.14a.49.49,0,0,1-.42.53Z" style="fill:#263238"></path><path d="M308.52,201.1c-1.82,0-4.29-2.69-4.79-3.26a.51.51,0,0,1,0-.71.49.49,0,0,1,.7.05c1.16,1.32,3.25,3.1,4.16,2.91.08,0,.31-.06.48-.52.59-1.66-4.95-5-9.08-6.88a.5.5,0,1,1,.42-.91c1.79.81,10.71,5,9.6,8.13a1.52,1.52,0,0,1-1.54,1.19Z" style="fill:#263238"></path></g></svg>
