<svg xmlns="http://www.w3.org/2000/svg" viewBox="0 0 500 500"><g id="freepik--Floor--inject-176"><path id="freepik--floor--inject-176" d="M77.67,454.67c-95.18-54.95-95.18-144,0-199s249.49-54.94,344.66,0,95.18,144.05,0,199S172.84,509.62,77.67,454.67Z" style="fill:#fafafa"></path></g><g id="freepik--Sunburst--inject-176"><g id="freepik--Sparkles--inject-176"><path d="M249.35,176.62c-1.57-3.53-1.69-7.05-1.69-10.57l-.12-10.58c-.12-7.05-.08-14.09-.08-21.14.07-14.1.29-28.2.49-42.29s.43-28.2.75-42.3l.5-21.14c.21-7,.38-14.1.64-21.15h.32c.26,7.05.43,14.1.64,21.15l.5,21.14c.32,14.1.49,28.2.75,42.3s.42,28.19.49,42.29c0,7,0,14.09-.08,21.14l-.12,10.58c0,3.52-.12,7-1.69,10.57Z" style="fill:#BA68C8"></path><path d="M249.36,176.73c-2.16-3.2-2.89-6.65-3.5-10.12l-2-10.39c-1.34-6.92-2.52-13.87-3.74-20.81-2.38-13.89-4.61-27.82-6.86-41.73s-4.48-27.84-6.61-41.78L223.5,31c-1-7-2.06-13.95-3-20.94l.31-.05c1.48,6.89,2.87,13.8,4.31,20.71l4.16,20.74C232,65.27,234.63,79.13,237.33,93s5.31,27.69,7.83,41.56c1.22,6.94,2.49,13.87,3.59,20.84l1.72,10.43c.61,3.47,1.1,7,.17,10.71Z" style="fill:#BA68C8"></path><path d="M249.39,176.84c-2.68-2.78-4-6-5.21-9.36l-3.73-9.89c-2.52-6.58-4.89-13.22-7.3-19.84-4.76-13.28-9.37-26.6-14-39.91s-9.24-26.64-13.76-40l-6.77-20c-2.21-6.7-4.46-13.38-6.63-20.09l.3-.11c2.66,6.53,5.23,13.1,7.84,19.65l7.7,19.7C213,70.09,217.93,83.28,223,96.44s10,26.35,14.93,39.57c2.41,6.62,4.87,13.23,7.16,19.89l3.5,10c1.21,3.31,2.3,6.67,2,10.52Z" style="fill:#BA68C8"></path><path d="M249.44,176.94c-3.12-2.27-5-5.26-6.75-8.31l-5.4-9.09c-3.63-6-7.11-12.17-10.63-18.28-7-12.24-13.85-24.56-20.72-36.87s-13.73-24.63-20.5-37L175.29,48.83c-3.33-6.21-6.71-12.4-10-18.64l.27-.15c3.75,6,7.42,12,11.14,18l11,18.06c7.32,12,14.52,24.17,21.79,36.25s14.46,24.21,21.57,36.38c3.53,6.11,7.09,12.19,10.51,18.35l5.18,9.22c1.76,3.05,3.42,6.17,3.82,10Z" style="fill:#BA68C8"></path><path d="M249.51,177c-3.47-1.69-5.83-4.31-8.1-7l-6.89-8c-4.62-5.32-9.12-10.75-13.65-16.15-9-10.84-17.9-21.78-26.81-32.71s-17.79-21.87-26.61-32.88L154.24,63.75c-4.37-5.54-8.77-11-13.1-16.62l.24-.2c4.73,5.23,9.39,10.52,14.09,15.78l14,15.88c9.31,10.59,18.5,21.28,27.76,31.92s18.45,21.33,27.56,32.08c4.53,5.4,9.1,10.77,13.54,16.25L245,167c2.26,2.7,4.43,5.48,5.49,9.19Z" style="fill:#BA68C8"></path><path d="M249.58,177.11c-3.71-1.06-6.48-3.23-9.18-5.5l-8.18-6.7c-5.48-4.43-10.85-9-16.25-13.53-10.75-9.12-21.41-18.35-32.08-27.56S162.57,105.37,152,96.06l-15.88-14c-5.26-4.7-10.55-9.36-15.78-14.09l.2-.24c5.57,4.33,11.08,8.73,16.62,13.1l16.51,13.21c11,8.82,21.92,17.75,32.88,26.61s21.87,17.8,32.71,26.81c5.4,4.53,10.83,9,16.16,13.65l8,6.89c2.7,2.26,5.32,4.62,7,8.09Z" style="fill:#BA68C8"></path><path d="M249.68,177.18c-3.84-.4-7-2.06-10-3.82l-9.21-5.18c-6.17-3.42-12.25-7-18.35-10.51-12.18-7.11-24.28-14.35-36.38-21.57s-24.21-14.47-36.26-21.79l-18.06-11c-6-3.72-12-7.39-18-11.14l.16-.27c6.23,3.3,12.42,6.68,18.63,10l18.56,10.15c12.37,6.77,24.67,13.67,37,20.5s24.63,13.73,36.87,20.71c6.11,3.53,12.24,7,18.28,10.64L242,169.3c3.06,1.77,6.05,3.64,8.31,6.76Z" style="fill:#BA68C8"></path><path d="M249.78,177.23c-3.85.27-7.2-.82-10.52-2l-10-3.5c-6.67-2.3-13.28-4.75-19.9-7.16-13.22-4.89-26.39-9.92-39.57-14.93s-26.35-10-39.49-15.17l-19.7-7.69c-6.55-2.62-13.11-5.19-19.65-7.84l.11-.3c6.71,2.17,13.39,4.42,20.09,6.63l20,6.76c13.36,4.52,26.66,9.18,40,13.77s26.64,9.24,39.91,14c6.62,2.41,13.26,4.78,19.84,7.3l9.9,3.73c3.31,1.21,6.58,2.53,9.35,5.21Z" style="fill:#BA68C8"></path><path d="M249.89,177.25c-3.75.94-7.24.45-10.71-.16l-10.43-1.72c-7-1.1-13.9-2.37-20.84-3.6-13.87-2.51-27.72-5.18-41.56-7.83s-27.7-5.31-41.52-8.07l-20.74-4.16c-6.9-1.44-13.82-2.83-20.71-4.31l.05-.31c7,1,14,2,20.94,3l20.91,3.19c13.94,2.13,27.85,4.41,41.78,6.61s27.84,4.48,41.73,6.85c6.94,1.23,13.89,2.41,20.81,3.75l10.39,2c3.48.61,6.92,1.34,10.12,3.5Z" style="fill:#BA68C8"></path><path d="M250,177.26c-3.52,1.58-7.05,1.7-10.57,1.7l-10.58.12c-7,.12-14.09.08-21.14.08-14.1-.07-28.2-.29-42.29-.5s-28.2-.42-42.29-.74l-21.15-.5c-7-.21-14.1-.38-21.15-.65v-.31c7-.26,14.1-.43,21.15-.65l21.15-.49c14.09-.32,28.19-.49,42.29-.75s28.19-.42,42.29-.49c7,0,14.1-.05,21.14.07l10.58.13c3.52,0,7,.12,10.57,1.69Z" style="fill:#BA68C8"></path><path d="M250.11,177.25c-3.2,2.16-6.64,2.9-10.12,3.51l-10.39,2c-6.92,1.34-13.87,2.52-20.81,3.74-13.89,2.38-27.81,4.61-41.73,6.86s-27.84,4.48-41.78,6.61l-20.91,3.18c-7,1-14,2.07-20.94,3l-.05-.31c6.89-1.48,13.81-2.87,20.71-4.31l20.74-4.16c13.82-2.76,27.68-5.38,41.52-8.08S194,184,207.91,181.46c6.94-1.22,13.88-2.49,20.84-3.6l10.43-1.71c3.47-.61,7-1.1,10.71-.17Z" style="fill:#BA68C8"></path><path d="M250.22,177.23c-2.77,2.68-6,4-9.35,5.2l-9.9,3.74c-6.58,2.52-13.22,4.89-19.84,7.3-13.27,4.75-26.6,9.37-39.91,14s-26.64,9.24-40,13.76l-20,6.77c-6.7,2.21-13.38,4.46-20.09,6.62l-.11-.29c6.54-2.66,13.1-5.23,19.65-7.84l19.7-7.7c13.14-5.12,26.33-10.1,39.49-15.16s26.35-10,39.57-14.93c6.62-2.41,13.23-4.87,19.9-7.16l10-3.51c3.32-1.2,6.67-2.29,10.52-2Z" style="fill:#BA68C8"></path><path d="M250.32,177.18c-2.26,3.12-5.25,5-8.31,6.75l-9.09,5.39c-6,3.63-12.17,7.12-18.28,10.64-12.24,7-24.56,13.85-36.87,20.72s-24.63,13.73-37,20.5l-18.56,10.14c-6.21,3.34-12.4,6.72-18.63,10l-.16-.27c6-3.76,12-7.43,18-11.14l18.06-11c12.05-7.33,24.18-14.52,36.26-21.79s24.2-14.47,36.38-21.57c6.1-3.53,12.18-7.09,18.35-10.51l9.21-5.18c3.06-1.77,6.17-3.42,10-3.82Z" style="fill:#BA68C8"></path><path d="M250.41,177.11c-1.68,3.47-4.3,5.83-7,8.1l-8,6.89c-5.33,4.62-10.76,9.12-16.16,13.65-10.84,9-21.78,17.9-32.71,26.8s-21.87,17.8-32.88,26.62l-16.51,13.21c-5.54,4.36-11,8.77-16.62,13.1l-.2-.24c5.23-4.74,10.52-9.4,15.78-14.09l15.88-14c10.6-9.31,21.29-18.5,31.92-27.76S205.22,211,216,201.86c5.4-4.53,10.77-9.1,16.25-13.54l8.18-6.7c2.7-2.26,5.47-4.44,9.18-5.5Z" style="fill:#BA68C8"></path><path d="M250.49,177c-1.06,3.71-3.23,6.49-5.49,9.19l-6.7,8.18c-4.44,5.48-9,10.85-13.54,16.25-9.11,10.75-18.35,21.41-27.56,32.08s-18.45,21.32-27.76,31.91l-14,15.89c-4.7,5.25-9.36,10.55-14.09,15.78l-.24-.2c4.33-5.57,8.73-11.08,13.1-16.62L167.45,273c8.82-11,17.75-21.91,26.61-32.87s17.8-21.87,26.81-32.72c4.53-5.4,9-10.83,13.65-16.15l6.89-8c2.27-2.7,4.63-5.32,8.1-7Z" style="fill:#BA68C8"></path><path d="M250.56,176.94c-.4,3.84-2.06,6.95-3.82,10l-5.18,9.22c-3.42,6.17-7,12.25-10.51,18.35-7.11,12.18-14.35,24.27-21.57,36.38S195,275.1,187.69,287.14l-11,18.07c-3.72,6-7.39,12-11.14,18l-.27-.16c3.3-6.23,6.68-12.42,10-18.64l10.15-18.55c6.77-12.37,13.67-24.67,20.5-37s13.73-24.63,20.72-36.88c3.52-6.1,7-12.23,10.63-18.27l5.4-9.1c1.76-3,3.63-6,6.75-8.3Z" style="fill:#BA68C8"></path><path d="M250.61,176.84c.27,3.85-.82,7.2-2,10.51l-3.5,10c-2.29,6.67-4.75,13.27-7.16,19.9C233,230.45,228,243.62,223,256.8s-10,26.35-15.16,39.48L200.13,316c-2.61,6.55-5.18,13.11-7.84,19.65l-.3-.11c2.17-6.72,4.42-13.4,6.63-20.09l6.77-20c4.52-13.36,9.18-26.67,13.76-40s9.24-26.64,14-39.91c2.41-6.62,4.78-13.26,7.3-19.84l3.73-9.9c1.21-3.31,2.53-6.58,5.21-9.35Z" style="fill:#BA68C8"></path><path d="M250.64,176.73c.93,3.74.44,7.24-.17,10.71l-1.72,10.43c-1.1,7-2.37,13.9-3.59,20.84-2.52,13.87-5.19,27.71-7.83,41.56S232,288,229.25,301.79l-4.16,20.74c-1.44,6.9-2.83,13.82-4.31,20.71l-.31-.05c1-7,2-14,3-20.94l3.19-20.91c2.13-13.94,4.41-27.85,6.61-41.78s4.48-27.84,6.86-41.73c1.22-7,2.4-13.89,3.74-20.82l2-10.39c.61-3.47,1.34-6.92,3.5-10.11Z" style="fill:#BA68C8"></path><path d="M250.65,176.62c1.57,3.52,1.69,7,1.69,10.57l.12,10.57c.12,7.05.08,14.1.08,21.15-.07,14.1-.29,28.19-.49,42.29s-.43,28.2-.75,42.29l-.5,21.15c-.21,7.05-.38,14.1-.64,21.14h-.32c-.26-7-.43-14.09-.64-21.14l-.5-21.15c-.32-14.09-.49-28.19-.75-42.29s-.42-28.19-.49-42.29c0-7,0-14.1.08-21.15l.12-10.57c0-3.52.12-7.05,1.69-10.57Z" style="fill:#BA68C8"></path><path d="M250.64,176.51c2.16,3.19,2.89,6.64,3.5,10.11l2,10.39c1.34,6.93,2.52,13.87,3.74,20.82,2.38,13.89,4.61,27.81,6.86,41.73s4.48,27.84,6.61,41.78l3.19,20.91c1,7,2.06,13.95,3,20.94l-.31.05c-1.48-6.89-2.87-13.81-4.31-20.71l-4.16-20.74c-2.76-13.83-5.38-27.68-8.08-41.52s-5.31-27.69-7.83-41.56c-1.22-6.94-2.49-13.88-3.59-20.84l-1.72-10.43c-.61-3.47-1.1-7-.17-10.71Z" style="fill:#BA68C8"></path><path d="M250.61,176.4c2.68,2.77,4,6,5.21,9.35l3.73,9.9c2.52,6.58,4.89,13.22,7.3,19.84,4.76,13.27,9.37,26.59,14,39.91s9.24,26.64,13.76,40l6.77,20c2.21,6.69,4.46,13.37,6.63,20.09l-.3.11c-2.66-6.54-5.23-13.1-7.84-19.65l-7.7-19.71C287.05,283.15,282.07,270,277,256.8s-10-26.35-14.93-39.57c-2.41-6.63-4.87-13.23-7.16-19.9l-3.5-10c-1.21-3.31-2.3-6.66-2-10.51Z" style="fill:#BA68C8"></path><path d="M250.56,176.3c3.12,2.26,5,5.25,6.75,8.3l5.4,9.1c3.63,6,7.11,12.17,10.63,18.27,7,12.25,13.85,24.57,20.72,36.88s13.73,24.63,20.5,37l10.15,18.55c3.33,6.22,6.71,12.41,10,18.64l-.27.16c-3.75-6-7.42-12-11.14-18l-11-18.07c-7.32-12-14.52-24.17-21.79-36.25s-14.46-24.2-21.57-36.38c-3.53-6.1-7.09-12.18-10.51-18.35l-5.18-9.22c-1.76-3.05-3.42-6.16-3.82-10Z" style="fill:#BA68C8"></path><path d="M250.49,176.2c3.47,1.69,5.83,4.31,8.1,7l6.89,8c4.62,5.32,9.12,10.75,13.65,16.15,9,10.85,17.9,21.79,26.81,32.72S323.73,262,332.55,273l13.21,16.52c4.37,5.54,8.77,11.05,13.1,16.62l-.24.2c-4.73-5.23-9.39-10.53-14.09-15.78l-14-15.89c-9.31-10.59-18.5-21.28-27.76-31.91s-18.45-21.33-27.56-32.08c-4.53-5.4-9.1-10.77-13.54-16.25l-6.7-8.18c-2.26-2.7-4.43-5.48-5.49-9.19Z" style="fill:#BA68C8"></path><path d="M250.41,176.12c3.72,1.06,6.49,3.24,9.19,5.5l8.18,6.7c5.48,4.44,10.85,9,16.25,13.54,10.75,9.11,21.41,18.34,32.08,27.56s21.32,18.45,31.92,27.76l15.88,14c5.26,4.69,10.55,9.35,15.78,14.09l-.2.24c-5.57-4.33-11.08-8.74-16.62-13.1l-16.51-13.21c-11-8.82-21.92-17.75-32.88-26.62s-21.87-17.79-32.71-26.8c-5.4-4.53-10.83-9-16.16-13.65l-8-6.89c-2.7-2.27-5.32-4.63-7-8.1Z" style="fill:#BA68C8"></path><path d="M250.32,176.06c3.84.4,6.95,2.05,10,3.82l9.21,5.18c6.17,3.42,12.25,7,18.35,10.51,12.18,7.1,24.28,14.34,36.38,21.57s24.21,14.46,36.26,21.79l18.06,11c6,3.71,12,7.38,18,11.14l-.16.27c-6.23-3.3-12.42-6.68-18.63-10l-18.56-10.14c-12.37-6.77-24.67-13.67-37-20.5S297.6,207,285.36,200c-6.11-3.52-12.24-7-18.28-10.64L258,183.93c-3.06-1.76-6.05-3.63-8.31-6.75Z" style="fill:#BA68C8"></path><path d="M250.22,176c3.85-.27,7.2.82,10.52,2l10,3.51c6.67,2.29,13.28,4.75,19.9,7.16,13.22,4.88,26.39,9.91,39.57,14.93s26.35,10,39.49,15.16l19.7,7.7c6.55,2.61,13.11,5.18,19.65,7.84l-.11.29c-6.71-2.16-13.39-4.41-20.09-6.62l-20-6.77c-13.36-4.52-26.66-9.18-40-13.76s-26.64-9.25-39.91-14c-6.62-2.41-13.26-4.78-19.84-7.3l-9.9-3.74c-3.31-1.2-6.58-2.52-9.35-5.2Z" style="fill:#BA68C8"></path><path d="M250.11,176c3.75-.93,7.24-.44,10.71.17l10.43,1.71c7,1.11,13.9,2.38,20.84,3.6,13.87,2.52,27.72,5.18,41.56,7.83s27.69,5.32,41.52,8.08l20.74,4.16c6.9,1.44,13.82,2.83,20.71,4.31l-.05.31c-7-1-14-2-20.94-3l-20.91-3.18c-13.94-2.13-27.85-4.41-41.78-6.61s-27.84-4.48-41.73-6.86c-6.94-1.22-13.89-2.4-20.81-3.74l-10.39-2c-3.48-.61-6.92-1.35-10.12-3.51Z" style="fill:#BA68C8"></path><path d="M250,176c3.52-1.57,7.05-1.69,10.57-1.69l10.58-.13c7-.12,14.09-.07,21.14-.07,14.1.07,28.2.29,42.29.49s28.2.43,42.29.75l21.15.49c7.05.22,14.1.39,21.15.65v.31c-7.05.27-14.1.44-21.15.65l-21.15.5c-14.09.32-28.19.49-42.29.74s-28.19.43-42.29.5c-7.05,0-14.1,0-21.14-.08L260.57,179c-3.52,0-7-.12-10.57-1.7Z" style="fill:#BA68C8"></path><path d="M249.89,176c3.2-2.16,6.64-2.89,10.12-3.5l10.39-2c6.92-1.34,13.87-2.52,20.81-3.75,13.89-2.37,27.81-4.61,41.73-6.85s27.84-4.48,41.78-6.61l20.91-3.19c7-1,13.95-2.07,20.94-3l.05.31c-6.89,1.48-13.81,2.87-20.71,4.31l-20.74,4.16c-13.83,2.76-27.68,5.38-41.52,8.07s-27.69,5.32-41.56,7.83c-6.94,1.23-13.88,2.5-20.84,3.6l-10.43,1.72c-3.47.61-7,1.1-10.71.16Z" style="fill:#BA68C8"></path><path d="M249.78,176c2.77-2.68,6-4,9.35-5.21l9.9-3.73c6.58-2.52,13.22-4.89,19.84-7.3,13.27-4.76,26.6-9.37,39.91-14s26.64-9.25,40-13.77l20-6.76c6.7-2.21,13.38-4.46,20.09-6.63l.11.3c-6.54,2.65-13.1,5.22-19.65,7.84l-19.7,7.69c-13.14,5.13-26.33,10.11-39.49,15.17s-26.35,10-39.57,14.93c-6.62,2.41-13.23,4.86-19.9,7.16l-10,3.5c-3.32,1.21-6.67,2.3-10.52,2Z" style="fill:#BA68C8"></path><path d="M249.68,176.06c2.26-3.12,5.25-5,8.31-6.76l9.09-5.39c6-3.63,12.17-7.11,18.28-10.64,12.24-7,24.56-13.84,36.87-20.71s24.63-13.73,37-20.5l18.56-10.15c6.21-3.33,12.4-6.71,18.63-10l.16.27c-6,3.75-12,7.42-18,11.14l-18.06,11c-12,7.32-24.18,14.52-36.26,21.79s-24.2,14.46-36.38,21.57c-6.1,3.52-12.18,7.09-18.35,10.51l-9.21,5.18c-3.06,1.76-6.17,3.42-10,3.82Z" style="fill:#BA68C8"></path><path d="M249.58,176.12c1.69-3.47,4.31-5.83,7-8.09l8-6.89c5.33-4.62,10.76-9.12,16.16-13.65,10.84-9,21.78-17.9,32.71-26.81s21.87-17.79,32.88-26.61l16.51-13.21c5.54-4.37,11.05-8.77,16.62-13.1l.2.24c-5.23,4.73-10.52,9.39-15.78,14.09L348,96.06c-10.6,9.31-21.29,18.5-31.92,27.76S294.78,142.26,284,151.38c-5.4,4.53-10.77,9.1-16.25,13.53l-8.18,6.7c-2.7,2.27-5.47,4.44-9.19,5.5Z" style="fill:#BA68C8"></path><path d="M249.51,176.2c1.06-3.71,3.23-6.49,5.49-9.19l6.7-8.17c4.44-5.48,9-10.85,13.54-16.25,9.11-10.75,18.34-21.41,27.56-32.08s18.45-21.33,27.76-31.92l14-15.88c4.7-5.26,9.36-10.55,14.09-15.78l.24.2c-4.33,5.57-8.73,11.08-13.1,16.62L332.55,80.26c-8.82,11-17.75,21.92-26.61,32.88s-17.8,21.87-26.81,32.71c-4.53,5.4-9,10.83-13.65,16.15l-6.89,8c-2.27,2.7-4.63,5.32-8.1,7Z" style="fill:#BA68C8"></path><path d="M249.44,176.3c.4-3.84,2.06-7,3.82-10l5.18-9.22c3.42-6.16,7-12.24,10.51-18.35,7.11-12.17,14.35-24.27,21.57-36.38S305,78.14,312.31,66.09l11-18.06c3.72-6,7.39-12,11.14-18l.27.15c-3.3,6.24-6.68,12.43-10,18.64L314.56,67.39c-6.77,12.37-13.67,24.66-20.5,37S280.33,129,273.34,141.26c-3.52,6.11-7,12.23-10.63,18.28l-5.4,9.09c-1.76,3.05-3.63,6-6.75,8.31Z" style="fill:#BA68C8"></path><path d="M249.39,176.4c-.27-3.85.82-7.21,2-10.52l3.5-10c2.29-6.66,4.75-13.27,7.16-19.89C267,122.79,272,109.61,277,96.44s10-26.35,15.16-39.49l7.7-19.7c2.61-6.55,5.18-13.12,7.84-19.65l.3.11c-2.17,6.71-4.42,13.39-6.63,20.09l-6.77,20c-4.52,13.36-9.18,26.66-13.76,40s-9.24,26.63-14,39.91c-2.41,6.62-4.78,13.26-7.3,19.84l-3.73,9.89c-1.21,3.32-2.53,6.58-5.21,9.36Z" style="fill:#BA68C8"></path><path d="M249.36,176.51c-.93-3.75-.44-7.24.17-10.71l1.72-10.43c1.1-7,2.37-13.9,3.59-20.84,2.52-13.87,5.19-27.72,7.83-41.56s5.32-27.7,8.08-41.52l4.16-20.74c1.44-6.91,2.83-13.82,4.31-20.71l.31.05c-1,7-2,14-3,20.94L273.31,51.9c-2.13,13.94-4.41,27.85-6.61,41.78s-4.48,27.84-6.86,41.73c-1.22,6.94-2.4,13.89-3.74,20.81l-2,10.39c-.61,3.47-1.34,6.92-3.5,10.12Z" style="fill:#BA68C8"></path><g style="opacity:0.75"><path d="M249.35,176.62c-1.57-3.53-1.69-7.05-1.69-10.57l-.12-10.58c-.12-7.05-.08-14.09-.08-21.14.07-14.1.29-28.2.49-42.29s.43-28.2.75-42.3l.5-21.14c.21-7,.38-14.1.64-21.15h.32c.26,7.05.43,14.1.64,21.15l.5,21.14c.32,14.1.49,28.2.75,42.3s.42,28.19.49,42.29c0,7,0,14.09-.08,21.14l-.12,10.58c0,3.52-.12,7-1.69,10.57Z" style="fill:#fff"></path><path d="M249.36,176.73c-2.16-3.2-2.89-6.65-3.5-10.12l-2-10.39c-1.34-6.92-2.52-13.87-3.74-20.81-2.38-13.89-4.61-27.82-6.86-41.73s-4.48-27.84-6.61-41.78L223.5,31c-1-7-2.06-13.95-3-20.94l.31-.05c1.48,6.89,2.87,13.8,4.31,20.71l4.16,20.74C232,65.27,234.63,79.13,237.33,93s5.31,27.69,7.83,41.56c1.22,6.94,2.49,13.87,3.59,20.84l1.72,10.43c.61,3.47,1.1,7,.17,10.71Z" style="fill:#fff"></path><path d="M249.39,176.84c-2.68-2.78-4-6-5.21-9.36l-3.73-9.89c-2.52-6.58-4.89-13.22-7.3-19.84-4.76-13.28-9.37-26.6-14-39.91s-9.24-26.64-13.76-40l-6.77-20c-2.21-6.7-4.46-13.38-6.63-20.09l.3-.11c2.66,6.53,5.23,13.1,7.84,19.65l7.7,19.7C213,70.09,217.93,83.28,223,96.44s10,26.35,14.93,39.57c2.41,6.62,4.87,13.23,7.16,19.89l3.5,10c1.21,3.31,2.3,6.67,2,10.52Z" style="fill:#fff"></path><path d="M249.44,176.94c-3.12-2.27-5-5.26-6.75-8.31l-5.4-9.09c-3.63-6-7.11-12.17-10.63-18.28-7-12.24-13.85-24.56-20.72-36.87s-13.73-24.63-20.5-37L175.29,48.83c-3.33-6.21-6.71-12.4-10-18.64l.27-.15c3.75,6,7.42,12,11.14,18l11,18.06c7.32,12,14.52,24.17,21.79,36.25s14.46,24.21,21.57,36.38c3.53,6.11,7.09,12.19,10.51,18.35l5.18,9.22c1.76,3.05,3.42,6.17,3.82,10Z" style="fill:#fff"></path><path d="M249.51,177c-3.47-1.69-5.83-4.31-8.1-7l-6.89-8c-4.62-5.32-9.12-10.75-13.65-16.15-9-10.84-17.9-21.78-26.81-32.71s-17.79-21.87-26.61-32.88L154.24,63.75c-4.37-5.54-8.77-11-13.1-16.62l.24-.2c4.73,5.23,9.39,10.52,14.09,15.78l14,15.88c9.31,10.59,18.5,21.28,27.76,31.92s18.45,21.33,27.56,32.08c4.53,5.4,9.1,10.77,13.54,16.25L245,167c2.26,2.7,4.43,5.48,5.49,9.19Z" style="fill:#fff"></path><path d="M249.58,177.11c-3.71-1.06-6.48-3.23-9.18-5.5l-8.18-6.7c-5.48-4.43-10.85-9-16.25-13.53-10.75-9.12-21.41-18.35-32.08-27.56S162.57,105.37,152,96.06l-15.88-14c-5.26-4.7-10.55-9.36-15.78-14.09l.2-.24c5.57,4.33,11.08,8.73,16.62,13.1l16.51,13.21c11,8.82,21.92,17.75,32.88,26.61s21.87,17.8,32.71,26.81c5.4,4.53,10.83,9,16.16,13.65l8,6.89c2.7,2.26,5.32,4.62,7,8.09Z" style="fill:#fff"></path><path d="M249.68,177.18c-3.84-.4-7-2.06-10-3.82l-9.21-5.18c-6.17-3.42-12.25-7-18.35-10.51-12.18-7.11-24.28-14.35-36.38-21.57s-24.21-14.47-36.26-21.79l-18.06-11c-6-3.72-12-7.39-18-11.14l.16-.27c6.23,3.3,12.42,6.68,18.63,10l18.56,10.15c12.37,6.77,24.67,13.67,37,20.5s24.63,13.73,36.87,20.71c6.11,3.53,12.24,7,18.28,10.64L242,169.3c3.06,1.77,6.05,3.64,8.31,6.76Z" style="fill:#fff"></path><path d="M249.78,177.23c-3.85.27-7.2-.82-10.52-2l-10-3.5c-6.67-2.3-13.28-4.75-19.9-7.16-13.22-4.89-26.39-9.92-39.57-14.93s-26.35-10-39.49-15.17l-19.7-7.69c-6.55-2.62-13.11-5.19-19.65-7.84l.11-.3c6.71,2.17,13.39,4.42,20.09,6.63l20,6.76c13.36,4.52,26.66,9.18,40,13.77s26.64,9.24,39.91,14c6.62,2.41,13.26,4.78,19.84,7.3l9.9,3.73c3.31,1.21,6.58,2.53,9.35,5.21Z" style="fill:#fff"></path><path d="M249.89,177.25c-3.75.94-7.24.45-10.71-.16l-10.43-1.72c-7-1.1-13.9-2.37-20.84-3.6-13.87-2.51-27.72-5.18-41.56-7.83s-27.7-5.31-41.52-8.07l-20.74-4.16c-6.9-1.44-13.82-2.83-20.71-4.31l.05-.31c7,1,14,2,20.94,3l20.91,3.19c13.94,2.13,27.85,4.41,41.78,6.61s27.84,4.48,41.73,6.85c6.94,1.23,13.89,2.41,20.81,3.75l10.39,2c3.48.61,6.92,1.34,10.12,3.5Z" style="fill:#fff"></path><path d="M250,177.26c-3.52,1.58-7.05,1.7-10.57,1.7l-10.58.12c-7,.12-14.09.08-21.14.08-14.1-.07-28.2-.29-42.29-.5s-28.2-.42-42.29-.74l-21.15-.5c-7-.21-14.1-.38-21.15-.65v-.31c7-.26,14.1-.43,21.15-.65l21.15-.49c14.09-.32,28.19-.49,42.29-.75s28.19-.42,42.29-.49c7,0,14.1-.05,21.14.07l10.58.13c3.52,0,7,.12,10.57,1.69Z" style="fill:#fff"></path><path d="M250.11,177.25c-3.2,2.16-6.64,2.9-10.12,3.51l-10.39,2c-6.92,1.34-13.87,2.52-20.81,3.74-13.89,2.38-27.81,4.61-41.73,6.86s-27.84,4.48-41.78,6.61l-20.91,3.18c-7,1-14,2.07-20.94,3l-.05-.31c6.89-1.48,13.81-2.87,20.71-4.31l20.74-4.16c13.82-2.76,27.68-5.38,41.52-8.08S194,184,207.91,181.46c6.94-1.22,13.88-2.49,20.84-3.6l10.43-1.71c3.47-.61,7-1.1,10.71-.17Z" style="fill:#fff"></path><path d="M250.22,177.23c-2.77,2.68-6,4-9.35,5.2l-9.9,3.74c-6.58,2.52-13.22,4.89-19.84,7.3-13.27,4.75-26.6,9.37-39.91,14s-26.64,9.24-40,13.76l-20,6.77c-6.7,2.21-13.38,4.46-20.09,6.62l-.11-.29c6.54-2.66,13.1-5.23,19.65-7.84l19.7-7.7c13.14-5.12,26.33-10.1,39.49-15.16s26.35-10,39.57-14.93c6.62-2.41,13.23-4.87,19.9-7.16l10-3.51c3.32-1.2,6.67-2.29,10.52-2Z" style="fill:#fff"></path><path d="M250.32,177.18c-2.26,3.12-5.25,5-8.31,6.75l-9.09,5.39c-6,3.63-12.17,7.12-18.28,10.64-12.24,7-24.56,13.85-36.87,20.72s-24.63,13.73-37,20.5l-18.56,10.14c-6.21,3.34-12.4,6.72-18.63,10l-.16-.27c6-3.76,12-7.43,18-11.14l18.06-11c12.05-7.33,24.18-14.52,36.26-21.79s24.2-14.47,36.38-21.57c6.1-3.53,12.18-7.09,18.35-10.51l9.21-5.18c3.06-1.77,6.17-3.42,10-3.82Z" style="fill:#fff"></path><path d="M250.41,177.11c-1.68,3.47-4.3,5.83-7,8.1l-8,6.89c-5.33,4.62-10.76,9.12-16.16,13.65-10.84,9-21.78,17.9-32.71,26.8s-21.87,17.8-32.88,26.62l-16.51,13.21c-5.54,4.36-11,8.77-16.62,13.1l-.2-.24c5.23-4.74,10.52-9.4,15.78-14.09l15.88-14c10.6-9.31,21.29-18.5,31.92-27.76S205.22,211,216,201.86c5.4-4.53,10.77-9.1,16.25-13.54l8.18-6.7c2.7-2.26,5.47-4.44,9.18-5.5Z" style="fill:#fff"></path><path d="M250.49,177c-1.06,3.71-3.23,6.49-5.49,9.19l-6.7,8.18c-4.44,5.48-9,10.85-13.54,16.25-9.11,10.75-18.35,21.41-27.56,32.08s-18.45,21.32-27.76,31.91l-14,15.89c-4.7,5.25-9.36,10.55-14.09,15.78l-.24-.2c4.33-5.57,8.73-11.08,13.1-16.62L167.45,273c8.82-11,17.75-21.91,26.61-32.87s17.8-21.87,26.81-32.72c4.53-5.4,9-10.83,13.65-16.15l6.89-8c2.27-2.7,4.63-5.32,8.1-7Z" style="fill:#fff"></path><path d="M250.56,176.94c-.4,3.84-2.06,6.95-3.82,10l-5.18,9.22c-3.42,6.17-7,12.25-10.51,18.35-7.11,12.18-14.35,24.27-21.57,36.38S195,275.1,187.69,287.14l-11,18.07c-3.72,6-7.39,12-11.14,18l-.27-.16c3.3-6.23,6.68-12.42,10-18.64l10.15-18.55c6.77-12.37,13.67-24.67,20.5-37s13.73-24.63,20.72-36.88c3.52-6.1,7-12.23,10.63-18.27l5.4-9.1c1.76-3,3.63-6,6.75-8.3Z" style="fill:#fff"></path><path d="M250.61,176.84c.27,3.85-.82,7.2-2,10.51l-3.5,10c-2.29,6.67-4.75,13.27-7.16,19.9C233,230.45,228,243.62,223,256.8s-10,26.35-15.16,39.48L200.13,316c-2.61,6.55-5.18,13.11-7.84,19.65l-.3-.11c2.17-6.72,4.42-13.4,6.63-20.09l6.77-20c4.52-13.36,9.18-26.67,13.76-40s9.24-26.64,14-39.91c2.41-6.62,4.78-13.26,7.3-19.84l3.73-9.9c1.21-3.31,2.53-6.58,5.21-9.35Z" style="fill:#fff"></path><path d="M250.64,176.73c.93,3.74.44,7.24-.17,10.71l-1.72,10.43c-1.1,7-2.37,13.9-3.59,20.84-2.52,13.87-5.19,27.71-7.83,41.56S232,288,229.25,301.79l-4.16,20.74c-1.44,6.9-2.83,13.82-4.31,20.71l-.31-.05c1-7,2-14,3-20.94l3.19-20.91c2.13-13.94,4.41-27.85,6.61-41.78s4.48-27.84,6.86-41.73c1.22-7,2.4-13.89,3.74-20.82l2-10.39c.61-3.47,1.34-6.92,3.5-10.11Z" style="fill:#fff"></path><path d="M250.65,176.62c1.57,3.52,1.69,7,1.69,10.57l.12,10.57c.12,7.05.08,14.1.08,21.15-.07,14.1-.29,28.19-.49,42.29s-.43,28.2-.75,42.29l-.5,21.15c-.21,7.05-.38,14.1-.64,21.14h-.32c-.26-7-.43-14.09-.64-21.14l-.5-21.15c-.32-14.09-.49-28.19-.75-42.29s-.42-28.19-.49-42.29c0-7,0-14.1.08-21.15l.12-10.57c0-3.52.12-7.05,1.69-10.57Z" style="fill:#fff"></path><path d="M250.64,176.51c2.16,3.19,2.89,6.64,3.5,10.11l2,10.39c1.34,6.93,2.52,13.87,3.74,20.82,2.38,13.89,4.61,27.81,6.86,41.73s4.48,27.84,6.61,41.78l3.19,20.91c1,7,2.06,13.95,3,20.94l-.31.05c-1.48-6.89-2.87-13.81-4.31-20.71l-4.16-20.74c-2.76-13.83-5.38-27.68-8.08-41.52s-5.31-27.69-7.83-41.56c-1.22-6.94-2.49-13.88-3.59-20.84l-1.72-10.43c-.61-3.47-1.1-7-.17-10.71Z" style="fill:#fff"></path><path d="M250.61,176.4c2.68,2.77,4,6,5.21,9.35l3.73,9.9c2.52,6.58,4.89,13.22,7.3,19.84,4.76,13.27,9.37,26.59,14,39.91s9.24,26.64,13.76,40l6.77,20c2.21,6.69,4.46,13.37,6.63,20.09l-.3.11c-2.66-6.54-5.23-13.1-7.84-19.65l-7.7-19.71C287.05,283.15,282.07,270,277,256.8s-10-26.35-14.93-39.57c-2.41-6.63-4.87-13.23-7.16-19.9l-3.5-10c-1.21-3.31-2.3-6.66-2-10.51Z" style="fill:#fff"></path><path d="M250.56,176.3c3.12,2.26,5,5.25,6.75,8.3l5.4,9.1c3.63,6,7.11,12.17,10.63,18.27,7,12.25,13.85,24.57,20.72,36.88s13.73,24.63,20.5,37l10.15,18.55c3.33,6.22,6.71,12.41,10,18.64l-.27.16c-3.75-6-7.42-12-11.14-18l-11-18.07c-7.32-12-14.52-24.17-21.79-36.25s-14.46-24.2-21.57-36.38c-3.53-6.1-7.09-12.18-10.51-18.35l-5.18-9.22c-1.76-3.05-3.42-6.16-3.82-10Z" style="fill:#fff"></path><path d="M250.49,176.2c3.47,1.69,5.83,4.31,8.1,7l6.89,8c4.62,5.32,9.12,10.75,13.65,16.15,9,10.85,17.9,21.79,26.81,32.72S323.73,262,332.55,273l13.21,16.52c4.37,5.54,8.77,11.05,13.1,16.62l-.24.2c-4.73-5.23-9.39-10.53-14.09-15.78l-14-15.89c-9.31-10.59-18.5-21.28-27.76-31.91s-18.45-21.33-27.56-32.08c-4.53-5.4-9.1-10.77-13.54-16.25l-6.7-8.18c-2.26-2.7-4.43-5.48-5.49-9.19Z" style="fill:#fff"></path><path d="M250.41,176.12c3.72,1.06,6.49,3.24,9.19,5.5l8.18,6.7c5.48,4.44,10.85,9,16.25,13.54,10.75,9.11,21.41,18.34,32.08,27.56s21.32,18.45,31.92,27.76l15.88,14c5.26,4.69,10.55,9.35,15.78,14.09l-.2.24c-5.57-4.33-11.08-8.74-16.62-13.1l-16.51-13.21c-11-8.82-21.92-17.75-32.88-26.62s-21.87-17.79-32.71-26.8c-5.4-4.53-10.83-9-16.16-13.65l-8-6.89c-2.7-2.27-5.32-4.63-7-8.1Z" style="fill:#fff"></path><path d="M250.32,176.06c3.84.4,6.95,2.05,10,3.82l9.21,5.18c6.17,3.42,12.25,7,18.35,10.51,12.18,7.1,24.28,14.34,36.38,21.57s24.21,14.46,36.26,21.79l18.06,11c6,3.71,12,7.38,18,11.14l-.16.27c-6.23-3.3-12.42-6.68-18.63-10l-18.56-10.14c-12.37-6.77-24.67-13.67-37-20.5S297.6,207,285.36,200c-6.11-3.52-12.24-7-18.28-10.64L258,183.93c-3.06-1.76-6.05-3.63-8.31-6.75Z" style="fill:#fff"></path><path d="M250.22,176c3.85-.27,7.2.82,10.52,2l10,3.51c6.67,2.29,13.28,4.75,19.9,7.16,13.22,4.88,26.39,9.91,39.57,14.93s26.35,10,39.49,15.16l19.7,7.7c6.55,2.61,13.11,5.18,19.65,7.84l-.11.29c-6.71-2.16-13.39-4.41-20.09-6.62l-20-6.77c-13.36-4.52-26.66-9.18-40-13.76s-26.64-9.25-39.91-14c-6.62-2.41-13.26-4.78-19.84-7.3l-9.9-3.74c-3.31-1.2-6.58-2.52-9.35-5.2Z" style="fill:#fff"></path><path d="M250.11,176c3.75-.93,7.24-.44,10.71.17l10.43,1.71c7,1.11,13.9,2.38,20.84,3.6,13.87,2.52,27.72,5.18,41.56,7.83s27.69,5.32,41.52,8.08l20.74,4.16c6.9,1.44,13.82,2.83,20.71,4.31l-.05.31c-7-1-14-2-20.94-3l-20.91-3.18c-13.94-2.13-27.85-4.41-41.78-6.61s-27.84-4.48-41.73-6.86c-6.94-1.22-13.89-2.4-20.81-3.74l-10.39-2c-3.48-.61-6.92-1.35-10.12-3.51Z" style="fill:#fff"></path><path d="M250,176c3.52-1.57,7.05-1.69,10.57-1.69l10.58-.13c7-.12,14.09-.07,21.14-.07,14.1.07,28.2.29,42.29.49s28.2.43,42.29.75l21.15.49c7.05.22,14.1.39,21.15.65v.31c-7.05.27-14.1.44-21.15.65l-21.15.5c-14.09.32-28.19.49-42.29.74s-28.19.43-42.29.5c-7.05,0-14.1,0-21.14-.08L260.57,179c-3.52,0-7-.12-10.57-1.7Z" style="fill:#fff"></path><path d="M249.89,176c3.2-2.16,6.64-2.89,10.12-3.5l10.39-2c6.92-1.34,13.87-2.52,20.81-3.75,13.89-2.37,27.81-4.61,41.73-6.85s27.84-4.48,41.78-6.61l20.91-3.19c7-1,13.95-2.07,20.94-3l.05.31c-6.89,1.48-13.81,2.87-20.71,4.31l-20.74,4.16c-13.83,2.76-27.68,5.38-41.52,8.07s-27.69,5.32-41.56,7.83c-6.94,1.23-13.88,2.5-20.84,3.6l-10.43,1.72c-3.47.61-7,1.1-10.71.16Z" style="fill:#fff"></path><path d="M249.78,176c2.77-2.68,6-4,9.35-5.21l9.9-3.73c6.58-2.52,13.22-4.89,19.84-7.3,13.27-4.76,26.6-9.37,39.91-14s26.64-9.25,40-13.77l20-6.76c6.7-2.21,13.38-4.46,20.09-6.63l.11.3c-6.54,2.65-13.1,5.22-19.65,7.84l-19.7,7.69c-13.14,5.13-26.33,10.11-39.49,15.17s-26.35,10-39.57,14.93c-6.62,2.41-13.23,4.86-19.9,7.16l-10,3.5c-3.32,1.21-6.67,2.3-10.52,2Z" style="fill:#fff"></path><path d="M249.68,176.06c2.26-3.12,5.25-5,8.31-6.76l9.09-5.39c6-3.63,12.17-7.11,18.28-10.64,12.24-7,24.56-13.84,36.87-20.71s24.63-13.73,37-20.5l18.56-10.15c6.21-3.33,12.4-6.71,18.63-10l.16.27c-6,3.75-12,7.42-18,11.14l-18.06,11c-12,7.32-24.18,14.52-36.26,21.79s-24.2,14.46-36.38,21.57c-6.1,3.52-12.18,7.09-18.35,10.51l-9.21,5.18c-3.06,1.76-6.17,3.42-10,3.82Z" style="fill:#fff"></path><path d="M249.58,176.12c1.69-3.47,4.31-5.83,7-8.09l8-6.89c5.33-4.62,10.76-9.12,16.16-13.65,10.84-9,21.78-17.9,32.71-26.81s21.87-17.79,32.88-26.61l16.51-13.21c5.54-4.37,11.05-8.77,16.62-13.1l.2.24c-5.23,4.73-10.52,9.39-15.78,14.09L348,96.06c-10.6,9.31-21.29,18.5-31.92,27.76S294.78,142.26,284,151.38c-5.4,4.53-10.77,9.1-16.25,13.53l-8.18,6.7c-2.7,2.27-5.47,4.44-9.19,5.5Z" style="fill:#fff"></path><path d="M249.51,176.2c1.06-3.71,3.23-6.49,5.49-9.19l6.7-8.17c4.44-5.48,9-10.85,13.54-16.25,9.11-10.75,18.34-21.41,27.56-32.08s18.45-21.33,27.76-31.92l14-15.88c4.7-5.26,9.36-10.55,14.09-15.78l.24.2c-4.33,5.57-8.73,11.08-13.1,16.62L332.55,80.26c-8.82,11-17.75,21.92-26.61,32.88s-17.8,21.87-26.81,32.71c-4.53,5.4-9,10.83-13.65,16.15l-6.89,8c-2.27,2.7-4.63,5.32-8.1,7Z" style="fill:#fff"></path><path d="M249.44,176.3c.4-3.84,2.06-7,3.82-10l5.18-9.22c3.42-6.16,7-12.24,10.51-18.35,7.11-12.17,14.35-24.27,21.57-36.38S305,78.14,312.31,66.09l11-18.06c3.72-6,7.39-12,11.14-18l.27.15c-3.3,6.24-6.68,12.43-10,18.64L314.56,67.39c-6.77,12.37-13.67,24.66-20.5,37S280.33,129,273.34,141.26c-3.52,6.11-7,12.23-10.63,18.28l-5.4,9.09c-1.76,3.05-3.63,6-6.75,8.31Z" style="fill:#fff"></path><path d="M249.39,176.4c-.27-3.85.82-7.21,2-10.52l3.5-10c2.29-6.66,4.75-13.27,7.16-19.89C267,122.79,272,109.61,277,96.44s10-26.35,15.16-39.49l7.7-19.7c2.61-6.55,5.18-13.12,7.84-19.65l.3.11c-2.17,6.71-4.42,13.39-6.63,20.09l-6.77,20c-4.52,13.36-9.18,26.66-13.76,40s-9.24,26.63-14,39.91c-2.41,6.62-4.78,13.26-7.3,19.84l-3.73,9.89c-1.21,3.32-2.53,6.58-5.21,9.36Z" style="fill:#fff"></path><path d="M249.36,176.51c-.93-3.75-.44-7.24.17-10.71l1.72-10.43c1.1-7,2.37-13.9,3.59-20.84,2.52-13.87,5.19-27.72,7.83-41.56s5.32-27.7,8.08-41.52l4.16-20.74c1.44-6.91,2.83-13.82,4.31-20.71l.31.05c-1,7-2,14-3,20.94L273.31,51.9c-2.13,13.94-4.41,27.85-6.61,41.78s-4.48,27.84-6.86,41.73c-1.22,6.94-2.4,13.89-3.74,20.81l-2,10.39c-.61,3.47-1.34,6.92-3.5,10.12Z" style="fill:#fff"></path></g></g></g><g id="freepik--Plants--inject-176"><g id="freepik--plants--inject-176"><g id="freepik--Leaves--inject-176"><path d="M352.37,380.3s2-7.48,11.18-13.06c7.38-4.47,12.38-3.89,12.71-3s-1.95,3.87-10.12,9C362.74,375.29,352.37,380.3,352.37,380.3Z" style="fill:#BA68C8"></path><path d="M340.86,393c.51-.73,7.08-6.36,15.47-10.08,4.46-2,7.33-1.67,7.34-.58,0,.64-2.31,3.63-9.1,6.62S340.35,393.72,340.86,393Z" style="fill:#BA68C8"></path><path d="M346.93,385.48c.65-.65,1.75-3.54,2.73-8.6.66-3.42,1.69-7.36.65-7.83S346.38,372,345.6,376,346.27,386.12,346.93,385.48Z" style="fill:#BA68C8"></path><path d="M336.67,398.3c.66-.82,1.45-6.87,1.79-9.65s.18-6.07-1-6.94-3.22,2.4-3.42,7.14S336,399.12,336.67,398.3Z" style="fill:#BA68C8"></path><path d="M333.22,404.86c.11-.84,4.32-3.85,8.58-6.35s9.92-4.43,10-2.65-2.54,4.18-7.28,6.36C339.29,404.63,333.11,405.69,333.22,404.86Z" style="fill:#BA68C8"></path><path d="M371.36,366.23a93.86,93.86,0,0,0-16.42,11.19,111,111,0,0,0-14,14.15,68.82,68.82,0,0,0-10.63,16.92,55.38,55.38,0,0,0-2.68,6.77c-.72,2.74-1.66,6.17-1,6.24a1.21,1.21,0,0,0,.6-.09c.37-.26.78-2.39,2-6.2a58.42,58.42,0,0,1,2.33-6.15,82.21,82.21,0,0,1,10.21-16.76A109.68,109.68,0,0,1,355.41,378a92.41,92.41,0,0,1,16-11.61.1.1,0,0,0,0-.1A.07.07,0,0,0,371.36,366.23Z" style="fill:#37474f"></path></g><g id="freepik--leaves--inject-176"><path d="M363.61,398.57s5.05-5.85,15.78-6.81c8.6-.76,12.84,1.95,12.76,2.86s-3.46,2.62-13,3.61C375.12,398.63,363.61,398.57,363.61,398.57Z" style="fill:#BA68C8"></path><path d="M347.69,404.92c.78-.43,9.15-2.6,18.32-2.25,4.88.19,7.32,1.73,6.85,2.71-.27.58-3.66,2.24-11.09,1.94S346.91,405.35,347.69,404.92Z" style="fill:#BA68C8"></path><path d="M356.44,400.83c.87-.29,3.13-2.41,6.24-6.52,2.1-2.78,4.75-5.86,4-6.74s-4.82.92-7.26,4.13S355.57,401.12,356.44,400.83Z" style="fill:#BA68C8"></path><path d="M335.61,412.21c.46-.7,5.58-1.55,10.5-1.93s10.86.39,10.17,2-4.12,2.63-9.34,2.5C341.16,414.68,335.14,412.91,335.61,412.21Z" style="fill:#BA68C8"></path><path d="M386.85,394.29a92.9,92.9,0,0,0-19.67,2.84,109.46,109.46,0,0,0-18.82,6.53,68.94,68.94,0,0,0-17,10.52c-.87.77-1.77,1.5-2.65,2.26a5.27,5.27,0,0,0-1.09,1.07,3.25,3.25,0,0,0-.51,1.23,1,1,0,0,0,0,.57.5.5,0,0,0,.42.29c.17,0,.29-.21.41-.32q.48-.5,1-1c.66-.65,1.34-1.28,2-1.9q.63-.57,1.29-1.11a82.13,82.13,0,0,1,16.54-10.57,109.25,109.25,0,0,1,18.52-6.89,93.28,93.28,0,0,1,19.49-3.39.07.07,0,0,0,.07-.07A.08.08,0,0,0,386.85,394.29Z" style="fill:#37474f"></path></g><g id="freepik--leaves--inject-176"><path d="M155,380.64s-2.07-7.45-11.35-12.9c-7.45-4.38-12.44-3.73-12.76-2.88s2,3.85,10.24,8.84C144.55,375.77,155,380.64,155,380.64Z" style="fill:#BA68C8"></path><path d="M166.66,393.19c-.52-.72-7.16-6.27-15.59-9.87-4.5-1.92-7.36-1.57-7.36-.48,0,.64,2.36,3.59,9.19,6.5S167.18,393.91,166.66,393.19Z" style="fill:#BA68C8"></path><path d="M160.5,385.75c-.66-.64-1.8-3.52-2.85-8.56-.7-3.41-1.79-7.33-.75-7.82s4,2.9,4.8,6.85S161.16,386.39,160.5,385.75Z" style="fill:#BA68C8"></path><path d="M170.92,398.43c-.67-.81-1.54-6.84-1.92-9.62s-.26-6.07.91-6.95,3.24,2.36,3.51,7.09S171.59,399.25,170.92,398.43Z" style="fill:#BA68C8"></path><path d="M174.46,404.94c-.11-.83-4.37-3.78-8.66-6.23s-10-4.3-10.07-2.51,2.6,4.14,7.37,6.26C168.39,404.8,174.58,405.78,174.46,404.94Z" style="fill:#BA68C8"></path><path d="M135.81,366.83a93.5,93.5,0,0,1,16.57,11,110.32,110.32,0,0,1,14.21,14,68.33,68.33,0,0,1,10.86,16.77,55.36,55.36,0,0,1,2.77,6.73c.76,2.73,1.74,6.15,1,6.23a1.35,1.35,0,0,1-.6-.08c-.37-.25-.81-2.38-2.1-6.18a58.34,58.34,0,0,0-2.42-6.11A81.3,81.3,0,0,0,165.7,392.5a109,109,0,0,0-13.79-14.14A93,93,0,0,0,135.75,367a.07.07,0,0,1,0-.1A.06.06,0,0,1,135.81,366.83Z" style="fill:#37474f"></path></g><g id="freepik--leaves--inject-176"><path d="M144,399.06s-5.13-5.77-15.87-6.59c-8.61-.66-12.81,2.12-12.72,3s3.5,2.57,13.08,3.42C132.48,399.28,144,399.06,144,399.06Z" style="fill:#BA68C8"></path><path d="M160,405.2c-.78-.42-9.18-2.48-18.34-2-4.89.26-7.3,1.83-6.82,2.81.28.57,3.7,2.19,11.11,1.79S160.78,405.62,160,405.2Z" style="fill:#BA68C8"></path><path d="M151.19,401.23c-.88-.28-3.17-2.37-6.32-6.44-2.14-2.75-4.84-5.79-4.12-6.69s4.84.86,7.32,4S152.06,401.51,151.19,401.23Z" style="fill:#BA68C8"></path><path d="M172.17,412.33c-.47-.7-5.6-1.48-10.52-1.79s-10.86.53-10.15,2.17,4.16,2.58,9.37,2.38C166.65,414.87,172.65,413,172.17,412.33Z" style="fill:#BA68C8"></path><path d="M120.69,395.09a93,93,0,0,1,19.71,2.58A109.68,109.68,0,0,1,159.3,404a68.63,68.63,0,0,1,17.13,10.29c.89.76,1.8,1.48,2.69,2.23a5.23,5.23,0,0,1,1.1,1,3.31,3.31,0,0,1,.53,1.22,1,1,0,0,1,0,.58.5.5,0,0,1-.42.29c-.17,0-.3-.2-.41-.31l-1-1c-.67-.64-1.36-1.27-2.06-1.88-.43-.37-.87-.73-1.31-1.09A82,82,0,0,0,158.83,405a109.24,109.24,0,0,0-18.6-6.64,92.38,92.38,0,0,0-19.54-3.13.08.08,0,0,1-.07-.08A.08.08,0,0,1,120.69,395.09Z" style="fill:#37474f"></path></g></g></g><g id="freepik--Shadow--inject-176"><ellipse id="freepik--shadow--inject-176" cx="255.02" cy="424.85" rx="78.09" ry="45.09" style="fill:#e0e0e0"></ellipse></g><g id="freepik--character-1--inject-176"><g id="freepik--character--inject-176"><g id="freepik--bottom--inject-176"><path d="M285.65,389.48c.21-5.46,3.25-65.75,3.25-65.75l-26.67,19.9c4.16,31.46,5.9,45.93,6.2,51.17h0a4.32,4.32,0,0,0-.09,1.35c.26,6.22,7.52,9.32,13.25,13.27A104,104,0,0,0,297,418.55c4.12,1.85,12.34,1.74,13.26-.86-7-4.85-15-10.13-20.63-15.75C287,399.26,285.39,396,285.65,389.48Z" style="fill:#b16668"></path><path d="M318.39,424.05c.33,0,.95,3.74-.75,5.41-2,1.92-7.83,5.18-15.76,4.4s-12.3-3.2-15.56-5.87-7.83-6.43-11.43-7.13c-3.35-.64-7-2.09-8.11-3.13s-1.13-5.85-1.13-5.85Z" style="fill:#263238"></path><path d="M268.33,393.28s-.86,0-1,1.11c-.19,1.33-.42,5.21-.86,7.4-.62,3-1.1,9.29-.58,11.74s6,4,9.5,5.21,7.77,4.05,11.47,7,11.75,6,16.89,5.91c7.86-.17,12.86-2.6,14.32-5.63,1.81-3.75,1.12-6.34-8.07-10.41a106.08,106.08,0,0,1-10.24-5.85,31,31,0,0,1-11.89-14.18,3.56,3.56,0,0,0-1.37-1.94,2.78,2.78,0,0,0-1.76-.1c-1.49.28-5.82,1-7.17,1.75-1.18.65-2.88,1.42-2.79,3.06a5.87,5.87,0,0,0,.4,1.64c.12.33.22.77,0,1s-.61,0-.85-.21a25.29,25.29,0,0,1-2.55-3,9,9,0,0,0-1.48-1.48,15.06,15.06,0,0,1-1.58-1A20.27,20.27,0,0,1,268.33,393.28Z" style="fill:#455a64"></path><path d="M310.23,415.63c-11.34,1.25-16.08,9-14.64,14.57a25.53,25.53,0,0,0,8.13,1.48c7.86-.17,13.19-2.61,14.65-5.64C320.07,422.5,318.41,418.56,310.23,415.63Z" style="fill:#fafafa"></path><path d="M294.79,417.33a.51.51,0,0,1-.35-.11.61.61,0,0,1-.11-.83c1.5-2.1,6-5,10.12-4.65a.59.59,0,0,1,.52.63.56.56,0,0,1-.6.54c-3.87-.29-8,2.53-9.16,4.19A.51.51,0,0,1,294.79,417.33Z" style="fill:#f0f0f0"></path><path d="M290.21,414.47a.6.6,0,0,1-.36-.12.62.62,0,0,1-.11-.82c1.51-2.1,6-5,10.12-4.65a.57.57,0,0,1,.52.62.55.55,0,0,1-.59.54c-3.87-.29-8,2.53-9.16,4.2A.56.56,0,0,1,290.21,414.47Z" style="fill:#f0f0f0"></path><path d="M285.68,410.8a.54.54,0,0,1-.36-.12.62.62,0,0,1-.11-.82c1.51-2.1,6-5,10.12-4.65a.57.57,0,0,1,.52.62.56.56,0,0,1-.59.55c-3.87-.29-8,2.52-9.16,4.19A.56.56,0,0,1,285.68,410.8Z" style="fill:#f0f0f0"></path><path d="M281.2,407.11a.52.52,0,0,1-.35-.11.61.61,0,0,1-.12-.82c2.07-3,6.92-5.07,11.07-4.74a.58.58,0,0,1-.08,1.16c-3.73-.28-8.25,1.64-10.09,4.28A.51.51,0,0,1,281.2,407.11Z" style="fill:#f0f0f0"></path><path d="M240,346.78l-26.3-5.51c-.9,16.48-.48,43.38-.46,58.6,0,2.92-1.86,22.58-1.13,28.64,1.1,9.1,12.87,8.68,13.91,3.34s2.2-28.18,2.42-30.54a15.12,15.12,0,0,1,.23-2.12C231.57,385.31,239.81,347.57,240,346.78Z" style="fill:#b16668"></path><path d="M230.12,435.89c-.17,5.3-1,8.82-2.92,12s-5.8,4.21-9.75,3.4-9.06-3.12-10.32-7.65S206,436,206.73,431Z" style="fill:#263238"></path><path d="M213.23,398.19c-1.62.16-1.79,7.06-2.5,14.19-.76,7.64-3.15,10.85-3.85,17.12-.8,7.17-.29,10.34,2.58,14.59s12.7,8.25,17.28,2c3.74-5.13,3.73-10.72,3.15-17.84a163.22,163.22,0,0,1-.92-18.13c.15-5.35,1.1-10.33-.32-10.89-.08.79-.16,1.79-.25,2.56-.07.6-.14,3.49-1.05,3.54a11.2,11.2,0,0,1-.08-2,2.23,2.23,0,0,0-.49-1.71,6,6,0,0,0-2.53-.91c-1.6-.25-3.21-.47-4.83-.56q-1.21-.07-2.43,0a7.06,7.06,0,0,0-2,.31,1.39,1.39,0,0,0-.85.75,2,2,0,0,0-.06.82,5.66,5.66,0,0,1-.16,1.47c0,.21-.2.47-.43.42s-.27-.25-.28-.42c0-.86.07-1.49.08-2.5,0-.46,0-.9,0-1.36S213.21,398.65,213.23,398.19Z" style="fill:#455a64"></path><path d="M206.56,433.65c-.14,4.44.23,7.47,2.48,10.79,2.87,4.25,13.48,8.25,18.06,1.95,2.28-3.13,2.81-6.79,3-10.5C227.11,431.19,211,429.49,206.56,433.65Z" style="fill:#fafafa"></path><path d="M225.73,428.23a.65.65,0,0,1-.2-.05,25.79,25.79,0,0,0-14-1,.61.61,0,0,1-.73-.4.55.55,0,0,1,.43-.67,26.64,26.64,0,0,1,14.77,1,.53.53,0,0,1,.31.72A.63.63,0,0,1,225.73,428.23Z" style="fill:#f0f0f0"></path><path d="M211.77,421.88a.6.6,0,0,1-.52-.36.53.53,0,0,1,.35-.7c7.18-2.42,14.45.77,14.75.91a.53.53,0,0,1,.28.73.63.63,0,0,1-.8.25c-.07,0-7.13-3.12-13.81-.87A.73.73,0,0,1,211.77,421.88Z" style="fill:#f0f0f0"></path><path d="M212,416.85a.58.58,0,0,1-.52-.35.53.53,0,0,1,.34-.71,20.17,20.17,0,0,1,15.05.87.52.52,0,0,1,.22.74.63.63,0,0,1-.82.21,19.16,19.16,0,0,0-14-.8A.49.49,0,0,1,212,416.85Z" style="fill:#f0f0f0"></path><path d="M212.34,411.2a.59.59,0,0,1-.51-.34.52.52,0,0,1,.33-.71c7.39-2.74,14.84.86,15.16,1a.52.52,0,0,1,.24.74.62.62,0,0,1-.81.22c-.07,0-7.28-3.5-14.14-1A.51.51,0,0,1,212.34,411.2Z" style="fill:#ebebeb"></path><path d="M221.09,214.08c-1.64,31.08-4.51,94.09-4.51,94.09-.36,3.61-3.56,19.6-3.89,32.66-.52,20.95.29,40.35.29,40.35s11.61,5.13,19.66,1.82c0,0,10.62-47.38,13.31-61,3.2-16.26,10-48.63,10-48.63l5.37,43s-1.68,15.29,0,27.93c1.15,8.61,5.44,37.26,5.44,37.26s10.71,2.37,19.47-.52c0,0,4.1-60.86,4.62-68.8s2-48.77.12-98.85Z" style="fill:#37474f"></path><path d="M286.66,375.34c-4.31,3.26-16,3.1-20.9.43l1.48,9c3.52,2.1,13.84,2.51,19-1.16Z" style="fill:#263238"></path><path d="M234,377.7c-6.09,2.77-17.6,1.14-21.21-2.36v8.77c2.84,2.95,13.79,4.37,19.59,2.12Z" style="fill:#263238"></path><path d="M256,273.34l4.47-27.83a23.61,23.61,0,0,0,15.05-6.67s-.69,6.41-12.68,10.53l-4.1,23.09,2.63,43.84Z" style="fill:#263238"></path></g><g id="freepik--top--inject-176"><g id="freepik--Fist--inject-176"><path d="M314.4,50.32A3.82,3.82,0,0,1,315.47,48a12.53,12.53,0,0,0,1.33-1.78c1.93-3,1.24-6.13,2.14-8.87-7.22-2.23-12-2.08-15.16.7l-7.5-.38c-.77,2.07-.09,3.76,1.25,7.95.8,2.48,1.14,2.87,1.21,3.87a23.19,23.19,0,0,1-.24,4.75h0c-.71,5.83-3.9,26.95-3.9,26.95-.06,1.17,1.11,2.15,2.67,3a22.45,22.45,0,0,0,7.49,1.6,23.26,23.26,0,0,0,7.55-.85c1.69-.58,2.9-1.57,3-2.74,0,0-.85-26.6-.9-28.38C314.32,51.9,314.35,51.55,314.4,50.32Z" style="fill:#b16668"></path><path d="M308.22,40.75c1.69,2.27,1.7,6.58.51,8.28,3.82-3.54.49-9.68.49-9.68a5.08,5.08,0,0,0,3.61.5c1.5,1.52,2.67,1.41,3.62,1a6,6,0,0,0,2.25-2.6c.07-.3.15-.6.24-.89a40.43,40.43,0,0,0-4.28-1.1c-4.81-.84-8.49-.31-10.88,1.8A7.34,7.34,0,0,1,308.22,40.75Z" style="fill:#9a4a4d"></path><path d="M315.51,28.33c1.8.24,2.22.26,3.33,2.1a10.5,10.5,0,0,1,1.51,3.6c.23.86-.2,1.44-.79,2.39a18.65,18.65,0,0,1-2.5,3.28,2,2,0,0,1-2.62.34,13.68,13.68,0,0,1-1.55-1.42Z" style="fill:#b16668"></path><path d="M315.48,39.49c-.38-.51-.32-1.05.32-2a22.33,22.33,0,0,0,2.44-4.48c.23-.94-1.19-3.37-2.08-4.63l-.65-.09-2.62,10.29A13.68,13.68,0,0,0,314.44,40a2,2,0,0,0,2.62-.34c.1-.1.21-.21.31-.33C316.65,39.89,315.83,40,315.48,39.49Z" style="fill:#9a4a4d"></path><path d="M319.56,36.42a17,17,0,0,1-1.23,1.93,10.26,10.26,0,0,1-.71.89,6.35,6.35,0,0,1-.83.81,2.22,2.22,0,0,1-1.1.42,1.79,1.79,0,0,1-1.15-.27,9.88,9.88,0,0,1-1.65-1.58c.28.26.56.52.84.76a7.09,7.09,0,0,0,.89.69,1.76,1.76,0,0,0,1.05.22,2.08,2.08,0,0,0,1-.4,4.9,4.9,0,0,0,.81-.77c.26-.28.49-.57.73-.86s.47-.6.69-.91S319.34,36.73,319.56,36.42Z" style="fill:#9a4a4d"></path><path d="M319.56,36.42a17,17,0,0,1-1.23,1.93,10.26,10.26,0,0,1-.71.89,6.35,6.35,0,0,1-.83.81,2.22,2.22,0,0,1-1.1.42,1.79,1.79,0,0,1-1.15-.27,9.88,9.88,0,0,1-1.65-1.58c.28.26.56.52.84.76a7.09,7.09,0,0,0,.89.69,1.76,1.76,0,0,0,1.05.22,2.08,2.08,0,0,0,1-.4,4.9,4.9,0,0,0,.81-.77c.26-.28.49-.57.73-.86s.47-.6.69-.91S319.34,36.73,319.56,36.42Z" style="opacity:0.2"></path><path d="M316.34,29a3.19,3.19,0,0,1,1.14.17,4.68,4.68,0,0,1,.48.18l.16.07a3,3,0,0,0-.5-.47l-.2-.06a2,2,0,0,0-1.08.08S316.32,29,316.34,29Z" style="fill:#9a4a4d"></path><path d="M317.8,29.58l.1,0,0,0,0,0a0,0,0,0,0,0-.06s0,0-.07-.06l-.1,0-.2-.05-.2,0h-.23s0,0,0,0l.09,0,.1,0,.21.05Z" style="fill:#9a4a4d"></path><path d="M311.37,26.19A3.62,3.62,0,0,1,315,27.53a26.11,26.11,0,0,1,2.29,3.74,2.88,2.88,0,0,1-.49,2.85c-.84,1.36-2.36,3.8-3.62,4.4a3.24,3.24,0,0,1-3.57-.66Z" style="fill:#b16668"></path><path d="M313.32,33.05a4.23,4.23,0,0,0,.52-2.75,22.76,22.76,0,0,0-1.8-4.14c-.24,0-.46,0-.67,0l-1.81,11.67a3.24,3.24,0,0,0,3.57.66,2.88,2.88,0,0,0,.52-.34,2.15,2.15,0,0,1-1.87-.09c-.45-.31-.61-.68-.21-1.43S312.68,34.53,313.32,33.05Z" style="fill:#9a4a4d"></path><path d="M316.75,34.12a23.07,23.07,0,0,1-1.25,2.06c-.22.33-.46.65-.71,1A9.82,9.82,0,0,1,314,38a3,3,0,0,1-2.25.84,2.94,2.94,0,0,1-1.16-.34,5.68,5.68,0,0,1-1-.68,5.35,5.35,0,0,0,1,.59,3,3,0,0,0,1.13.28,3,3,0,0,0,1.14-.2,3,3,0,0,0,1-.64,11.59,11.59,0,0,0,1.55-1.8c.24-.32.47-.65.69-1Z" style="fill:#9a4a4d"></path><path d="M316.75,34.12a23.07,23.07,0,0,1-1.25,2.06c-.22.33-.46.65-.71,1A9.82,9.82,0,0,1,314,38a3,3,0,0,1-2.25.84,2.94,2.94,0,0,1-1.16-.34,5.68,5.68,0,0,1-1-.68,5.35,5.35,0,0,0,1,.59,3,3,0,0,0,1.13.28,3,3,0,0,0,1.14-.2,3,3,0,0,0,1-.64,11.59,11.59,0,0,0,1.55-1.8c.24-.32.47-.65.69-1Z" style="opacity:0.2"></path><path d="M314.09,27a1.83,1.83,0,0,0-.32-.07,1.78,1.78,0,0,0-.65,0s0,0,0,0a4,4,0,0,1,.67.14l.31.09a1.19,1.19,0,0,0,.32.1c.08,0,.07-.15,0-.18A1.28,1.28,0,0,0,314.09,27Z" style="fill:#9a4a4d"></path><path d="M313.64,26.61l.49.11a3.06,3.06,0,0,0-.65-.33,2.16,2.16,0,0,0-1.12.21h0A3.93,3.93,0,0,1,313.64,26.61Z" style="fill:#9a4a4d"></path><path d="M315,27.64a.44.44,0,0,0-.08-.11.76.76,0,0,0-.08-.11,3,3,0,0,1-.84,0,10.74,10.74,0,0,1-1.26-.23s0,0,.07.08a2.91,2.91,0,0,0,1.19.37A2.76,2.76,0,0,0,315,27.64Z" style="fill:#9a4a4d"></path><path d="M307.43,24.34c1.5-.09,2.76,0,3.42.89a21.68,21.68,0,0,1,2.2,4.42c.28,1,.46,1.3-.4,3.47s-2.26,4.24-3.08,4.73-3.24.71-3.75-.53S307.43,24.34,307.43,24.34Z" style="fill:#b16668"></path><path d="M308.85,29.36a12.3,12.3,0,0,0-.77-5.05l-.65,0s-2.13,11.75-1.61,13,2.47,1,3.46.67c-1.3.17-1.94-.41-2.07-.94s.62-1.3.62-1.3a12.28,12.28,0,0,0,2.49-1.57,3.21,3.21,0,0,0,.86-2.63C311.41,29.67,310.81,29.5,308.85,29.36Z" style="fill:#9a4a4d"></path><path d="M312.65,33.12a11.42,11.42,0,0,1-.45,1.15c-.17.38-.35.75-.55,1.11a10.89,10.89,0,0,1-1.42,2,3.87,3.87,0,0,1-.47.43,2.16,2.16,0,0,1-.57.28,4.4,4.4,0,0,1-1.24.2,3.63,3.63,0,0,1-1.23-.18,1.47,1.47,0,0,1-.9-.82,1.41,1.41,0,0,0,.93.72,3.4,3.4,0,0,0,1.19.12,5.2,5.2,0,0,0,1.19-.21,2,2,0,0,0,.52-.27,3.32,3.32,0,0,0,.43-.41,11.14,11.14,0,0,0,1.43-2A19.62,19.62,0,0,0,312.65,33.12Z" style="fill:#9a4a4d"></path><path d="M312.65,33.12a11.42,11.42,0,0,1-.45,1.15c-.17.38-.35.75-.55,1.11a10.89,10.89,0,0,1-1.42,2,3.87,3.87,0,0,1-.47.43,2.16,2.16,0,0,1-.57.28,4.4,4.4,0,0,1-1.24.2,3.63,3.63,0,0,1-1.23-.18,1.47,1.47,0,0,1-.9-.82,1.41,1.41,0,0,0,.93.72,3.4,3.4,0,0,0,1.19.12,5.2,5.2,0,0,0,1.19-.21,2,2,0,0,0,.52-.27,3.32,3.32,0,0,0,.43-.41,11.14,11.14,0,0,0,1.43-2A19.62,19.62,0,0,0,312.65,33.12Z" style="opacity:0.2"></path><path d="M310.85,25.49a3.7,3.7,0,0,0-.47,0l-.53,0c-.34,0-.68-.06-1-.07a0,0,0,0,0,0,0,6,6,0,0,0,1,.25,4.36,4.36,0,0,0,.51,0,1.34,1.34,0,0,0,.49,0C310.93,25.64,310.93,25.5,310.85,25.49Z" style="fill:#9a4a4d"></path><path d="M309.85,24.92A1.86,1.86,0,0,0,309,25s0,0,0,0a4.07,4.07,0,0,1,.78,0,2.57,2.57,0,0,1,.38.08l.19.06a.52.52,0,0,0,.16.06c.07,0,.08-.12,0-.16a1.16,1.16,0,0,0-.37-.13A2.38,2.38,0,0,0,309.85,24.92Z" style="fill:#9a4a4d"></path><path d="M310.19,24.66a3.13,3.13,0,0,0-.73-.25,2.35,2.35,0,0,0-1.45.47s0,.06,0,0a3.24,3.24,0,0,1,1.6-.29A5.63,5.63,0,0,1,310.19,24.66Z" style="fill:#9a4a4d"></path><path d="M296.88,36.11a63.8,63.8,0,0,1,0-7.31,3.64,3.64,0,0,1,1.84-2.6,39.5,39.5,0,0,1,5.24-2.91c1-.36,3.09.09,3.49,1.2.55,1.55.7,6.26.56,8.29a6.08,6.08,0,0,1-1.51,4,5.89,5.89,0,0,1-2.69,1.26Z" style="fill:#b16668"></path><path d="M308,29.32a36.67,36.67,0,0,1-5.77.27c-1.89-.07-2.94.05-3.63,1a8.6,8.6,0,0,0-1.08,1.9c-.22.52-.52.23-.76-.91,0,1.49.07,3.23.12,4.53l6.9,2a5.89,5.89,0,0,0,2.69-1.26,6.08,6.08,0,0,0,1.51-4C308,32,308.05,30.66,308,29.32Z" style="fill:#9a4a4d"></path><path d="M303.78,38.08a9.06,9.06,0,0,0,.88-.29,7.91,7.91,0,0,0,.84-.37,4.23,4.23,0,0,0,.74-.51,4.38,4.38,0,0,0,.59-.69,5.7,5.7,0,0,0,.78-1.63,8.89,8.89,0,0,0,.22-.89c.06-.31.1-.61.15-.92a8.28,8.28,0,0,1-.22,1.85,5,5,0,0,1-.77,1.71,4.64,4.64,0,0,1-.62.71,4,4,0,0,1-.8.51A6.67,6.67,0,0,1,303.78,38.08Z" style="fill:#9a4a4d"></path><path d="M303.78,38.08a9.06,9.06,0,0,0,.88-.29,7.91,7.91,0,0,0,.84-.37,4.23,4.23,0,0,0,.74-.51,4.38,4.38,0,0,0,.59-.69,5.7,5.7,0,0,0,.78-1.63,8.89,8.89,0,0,0,.22-.89c.06-.31.1-.61.15-.92a8.28,8.28,0,0,1-.22,1.85,5,5,0,0,1-.77,1.71,4.64,4.64,0,0,1-.62.71,4,4,0,0,1-.8.51A6.67,6.67,0,0,1,303.78,38.08Z" style="opacity:0.2"></path><path d="M305.91,23.38l.17,0a4.3,4.3,0,0,0-1.26-.23,2.26,2.26,0,0,0-.74.34,1.76,1.76,0,0,0-.59.68s0,0,0,0a2.54,2.54,0,0,1,1.42-.76A4.57,4.57,0,0,1,305.91,23.38Zm-.76.51a2.53,2.53,0,0,0-.55.18s0,0,0,0c.2,0,.4,0,.59,0l.58,0a9.89,9.89,0,0,1,1.09.17c.17,0,.12-.26,0-.28a8.9,8.9,0,0,0-1.14-.15A3.5,3.5,0,0,0,305.15,23.89Zm2,.94a1.34,1.34,0,0,0-.63,0,5.18,5.18,0,0,1-.79,0,8.6,8.6,0,0,1-1.33-.23s0,0,0,0a4,4,0,0,0,1.39.47c.22,0,.45,0,.67,0a1.06,1.06,0,0,0,.68-.15S307.15,24.84,307.12,24.83Z" style="fill:#9a4a4d"></path><path d="M302.5,29.6a2.84,2.84,0,0,1,.47-2.9,2.28,2.28,0,0,0-1.26,1.73,10.42,10.42,0,0,0-.1,1.74Z" style="fill:#9a4a4d"></path><path d="M309.22,29.59a23.15,23.15,0,0,0-3.05.49c-1,.19-2.29.19-4.61.53a3.79,3.79,0,0,0-2.72,1.46c-.82.91-1.26,2.16-2.56,5.63l7.5.38.61-2.07A19.52,19.52,0,0,0,308,35c1.95-.83,3-2.22,3.14-3.33S311.19,29.45,309.22,29.59Z" style="fill:#b16668"></path><path d="M304.39,36a2.41,2.41,0,0,0-.81-2.34,1.93,1.93,0,0,1,1.33,2.23Z" style="fill:#9a4a4d"></path><path d="M303.78,38.08l.27-1c.09-.34.18-.69.28-1v0h0c.39-.08.77-.18,1.16-.28s.77-.2,1.15-.32.75-.26,1.12-.41a8.08,8.08,0,0,0,1.07-.51,5.58,5.58,0,0,0,1.75-1.56,3,3,0,0,0,.49-1.07,5.61,5.61,0,0,0,.06-.59,2.41,2.41,0,0,0,0-.6,2,2,0,0,1,.06.6c0,.2,0,.4,0,.61a3,3,0,0,1-.45,1.12A5.5,5.5,0,0,1,309,34.59a9.92,9.92,0,0,1-2.23.93,17.27,17.27,0,0,1-2.34.55l.05,0-.33,1C304,37.4,303.9,37.74,303.78,38.08Z" style="fill:#9a4a4d"></path><path d="M303.78,38.08l.27-1c.09-.34.18-.69.28-1v0h0c.39-.08.77-.18,1.16-.28s.77-.2,1.15-.32.75-.26,1.12-.41a8.08,8.08,0,0,0,1.07-.51,5.58,5.58,0,0,0,1.75-1.56,3,3,0,0,0,.49-1.07,5.61,5.61,0,0,0,.06-.59,2.41,2.41,0,0,0,0-.6,2,2,0,0,1,.06.6c0,.2,0,.4,0,.61a3,3,0,0,1-.45,1.12A5.5,5.5,0,0,1,309,34.59a9.92,9.92,0,0,1-2.23.93,17.27,17.27,0,0,1-2.34.55l.05,0-.33,1C304,37.4,303.9,37.74,303.78,38.08Z" style="opacity:0.2"></path></g><path d="M273.21,127.17a82.12,82.12,0,0,1,8-8.23c3.39-3.18,11.56-25.54,11.56-25.54l5-33.56c2.62,2.73,13.66,3.81,17.86,1.51,0,0-.07,12.37-.41,32.29-.12,7.13-.37,9-5.37,21.58-2.87,7.2-4.52,11.2-9,20.68-4,8.33-10.74,21.84-12,27.73-.33,1.58-.33,3.71-2.49,3.75-3.33.07-6.33-10.95-8.66-15.65C273.2,142.79,272.68,131.26,273.21,127.17Z" style="fill:#37474f"></path><path d="M297.76,57.82l-1,7.4s1.56,2.53,9.12,3.17,9.7-.82,9.7-.82V60s-1.68,1.22-8.81.51S297.76,57.82,297.76,57.82Z" style="fill:#455a64"></path><path id="freepik--Chest--inject-176" d="M242.11,128.1c-11,2.45-14.26,3.51-19.44,4.71,0,0-9.16,12.18-5.25,45.88.51,4.46,3.4,17.21,3.39,25.21,0,7.65-.07,10.84-.72,23,0,0,14.84,9.65,45.5,6.53,24.08-2.46,25.76-10.93,25.76-10.93s-1.33-33.14-1.9-50.84c-.57-18-1.63-25.4-6.16-34.36-1.87-3.69-6.14-8.67-10.08-10.12a97.42,97.42,0,0,1-10.65,1.27Z" style="fill:#455a64"></path><path d="M266.33,151.49c-.06-.18,1.1-3.73.74-7a11.94,11.94,0,0,0,1.94-7.61,34.15,34.15,0,0,1-3-2.08l-1.5,10.25-4.64,1.6s-12.82-8.61-14.15-9.84l-3.81,2.71c2.12,3.29,6.78,6.78,14.14,8.19a6.35,6.35,0,0,0,4.62,5.43c4.27,5.8,5.76,12.24,3.89,19.29-2.3,8.65-6.88,13.14-16.4,20.39-6.38,4.87-10.16,8.57-13.13,18.84l4.19,12,16.07-8.51c1.18-4.46,3.48-7.78,9.05-14.66,8.08-10,8.52-17.65,8.38-24.71C272.52,164.58,268.51,155,266.33,151.49Z" style="fill:#37474f"></path><path d="M266.33,151.49c-.76-2.2-5-.67-5.11,1.18,1.81,2.86,4.52,10.84,3.31,16.75-1.8,8.77-6.54,13.14-16,20.39-6.38,4.87-10.17,8.57-13.14,18.84l4.2,12,13.62-7.33c1.76-4.83,4.81-9,10.38-15.84,8.08-10,9.64-17.65,9.5-24.71A38.16,38.16,0,0,0,266.33,151.49Z" style="fill:#BA68C8"></path><path d="M257,146.7c-6.71-1.29-13-6-14.39-7.63l4.39-3.13c4,5,11.19,8.83,13.66,9.14Z" style="fill:#BA68C8"></path><path d="M266.44,144a13.46,13.46,0,0,0,2.05-7.9l-2.87-2.3s-.2,6-1.57,9.69Z" style="fill:#BA68C8"></path><path d="M257,146.7c2-4.78,7.81-4.33,9.41-2.75a11,11,0,0,1-.09,7.55c-.77-1.32-4.25.12-5.13,1.17C259.24,152,257.05,148.12,257,146.7Z" style="fill:#BA68C8"></path><path d="M261.55,149.59c-1.8-.33-3-4.22-1.79-6A6,6,0,0,0,257,146.7c0,1.42,2.21,5.29,4.19,6,.88-1,4.36-2.49,5.13-1.17a9.52,9.52,0,0,0,.38-1.14C265.58,147.69,263.35,149.92,261.55,149.59Z" style="opacity:0.2"></path><g id="freepik--Head--inject-176"><path d="M259.77,109.76c4-7.37,11.37-13.52,8.84-22.7,4.7.47,9-5.45,5.07-9,4.9-1.42,3.67-10.2-1.57-9.2.61-2.95-1.18-8.47-4.89-7.66-4,4-5.93,3.48-16.31,3.22-17.15-.44-25.13,4.85-23.71,18-3.06,1.9-4.73,9.6-1.78,16.19,4.42,10.54,10,9.48,13.53,18.84Z" style="fill:#263238"></path><path d="M270.54,117.51c-2.27,1.55-4.23,2.12-9.05,3.47l.07,2.82c.43,3,.33,3.73,1.74,5.21,2.59,4,1,7.18-2,13.29-8.9-9-15.74-4.22-22.79-14.39,1.07-1,.93-2.31.81-5.82l-1.08-13.27s0,1.26-2.52,1.74a7,7,0,0,1-6.31-2.51c-3.22-4.18-3.79-7.29-2-10.65,1.61-3.06,5.32-3.86,7.58-2.33,2.42,1.64,2.46,2.92,3.33,4.69s4,2,3.39-5.08c4.54-.85,5.43-8.08,4.17-14.34,4-3.46,12.44-5.76,19-4,2.7.72,5.09,1.92,6.59,6.7a21.17,21.17,0,0,1,1,5.85c.12,1.95,1.18,3.44,1.78,6.22a46.56,46.56,0,0,1,.69,8.72C275.07,112,273,115.84,270.54,117.51Z" style="fill:#b16668"></path><path d="M270.26,85.14l-4.33,2.56a2.42,2.42,0,0,1,.8-3.42A2.64,2.64,0,0,1,270.26,85.14Z" style="fill:#263238"></path><path d="M255.33,89.39,250,89a2.58,2.58,0,0,1,2.79-2.51A2.83,2.83,0,0,1,255.33,89.39Z" style="fill:#263238"></path><path d="M255.85,93.24a1.75,1.75,0,0,1-1.46,2.2,2,2,0,0,1-2.54-1.23,2.06,2.06,0,1,1,4-1Z" style="fill:#263238"></path><path d="M270.73,91.38a1.86,1.86,0,0,1-2,1.91,1.88,1.88,0,0,1-2.15-1.73,2.06,2.06,0,1,1,4.11-.18Z" style="fill:#263238"></path><path d="M259.45,90.15l2.47,12.13L269,98.82C266.29,93.62,261.92,89.61,259.45,90.15Z" style="fill:#9a4a4d"></path><path d="M261.92,102.28l6.66-1.22s1.54-2.89-.48-2.49S261.92,102.28,261.92,102.28Z" style="fill:#9a4a4d"></path><path d="M261.92,102.28l6.66-1.22s1.54-2.89-.48-2.49S261.92,102.28,261.92,102.28Z" style="opacity:0.2"></path><path d="M260.78,105.77a5.38,5.38,0,0,0-1.39-.5,3.76,3.76,0,0,0-2.94.32c-.08.06-.14.34,0,.36.51.06,1,0,1.54,0a10.31,10.31,0,0,1,1.45.2,7.37,7.37,0,0,1,1.29.47c.33.14.7.47,1.08.39.08,0,.11-.15.09-.22A2.17,2.17,0,0,0,260.78,105.77Z" style="fill:#9a4a4d"></path><path d="M260.78,105.77a5.38,5.38,0,0,0-1.39-.5,3.76,3.76,0,0,0-2.94.32c-.08.06-.14.34,0,.36.51.06,1,0,1.54,0a10.31,10.31,0,0,1,1.45.2,7.37,7.37,0,0,1,1.29.47c.33.14.7.47,1.08.39.08,0,.11-.15.09-.22A2.17,2.17,0,0,0,260.78,105.77Z" style="opacity:0.2"></path><path d="M266.17,117c-5.48,1-9.15,2.68-14.94,2.36-5.43-.29-7.45-3.85-9.09-6.32,1.87,4,3.16,5.65,4.61,6.55,3.21,2,6.41,2.82,14.74,1.36,4.33-1.22,5.75-1.49,7.95-2.81C270.62,117.49,269.14,116.48,266.17,117Z" style="fill:#9a4a4d"></path></g><path d="M261.32,142.51c-2.33-1.34-4.95-4.27-8.32-2-3.13,2.09-5.19,5.85-6.86,5.4s-8-4.65-10.65-8.78-2.74-6.84-2.74-6.84a22,22,0,0,0,4-4.9c.89-1.87,1.14-3.15,2.59-3.29l.14,4.46a40.33,40.33,0,0,0,5.84,5.16C249.45,134.48,258.19,136.15,261.32,142.51Z" style="fill:#37474f"></path><path d="M261.32,142.51c1.33-1.27,2.47-3.64,3.83-3.94,2.25-.51,5.55,5.57,5.58,4.38s-1.61-9.63-3.36-12.1-4.29-7.18-5.81-7l.18,2.58a9.13,9.13,0,0,0,.59,2.68,12.15,12.15,0,0,1,.69,5.21C262.89,136.3,261.55,140.56,261.32,142.51Z" style="fill:#37474f"></path><path d="M188.39,226c.18,10.79.67,13.37-.35,17.7a41.15,41.15,0,0,0-1.2,14.86c.81,8.52,1.06,10.81,2.64,13.24a11.63,11.63,0,0,0,2.81,2.85,2.75,2.75,0,0,0,2.92,2.12c.73,2.89,2.7,3.76,4,3.56,1.15,3.29,2,3.68,2.64,3.16a6.5,6.5,0,0,0,2.29-4.92c-.05-3.11-1.29-7-1.78-9.91-.82-5-1.81-10-1-10.08s1,4.79,2.8,7.68c2.36,3.74,5.56,2,5.27.76a30.55,30.55,0,0,1-1.25-8.55c-.29-8.94-2.61-8.81-3.29-15.1-.72-6.75-.18-24.51-.18-24.51Z" style="fill:#b16668"></path><path d="M222.71,132.81c-14.59,2.95-16,9.12-19.86,17.8A285.83,285.83,0,0,0,192,179.47c-2.68,8.18-3.6,11.19-3.86,20.75-.4,14.77,0,35.31,0,35.31,5.72,1.95,11.42,2.72,17.08.53l5.91-40,14.72-31.9S233.47,143.56,222.71,132.81Z" style="fill:#37474f"></path><path d="M188,229.09l.17,7.34s.46,2.1,8,2.73,9.29-1.52,9.29-1.52l.7-7.19s-2.06,1.64-9.3,1.25C189.72,231.31,188,229.09,188,229.09Z" style="fill:#455a64"></path></g></g></g></svg>